<svg xmlns="http://www.w3.org/2000/svg" xmlns:xlink="http://www.w3.org/1999/xlink" width="500" zoomAndPan="magnify" viewBox="0 0 375 374.999991" height="500" preserveAspectRatio="xMidYMid meet" version="1.0"><path fill="#60000b" d="M 175.65625 71.738281 C 175.65625 72.925781 175.597656 74.109375 175.480469 75.292969 C 175.367188 76.476562 175.191406 77.648438 174.960938 78.8125 C 174.726562 79.980469 174.441406 81.128906 174.09375 82.265625 C 173.75 83.402344 173.351562 84.523438 172.894531 85.621094 C 172.441406 86.71875 171.933594 87.789062 171.375 88.835938 C 170.8125 89.886719 170.203125 90.902344 169.542969 91.890625 C 168.882812 92.878906 168.175781 93.832031 167.421875 94.75 C 166.667969 95.667969 165.871094 96.546875 165.03125 97.386719 C 164.191406 98.226562 163.3125 99.023438 162.394531 99.777344 C 161.476562 100.53125 160.523438 101.238281 159.535156 101.898438 C 158.546875 102.558594 157.527344 103.167969 156.480469 103.730469 C 155.433594 104.289062 154.359375 104.796875 153.261719 105.253906 C 152.164062 105.707031 151.046875 106.105469 149.910156 106.453125 C 148.773438 106.796875 147.621094 107.085938 146.457031 107.316406 C 145.292969 107.546875 144.117188 107.722656 142.9375 107.839844 C 141.753906 107.957031 140.566406 108.011719 139.378906 108.011719 C 138.191406 108.011719 137.007812 107.957031 135.824219 107.839844 C 134.640625 107.722656 133.46875 107.546875 132.304688 107.316406 C 131.136719 107.085938 129.988281 106.796875 128.847656 106.453125 C 127.710938 106.105469 126.59375 105.707031 125.496094 105.253906 C 124.398438 104.796875 123.328125 104.289062 122.28125 103.730469 C 121.230469 103.167969 120.214844 102.558594 119.226562 101.898438 C 118.238281 101.238281 117.285156 100.53125 116.367188 99.777344 C 115.449219 99.023438 114.570312 98.226562 113.730469 97.386719 C 112.886719 96.546875 112.089844 95.667969 111.339844 94.75 C 110.585938 93.832031 109.878906 92.878906 109.21875 91.890625 C 108.558594 90.902344 107.945312 89.886719 107.386719 88.835938 C 106.828125 87.789062 106.320312 86.71875 105.863281 85.621094 C 105.410156 84.523438 105.011719 83.402344 104.664062 82.265625 C 104.320312 81.128906 104.03125 79.980469 103.800781 78.8125 C 103.570312 77.648438 103.394531 76.476562 103.277344 75.292969 C 103.160156 74.109375 103.105469 72.925781 103.105469 71.738281 C 103.105469 70.546875 103.160156 69.363281 103.277344 68.179688 C 103.394531 67 103.570312 65.824219 103.800781 64.660156 C 104.03125 63.496094 104.320312 62.34375 104.664062 61.207031 C 105.011719 60.070312 105.410156 58.953125 105.863281 57.855469 C 106.320312 56.757812 106.828125 55.683594 107.386719 54.636719 C 107.945312 53.589844 108.558594 52.570312 109.21875 51.582031 C 109.878906 50.59375 110.585938 49.640625 111.339844 48.722656 C 112.089844 47.804688 112.886719 46.925781 113.730469 46.085938 C 114.570312 45.246094 115.449219 44.449219 116.367188 43.695312 C 117.285156 42.941406 118.238281 42.234375 119.226562 41.574219 C 120.214844 40.914062 121.230469 40.304688 122.28125 39.742188 C 123.328125 39.183594 124.398438 38.675781 125.496094 38.222656 C 126.59375 37.765625 127.710938 37.367188 128.847656 37.023438 C 129.988281 36.675781 131.136719 36.390625 132.304688 36.15625 C 133.46875 35.925781 134.640625 35.75 135.824219 35.636719 C 137.007812 35.519531 138.191406 35.460938 139.378906 35.460938 C 140.566406 35.460938 141.753906 35.519531 142.9375 35.636719 C 144.117188 35.75 145.292969 35.925781 146.457031 36.15625 C 147.621094 36.390625 148.773438 36.675781 149.910156 37.023438 C 151.046875 37.367188 152.164062 37.765625 153.261719 38.222656 C 154.359375 38.675781 155.433594 39.183594 156.480469 39.742188 C 157.527344 40.304688 158.546875 40.914062 159.535156 41.574219 C 160.523438 42.234375 161.476562 42.941406 162.394531 43.695312 C 163.3125 44.449219 164.191406 45.246094 165.03125 46.085938 C 165.871094 46.925781 166.667969 47.804688 167.421875 48.722656 C 168.175781 49.640625 168.882812 50.59375 169.542969 51.582031 C 170.203125 52.570312 170.8125 53.589844 171.375 54.636719 C 171.933594 55.683594 172.441406 56.757812 172.894531 57.855469 C 173.351562 58.953125 173.75 60.070312 174.09375 61.207031 C 174.441406 62.34375 174.726562 63.496094 174.960938 64.660156 C 175.191406 65.824219 175.367188 67 175.480469 68.179688 C 175.597656 69.363281 175.65625 70.546875 175.65625 71.738281 Z M 175.65625 71.738281 " fill-opacity="1" fill-rule="nonzero"/><path fill="#60000b" d="M 275.089844 98.609375 C 275.089844 99.773438 275.03125 100.9375 274.917969 102.097656 C 274.804688 103.257812 274.632812 104.410156 274.40625 105.554688 C 274.175781 106.699219 273.894531 107.828125 273.554688 108.945312 C 273.21875 110.0625 272.824219 111.15625 272.378906 112.234375 C 271.933594 113.3125 271.433594 114.367188 270.882812 115.394531 C 270.335938 116.421875 269.734375 117.421875 269.089844 118.390625 C 268.441406 119.359375 267.746094 120.296875 267.007812 121.199219 C 266.265625 122.101562 265.484375 122.964844 264.660156 123.789062 C 263.835938 124.613281 262.972656 125.394531 262.070312 126.132812 C 261.167969 126.875 260.234375 127.566406 259.265625 128.214844 C 258.292969 128.863281 257.296875 129.460938 256.265625 130.011719 C 255.238281 130.5625 254.183594 131.058594 253.109375 131.507812 C 252.03125 131.953125 250.933594 132.34375 249.816406 132.683594 C 248.703125 133.023438 247.570312 133.304688 246.429688 133.53125 C 245.285156 133.761719 244.132812 133.929688 242.972656 134.046875 C 241.8125 134.160156 240.648438 134.21875 239.480469 134.21875 C 238.316406 134.21875 237.152344 134.160156 235.992188 134.046875 C 234.832031 133.929688 233.679688 133.761719 232.535156 133.53125 C 231.390625 133.304688 230.261719 133.023438 229.144531 132.683594 C 228.027344 132.34375 226.933594 131.953125 225.855469 131.507812 C 224.777344 131.058594 223.722656 130.5625 222.695312 130.011719 C 221.667969 129.460938 220.667969 128.863281 219.699219 128.214844 C 218.730469 127.566406 217.792969 126.875 216.890625 126.132812 C 215.992188 125.394531 215.128906 124.613281 214.304688 123.789062 C 213.476562 122.964844 212.695312 122.101562 211.957031 121.199219 C 211.214844 120.296875 210.523438 119.359375 209.875 118.390625 C 209.226562 117.421875 208.628906 116.421875 208.078125 115.394531 C 207.527344 114.367188 207.03125 113.3125 206.582031 112.234375 C 206.136719 111.15625 205.746094 110.0625 205.40625 108.945312 C 205.066406 107.828125 204.785156 106.699219 204.558594 105.554688 C 204.332031 104.410156 204.160156 103.257812 204.046875 102.097656 C 203.929688 100.9375 203.875 99.773438 203.875 98.609375 C 203.875 97.441406 203.929688 96.28125 204.046875 95.117188 C 204.160156 93.957031 204.332031 92.804688 204.558594 91.664062 C 204.785156 90.519531 205.066406 89.386719 205.40625 88.273438 C 205.746094 87.15625 206.136719 86.058594 206.582031 84.984375 C 207.03125 83.90625 207.527344 82.851562 208.078125 81.824219 C 208.628906 80.796875 209.226562 79.796875 209.875 78.828125 C 210.523438 77.855469 211.214844 76.921875 211.957031 76.019531 C 212.695312 75.117188 213.476562 74.253906 214.304688 73.429688 C 215.128906 72.605469 215.992188 71.824219 216.890625 71.082031 C 217.792969 70.34375 218.730469 69.648438 219.699219 69.003906 C 220.667969 68.355469 221.667969 67.753906 222.695312 67.207031 C 223.722656 66.65625 224.777344 66.15625 225.855469 65.710938 C 226.933594 65.265625 228.027344 64.871094 229.144531 64.535156 C 230.261719 64.195312 231.390625 63.914062 232.535156 63.683594 C 233.679688 63.457031 234.832031 63.285156 235.992188 63.171875 C 237.152344 63.058594 238.316406 63 239.480469 63 C 240.648438 63 241.8125 63.058594 242.972656 63.171875 C 244.132812 63.285156 245.285156 63.457031 246.429688 63.683594 C 247.570312 63.914062 248.703125 64.195312 249.816406 64.535156 C 250.933594 64.871094 252.03125 65.265625 253.109375 65.710938 C 254.183594 66.15625 255.238281 66.65625 256.265625 67.207031 C 257.296875 67.753906 258.292969 68.355469 259.265625 69.003906 C 260.234375 69.648438 261.167969 70.34375 262.070312 71.082031 C 262.972656 71.824219 263.835938 72.605469 264.660156 73.429688 C 265.484375 74.253906 266.265625 75.117188 267.007812 76.019531 C 267.746094 76.921875 268.441406 77.855469 269.089844 78.828125 C 269.734375 79.796875 270.335938 80.796875 270.882812 81.824219 C 271.433594 82.851562 271.933594 83.90625 272.378906 84.984375 C 272.824219 86.058594 273.21875 87.15625 273.554688 88.273438 C 273.894531 89.386719 274.175781 90.519531 274.40625 91.664062 C 274.632812 92.804688 274.804688 93.957031 274.917969 95.117188 C 275.03125 96.28125 275.089844 97.441406 275.089844 98.609375 Z M 275.089844 98.609375 " fill-opacity="1" fill-rule="nonzero"/><path fill="#60000b" d="M 314.054688 106.335938 C 313.617188 107.621094 311.808594 112.453125 306.664062 115.40625 C 305.09375 116.304688 301.332031 118.109375 296.585938 117.421875 C 292.476562 116.824219 289.832031 114.664062 287.855469 113.054688 C 284.394531 110.234375 282.476562 107.035156 281.472656 104.988281 C 279.621094 99.21875 277.910156 94.140625 276.433594 89.875 C 274.726562 84.945312 273.894531 82.71875 272.066406 80.132812 C 269.433594 76.402344 266.265625 74.097656 264.003906 72.738281 C 265.789062 72.480469 268.878906 72.304688 272.066406 73.746094 C 274.425781 74.820312 276.21875 76.222656 278.113281 79.121094 C 281.695312 84.609375 285.277344 90.09375 288.863281 95.582031 C 289.777344 97.035156 292.042969 100.191406 296.253906 102.300781 C 301.320312 104.835938 306.039062 104.253906 307.671875 103.980469 C 307.269531 104.328125 301.394531 109.203125 294.574219 107.003906 C 291.066406 105.871094 289.011719 103.421875 288.191406 102.300781 C 286.738281 100.175781 285.28125 98.046875 283.824219 95.921875 C 283.917969 97.507812 284.304688 100.515625 286.175781 103.644531 C 286.851562 104.777344 289.757812 109.328125 295.582031 111.035156 C 300.320312 112.425781 304.285156 111.144531 306.664062 110.363281 C 310.050781 109.253906 312.519531 107.574219 314.054688 106.335938 Z M 314.054688 106.335938 " fill-opacity="1" fill-rule="nonzero"/><path fill="#60000b" d="M 308.679688 252.121094 C 309.566406 256.429688 311.015625 263.8125 309.351562 272.945312 C 307.679688 282.125 303.714844 288.355469 300.621094 293.097656 C 292.40625 305.707031 282.519531 312.691406 275.234375 317.726562 C 269.769531 321.503906 258.832031 328.378906 243.363281 333.371094 C 215.636719 342.320312 192.683594 338.964844 187.414062 338.113281 C 175.949219 336.246094 166.859375 332.949219 160.878906 330.386719 C 158.667969 331.761719 156.222656 333.160156 153.546875 334.53125 C 150.914062 335.878906 148.386719 337.027344 146.015625 338.007812 C 144.8125 338.789062 143.257812 338.46875 142.539062 337.429688 C 141.9375 336.5625 142.003906 335.316406 142.738281 334.417969 L 151.808594 326.355469 C 142.289062 319.246094 134.429688 312.652344 128.292969 307.210938 C 120.136719 299.976562 114.246094 294.085938 110.667969 290.496094 C 103.675781 283.484375 98.835938 278.625 93.285156 271.953125 C 87.785156 265.347656 81.101562 257.316406 74.882812 245.402344 C 71.667969 239.253906 65.800781 227.738281 63.128906 211.476562 C 61.867188 203.820312 60.351562 194.027344 62.792969 181.582031 C 65.699219 166.769531 72.527344 156.820312 75.894531 152.019531 C 79.988281 146.179688 86.335938 137.332031 98.0625 130.519531 C 103.222656 127.527344 112.160156 122.332031 124.601562 122.457031 C 137.195312 122.585938 146.207031 128.09375 151.140625 131.191406 C 160.601562 137.136719 165.453125 143.871094 173.980469 155.710938 C 178.308594 161.722656 185.605469 171.988281 191.785156 187.285156 C 194.214844 193.3125 198.632812 204.46875 200.515625 219.871094 C 201.664062 229.269531 203.019531 241.316406 198.835938 255.8125 C 196.984375 262.226562 194.597656 267.253906 192.789062 270.589844 C 194.570312 256.722656 193.660156 245.265625 192.457031 237.339844 C 190.113281 221.90625 185.257812 210.703125 181.371094 201.730469 C 176.320312 190.0625 171.527344 182.5 170.289062 180.566406 C 165.160156 172.585938 160.253906 166.816406 157.1875 163.4375 C 152.78125 158.582031 149.222656 154.703125 143.417969 150.671875 C 139.949219 148.261719 135.550781 145.257812 128.972656 143.28125 C 125.582031 142.257812 120.011719 140.648438 112.847656 141.601562 C 106.171875 142.492188 101.5 145.167969 98.40625 146.976562 C 96.632812 148.015625 92.175781 150.785156 87.65625 155.707031 C 86.453125 157.015625 80.835938 163.285156 77.242188 173.511719 C 72.460938 187.117188 74.378906 199.003906 75.898438 208.445312 C 76.4375 211.828125 78.582031 224.035156 85.757812 238.335938 C 90.445312 247.683594 95.128906 253.632812 103.441406 264.207031 C 111.335938 274.242188 118.007812 281.25 122.921875 286.375 C 135.054688 299.039062 144.589844 307.105469 147.109375 309.21875 C 152.210938 313.496094 156.640625 316.894531 159.875 319.296875 C 166.304688 314.273438 174.390625 307.648438 183.390625 299.476562 C 188.699219 294.652344 199.015625 285.03125 211.269531 271.597656 C 223.71875 257.945312 230.546875 248.71875 235.453125 241.363281 C 237.765625 237.902344 242.039062 231.285156 245.195312 221.882812 C 248.328125 212.554688 248.113281 207.214844 247.886719 204.753906 C 247.671875 202.4375 247.210938 197.953125 244.527344 192.996094 C 243.3125 190.757812 239.804688 184.484375 232.433594 181.242188 C 223.078125 177.125 214 180.757812 210.265625 182.25 C 204.585938 184.523438 200.695312 187.820312 198.507812 189.972656 C 198.792969 186.578125 199.945312 178.699219 205.902344 171.5 C 210 166.542969 214.523438 164.15625 215.976562 163.4375 C 218.109375 162.378906 225.808594 158.570312 234.789062 160.746094 C 242.457031 162.609375 247.027344 167.855469 252.257812 173.847656 C 255.382812 177.425781 257.550781 180.785156 258.976562 183.253906 C 262.15625 185.617188 266.089844 188.742188 270.398438 192.65625 C 278.878906 200.367188 284.476562 207.21875 286.519531 209.785156 C 289.964844 214.117188 296.273438 222.140625 301.972656 233.972656 C 304.792969 239.824219 307.179688 244.785156 308.691406 252.113281 Z M 285.839844 277.3125 C 288.542969 267.699219 287.617188 259.542969 286.84375 252.792969 C 285.507812 241.0625 281.886719 232.332031 279.453125 226.59375 C 276.121094 218.726562 272.511719 212.800781 270.050781 208.789062 C 266.785156 203.484375 263.710938 199.179688 261.316406 196.023438 C 261.503906 203.355469 260.914062 214.328125 256.613281 226.59375 C 252.253906 239.035156 246.058594 247.152344 236.125 260.183594 C 234.332031 262.527344 226.0625 273.289062 213.28125 286.050781 C 210.269531 289.058594 201.042969 298.25 187.753906 309.226562 C 179.6875 315.886719 172.507812 321.25 166.878906 325.261719 C 168.089844 325.746094 169.449219 326.21875 170.949219 326.625 C 171.859375 326.871094 172.726562 327.066406 173.554688 327.226562 C 173.554688 327.226562 181.164062 328.875 189.433594 329.378906 C 212.257812 330.773438 232.355469 324.101562 232.355469 324.101562 C 240.890625 321.269531 254.179688 316.707031 267.027344 304.859375 C 272.992188 299.359375 281.964844 291.089844 285.839844 277.3125 Z M 285.839844 277.3125 " fill-opacity="1" fill-rule="nonzero"/></svg>