<svg xmlns="http://www.w3.org/2000/svg" xmlns:xlink="http://www.w3.org/1999/xlink" width="500" zoomAndPan="magnify" viewBox="0 0 375 374.999991" height="500" preserveAspectRatio="xMidYMid meet" version="1.2"><defs><clipPath id="6d09cff65d"><path d="M 2.242188 2.242188 L 372.757812 2.242188 L 372.757812 372.757812 L 2.242188 372.757812 Z M 2.242188 2.242188 "/></clipPath><clipPath id="f65c0bc7bb"><path d="M 187.5 2.242188 C 85.183594 2.242188 2.242188 85.183594 2.242188 187.5 C 2.242188 289.816406 85.183594 372.757812 187.5 372.757812 C 289.816406 372.757812 372.757812 289.816406 372.757812 187.5 C 372.757812 85.183594 289.816406 2.242188 187.5 2.242188 Z M 187.5 2.242188 "/></clipPath><radialGradient gradientTransform="matrix(1,0,0,1,2.241766,2.24176)" id="edd2d2cd48" gradientUnits="userSpaceOnUse" r="261.994223" cx="185.258236" fx="185.258236" cy="185.258236" fy="185.258236"><stop style="stop-color:#feffff;stop-opacity:1;" offset="0"/><stop style="stop-color:#fefffe;stop-opacity:1;" offset="0.00390625"/><stop style="stop-color:#fefefd;stop-opacity:1;" offset="0.0078125"/><stop style="stop-color:#fefefc;stop-opacity:1;" offset="0.0117188"/><stop style="stop-color:#fefefb;stop-opacity:1;" offset="0.015625"/><stop style="stop-color:#fefdfa;stop-opacity:1;" offset="0.0195312"/><stop style="stop-color:#fefdfa;stop-opacity:1;" offset="0.0234375"/><stop style="stop-color:#fefdf9;stop-opacity:1;" offset="0.0273438"/><stop style="stop-color:#fefdf8;stop-opacity:1;" offset="0.03125"/><stop style="stop-color:#fefcf7;stop-opacity:1;" offset="0.0351562"/><stop style="stop-color:#fefcf6;stop-opacity:1;" offset="0.0390625"/><stop style="stop-color:#fefcf5;stop-opacity:1;" offset="0.0429688"/><stop style="stop-color:#fefbf4;stop-opacity:1;" offset="0.046875"/><stop style="stop-color:#fefbf4;stop-opacity:1;" offset="0.0507812"/><stop style="stop-color:#fefbf3;stop-opacity:1;" offset="0.0546875"/><stop style="stop-color:#fefbf2;stop-opacity:1;" offset="0.0585938"/><stop style="stop-color:#fefaf1;stop-opacity:1;" offset="0.0625"/><stop style="stop-color:#fefaf0;stop-opacity:1;" offset="0.0664062"/><stop style="stop-color:#fefaef;stop-opacity:1;" offset="0.0703125"/><stop style="stop-color:#fef9ef;stop-opacity:1;" offset="0.0742188"/><stop style="stop-color:#fef9ee;stop-opacity:1;" offset="0.078125"/><stop style="stop-color:#fef9ed;stop-opacity:1;" offset="0.0820312"/><stop style="stop-color:#fef9ec;stop-opacity:1;" offset="0.0859375"/><stop style="stop-color:#fef8eb;stop-opacity:1;" offset="0.0898438"/><stop style="stop-color:#fef8ea;stop-opacity:1;" offset="0.09375"/><stop style="stop-color:#fef8e9;stop-opacity:1;" offset="0.0976562"/><stop style="stop-color:#fef7e9;stop-opacity:1;" offset="0.101562"/><stop style="stop-color:#fef7e8;stop-opacity:1;" offset="0.105469"/><stop style="stop-color:#fef7e7;stop-opacity:1;" offset="0.109375"/><stop style="stop-color:#fef7e6;stop-opacity:1;" offset="0.113281"/><stop style="stop-color:#fef6e5;stop-opacity:1;" offset="0.117188"/><stop style="stop-color:#fef6e4;stop-opacity:1;" offset="0.121094"/><stop style="stop-color:#fef6e4;stop-opacity:1;" offset="0.125"/><stop style="stop-color:#fef5e3;stop-opacity:1;" offset="0.128906"/><stop style="stop-color:#fef5e2;stop-opacity:1;" offset="0.132812"/><stop style="stop-color:#fef5e1;stop-opacity:1;" offset="0.136719"/><stop style="stop-color:#fef5e0;stop-opacity:1;" offset="0.140625"/><stop style="stop-color:#fef4df;stop-opacity:1;" offset="0.144531"/><stop style="stop-color:#fef4df;stop-opacity:1;" offset="0.148438"/><stop style="stop-color:#fef4de;stop-opacity:1;" offset="0.152344"/><stop style="stop-color:#fef3dd;stop-opacity:1;" offset="0.15625"/><stop style="stop-color:#fef3dc;stop-opacity:1;" offset="0.160156"/><stop style="stop-color:#fef3db;stop-opacity:1;" offset="0.164062"/><stop style="stop-color:#fef3da;stop-opacity:1;" offset="0.167969"/><stop style="stop-color:#fef2d9;stop-opacity:1;" offset="0.171875"/><stop style="stop-color:#fef2d9;stop-opacity:1;" offset="0.175781"/><stop style="stop-color:#fef2d8;stop-opacity:1;" offset="0.179688"/><stop style="stop-color:#fef1d7;stop-opacity:1;" offset="0.183594"/><stop style="stop-color:#fef1d6;stop-opacity:1;" offset="0.1875"/><stop style="stop-color:#fef1d5;stop-opacity:1;" offset="0.191406"/><stop style="stop-color:#fef1d4;stop-opacity:1;" offset="0.195312"/><stop style="stop-color:#fef0d4;stop-opacity:1;" offset="0.199219"/><stop style="stop-color:#fef0d3;stop-opacity:1;" offset="0.203125"/><stop style="stop-color:#fef0d2;stop-opacity:1;" offset="0.207031"/><stop style="stop-color:#feefd1;stop-opacity:1;" offset="0.210938"/><stop style="stop-color:#feefd0;stop-opacity:1;" offset="0.214844"/><stop style="stop-color:#feefcf;stop-opacity:1;" offset="0.21875"/><stop style="stop-color:#feefce;stop-opacity:1;" offset="0.222656"/><stop style="stop-color:#feeece;stop-opacity:1;" offset="0.226562"/><stop style="stop-color:#feeecd;stop-opacity:1;" offset="0.230469"/><stop style="stop-color:#feeecc;stop-opacity:1;" offset="0.234375"/><stop style="stop-color:#feedcb;stop-opacity:1;" offset="0.238281"/><stop style="stop-color:#feedca;stop-opacity:1;" offset="0.242188"/><stop style="stop-color:#feedc9;stop-opacity:1;" offset="0.246094"/><stop style="stop-color:#feedc9;stop-opacity:1;" offset="0.25"/><stop style="stop-color:#feecc8;stop-opacity:1;" offset="0.253906"/><stop style="stop-color:#feecc7;stop-opacity:1;" offset="0.257812"/><stop style="stop-color:#feecc6;stop-opacity:1;" offset="0.261719"/><stop style="stop-color:#feebc5;stop-opacity:1;" offset="0.265625"/><stop style="stop-color:#feebc4;stop-opacity:1;" offset="0.269531"/><stop style="stop-color:#feebc4;stop-opacity:1;" offset="0.273438"/><stop style="stop-color:#feebc3;stop-opacity:1;" offset="0.277344"/><stop style="stop-color:#feeac2;stop-opacity:1;" offset="0.28125"/><stop style="stop-color:#feeac1;stop-opacity:1;" offset="0.285156"/><stop style="stop-color:#feeac0;stop-opacity:1;" offset="0.289062"/><stop style="stop-color:#fee9bf;stop-opacity:1;" offset="0.292969"/><stop style="stop-color:#fee9be;stop-opacity:1;" offset="0.296875"/><stop style="stop-color:#fee9be;stop-opacity:1;" offset="0.300781"/><stop style="stop-color:#fee9bd;stop-opacity:1;" offset="0.304688"/><stop style="stop-color:#fee8bc;stop-opacity:1;" offset="0.308594"/><stop style="stop-color:#fee8bb;stop-opacity:1;" offset="0.3125"/><stop style="stop-color:#fee8ba;stop-opacity:1;" offset="0.316406"/><stop style="stop-color:#fee7b9;stop-opacity:1;" offset="0.320312"/><stop style="stop-color:#fee7b9;stop-opacity:1;" offset="0.324219"/><stop style="stop-color:#fee7b8;stop-opacity:1;" offset="0.328125"/><stop style="stop-color:#fee7b7;stop-opacity:1;" offset="0.332031"/><stop style="stop-color:#fee6b6;stop-opacity:1;" offset="0.335938"/><stop style="stop-color:#fee6b5;stop-opacity:1;" offset="0.339844"/><stop style="stop-color:#fee6b4;stop-opacity:1;" offset="0.34375"/><stop style="stop-color:#fee5b3;stop-opacity:1;" offset="0.347656"/><stop style="stop-color:#fee5b3;stop-opacity:1;" offset="0.351562"/><stop style="stop-color:#fee5b2;stop-opacity:1;" offset="0.355469"/><stop style="stop-color:#fee5b1;stop-opacity:1;" offset="0.359375"/><stop style="stop-color:#fee4b0;stop-opacity:1;" offset="0.363281"/><stop style="stop-color:#fee4af;stop-opacity:1;" offset="0.367188"/><stop style="stop-color:#fee4ae;stop-opacity:1;" offset="0.371094"/><stop style="stop-color:#fee4ae;stop-opacity:1;" offset="0.375"/><stop style="stop-color:#fee3ad;stop-opacity:1;" offset="0.378906"/><stop style="stop-color:#fee3ac;stop-opacity:1;" offset="0.382812"/><stop style="stop-color:#fee3ab;stop-opacity:1;" offset="0.386719"/><stop style="stop-color:#fee2aa;stop-opacity:1;" offset="0.390625"/><stop style="stop-color:#fee2a9;stop-opacity:1;" offset="0.394531"/><stop style="stop-color:#fee2a9;stop-opacity:1;" offset="0.398438"/><stop style="stop-color:#fee2a8;stop-opacity:1;" offset="0.402344"/><stop style="stop-color:#fee1a7;stop-opacity:1;" offset="0.40625"/><stop style="stop-color:#fee1a6;stop-opacity:1;" offset="0.410156"/><stop style="stop-color:#fee1a5;stop-opacity:1;" offset="0.414062"/><stop style="stop-color:#fee0a4;stop-opacity:1;" offset="0.417969"/><stop style="stop-color:#fee0a3;stop-opacity:1;" offset="0.421875"/><stop style="stop-color:#fee0a3;stop-opacity:1;" offset="0.425781"/><stop style="stop-color:#fee0a2;stop-opacity:1;" offset="0.429688"/><stop style="stop-color:#fedfa1;stop-opacity:1;" offset="0.433594"/><stop style="stop-color:#fedfa0;stop-opacity:1;" offset="0.4375"/><stop style="stop-color:#fedf9f;stop-opacity:1;" offset="0.441406"/><stop style="stop-color:#fede9e;stop-opacity:1;" offset="0.445312"/><stop style="stop-color:#fede9e;stop-opacity:1;" offset="0.449219"/><stop style="stop-color:#fede9d;stop-opacity:1;" offset="0.453125"/><stop style="stop-color:#fede9c;stop-opacity:1;" offset="0.457031"/><stop style="stop-color:#fedd9b;stop-opacity:1;" offset="0.460938"/><stop style="stop-color:#fedd9a;stop-opacity:1;" offset="0.464844"/><stop style="stop-color:#fedd99;stop-opacity:1;" offset="0.46875"/><stop style="stop-color:#fedc98;stop-opacity:1;" offset="0.472656"/><stop style="stop-color:#fedc98;stop-opacity:1;" offset="0.476562"/><stop style="stop-color:#fedc97;stop-opacity:1;" offset="0.480469"/><stop style="stop-color:#fedc96;stop-opacity:1;" offset="0.484375"/><stop style="stop-color:#fedb95;stop-opacity:1;" offset="0.488281"/><stop style="stop-color:#fedb94;stop-opacity:1;" offset="0.492188"/><stop style="stop-color:#fedb93;stop-opacity:1;" offset="0.496094"/><stop style="stop-color:#feda93;stop-opacity:1;" offset="0.5"/><stop style="stop-color:#feda92;stop-opacity:1;" offset="0.503906"/><stop style="stop-color:#feda91;stop-opacity:1;" offset="0.507812"/><stop style="stop-color:#ffda90;stop-opacity:1;" offset="0.511719"/><stop style="stop-color:#ffd98f;stop-opacity:1;" offset="0.515625"/><stop style="stop-color:#ffd98e;stop-opacity:1;" offset="0.519531"/><stop style="stop-color:#ffd98e;stop-opacity:1;" offset="0.523438"/><stop style="stop-color:#ffd88d;stop-opacity:1;" offset="0.527344"/><stop style="stop-color:#ffd88c;stop-opacity:1;" offset="0.53125"/><stop style="stop-color:#ffd88b;stop-opacity:1;" offset="0.535156"/><stop style="stop-color:#ffd88a;stop-opacity:1;" offset="0.539062"/><stop style="stop-color:#ffd789;stop-opacity:1;" offset="0.542969"/><stop style="stop-color:#ffd788;stop-opacity:1;" offset="0.546875"/><stop style="stop-color:#ffd788;stop-opacity:1;" offset="0.550781"/><stop style="stop-color:#ffd687;stop-opacity:1;" offset="0.554688"/><stop style="stop-color:#ffd686;stop-opacity:1;" offset="0.558594"/><stop style="stop-color:#ffd685;stop-opacity:1;" offset="0.5625"/><stop style="stop-color:#ffd684;stop-opacity:1;" offset="0.566406"/><stop style="stop-color:#ffd583;stop-opacity:1;" offset="0.570312"/><stop style="stop-color:#ffd583;stop-opacity:1;" offset="0.574219"/><stop style="stop-color:#ffd582;stop-opacity:1;" offset="0.578125"/><stop style="stop-color:#ffd481;stop-opacity:1;" offset="0.582031"/><stop style="stop-color:#ffd480;stop-opacity:1;" offset="0.585938"/><stop style="stop-color:#ffd47f;stop-opacity:1;" offset="0.589844"/><stop style="stop-color:#ffd47e;stop-opacity:1;" offset="0.59375"/><stop style="stop-color:#ffd37d;stop-opacity:1;" offset="0.597656"/><stop style="stop-color:#ffd37d;stop-opacity:1;" offset="0.601562"/><stop style="stop-color:#ffd37c;stop-opacity:1;" offset="0.605469"/><stop style="stop-color:#ffd27b;stop-opacity:1;" offset="0.609375"/><stop style="stop-color:#ffd27a;stop-opacity:1;" offset="0.613281"/><stop style="stop-color:#ffd279;stop-opacity:1;" offset="0.617188"/><stop style="stop-color:#ffd278;stop-opacity:1;" offset="0.621094"/><stop style="stop-color:#ffd178;stop-opacity:1;" offset="0.625"/><stop style="stop-color:#ffd177;stop-opacity:1;" offset="0.628906"/><stop style="stop-color:#ffd176;stop-opacity:1;" offset="0.632812"/><stop style="stop-color:#ffd075;stop-opacity:1;" offset="0.636719"/><stop style="stop-color:#ffd074;stop-opacity:1;" offset="0.640625"/><stop style="stop-color:#ffd073;stop-opacity:1;" offset="0.644531"/><stop style="stop-color:#ffd073;stop-opacity:1;" offset="0.648438"/><stop style="stop-color:#ffcf72;stop-opacity:1;" offset="0.652344"/><stop style="stop-color:#ffcf71;stop-opacity:1;" offset="0.65625"/><stop style="stop-color:#ffcf70;stop-opacity:1;" offset="0.660156"/><stop style="stop-color:#ffce6f;stop-opacity:1;" offset="0.664062"/><stop style="stop-color:#ffce6e;stop-opacity:1;" offset="0.667969"/><stop style="stop-color:#ffce6d;stop-opacity:1;" offset="0.671875"/><stop style="stop-color:#ffce6d;stop-opacity:1;" offset="0.675781"/><stop style="stop-color:#ffcd6c;stop-opacity:1;" offset="0.679688"/><stop style="stop-color:#ffcd6b;stop-opacity:1;" offset="0.683594"/><stop style="stop-color:#ffcd6a;stop-opacity:1;" offset="0.6875"/><stop style="stop-color:#ffcc69;stop-opacity:1;" offset="0.691406"/><stop style="stop-color:#ffcc68;stop-opacity:1;" offset="0.695312"/><stop style="stop-color:#ffcc68;stop-opacity:1;" offset="0.699219"/><stop style="stop-color:#ffcc67;stop-opacity:1;" offset="0.703125"/><stop style="stop-color:#ffcb66;stop-opacity:1;" offset="0.707031"/><stop style="stop-color:#ffcb65;stop-opacity:1;" offset="0.710938"/><stop style="stop-color:#ffcb64;stop-opacity:1;" offset="0.714844"/><stop style="stop-color:#ffca63;stop-opacity:1;" offset="0.71875"/><stop style="stop-color:#ffca62;stop-opacity:1;" offset="0.722656"/><stop style="stop-color:#ffca62;stop-opacity:1;" offset="0.726562"/><stop style="stop-color:#ffca61;stop-opacity:1;" offset="0.730469"/><stop style="stop-color:#ffc960;stop-opacity:1;" offset="0.734375"/><stop style="stop-color:#ffc95f;stop-opacity:1;" offset="0.738281"/><stop style="stop-color:#ffc95e;stop-opacity:1;" offset="0.742188"/><stop style="stop-color:#ffc85d;stop-opacity:1;" offset="0.746094"/><stop style="stop-color:#ffc85d;stop-opacity:1;" offset="0.75"/><stop style="stop-color:#ffc85c;stop-opacity:1;" offset="0.753906"/><stop style="stop-color:#ffc85b;stop-opacity:1;" offset="0.757812"/><stop style="stop-color:#ffc75a;stop-opacity:1;" offset="0.761719"/><stop style="stop-color:#ffc759;stop-opacity:1;" offset="0.765625"/><stop style="stop-color:#ffc758;stop-opacity:1;" offset="0.769531"/><stop style="stop-color:#ffc658;stop-opacity:1;" offset="0.773438"/><stop style="stop-color:#ffc657;stop-opacity:1;" offset="0.777344"/><stop style="stop-color:#ffc656;stop-opacity:1;" offset="0.78125"/><stop style="stop-color:#ffc655;stop-opacity:1;" offset="0.785156"/><stop style="stop-color:#ffc554;stop-opacity:1;" offset="0.789062"/><stop style="stop-color:#ffc553;stop-opacity:1;" offset="0.792969"/><stop style="stop-color:#ffc552;stop-opacity:1;" offset="0.796875"/><stop style="stop-color:#ffc452;stop-opacity:1;" offset="0.800781"/><stop style="stop-color:#ffc451;stop-opacity:1;" offset="0.804688"/><stop style="stop-color:#ffc450;stop-opacity:1;" offset="0.808594"/><stop style="stop-color:#ffc44f;stop-opacity:1;" offset="0.8125"/><stop style="stop-color:#ffc34e;stop-opacity:1;" offset="0.816406"/><stop style="stop-color:#ffc34d;stop-opacity:1;" offset="0.820312"/><stop style="stop-color:#ffc34d;stop-opacity:1;" offset="0.824219"/><stop style="stop-color:#ffc24c;stop-opacity:1;" offset="0.828125"/><stop style="stop-color:#ffc24b;stop-opacity:1;" offset="0.832031"/><stop style="stop-color:#ffc24a;stop-opacity:1;" offset="0.835938"/><stop style="stop-color:#ffc249;stop-opacity:1;" offset="0.839844"/><stop style="stop-color:#ffc148;stop-opacity:1;" offset="0.84375"/><stop style="stop-color:#ffc147;stop-opacity:1;" offset="0.847656"/><stop style="stop-color:#ffc147;stop-opacity:1;" offset="0.851562"/><stop style="stop-color:#ffc046;stop-opacity:1;" offset="0.855469"/><stop style="stop-color:#ffc045;stop-opacity:1;" offset="0.859375"/><stop style="stop-color:#ffc044;stop-opacity:1;" offset="0.863281"/><stop style="stop-color:#ffc043;stop-opacity:1;" offset="0.867188"/><stop style="stop-color:#ffbf42;stop-opacity:1;" offset="0.871094"/><stop style="stop-color:#ffbf42;stop-opacity:1;" offset="0.875"/><stop style="stop-color:#ffbf41;stop-opacity:1;" offset="0.878906"/><stop style="stop-color:#ffbe40;stop-opacity:1;" offset="0.882812"/><stop style="stop-color:#ffbe3f;stop-opacity:1;" offset="0.886719"/><stop style="stop-color:#ffbe3e;stop-opacity:1;" offset="0.890625"/><stop style="stop-color:#ffbe3d;stop-opacity:1;" offset="0.894531"/><stop style="stop-color:#ffbd3d;stop-opacity:1;" offset="0.898438"/><stop style="stop-color:#ffbd3c;stop-opacity:1;" offset="0.902344"/><stop style="stop-color:#ffbd3b;stop-opacity:1;" offset="0.90625"/><stop style="stop-color:#ffbc3a;stop-opacity:1;" offset="0.910156"/><stop style="stop-color:#ffbc39;stop-opacity:1;" offset="0.914062"/><stop style="stop-color:#ffbc38;stop-opacity:1;" offset="0.917969"/><stop style="stop-color:#ffbc37;stop-opacity:1;" offset="0.921875"/><stop style="stop-color:#ffbb37;stop-opacity:1;" offset="0.925781"/><stop style="stop-color:#ffbb36;stop-opacity:1;" offset="0.929688"/><stop style="stop-color:#ffbb35;stop-opacity:1;" offset="0.933594"/><stop style="stop-color:#ffba34;stop-opacity:1;" offset="0.9375"/><stop style="stop-color:#ffba33;stop-opacity:1;" offset="0.941406"/><stop style="stop-color:#ffba32;stop-opacity:1;" offset="0.945312"/><stop style="stop-color:#ffba32;stop-opacity:1;" offset="0.949219"/><stop style="stop-color:#ffb931;stop-opacity:1;" offset="0.953125"/><stop style="stop-color:#ffb930;stop-opacity:1;" offset="0.957031"/><stop style="stop-color:#ffb92f;stop-opacity:1;" offset="0.960938"/><stop style="stop-color:#ffb82e;stop-opacity:1;" offset="0.964844"/><stop style="stop-color:#ffb82d;stop-opacity:1;" offset="0.96875"/><stop style="stop-color:#ffb82c;stop-opacity:1;" offset="0.972656"/><stop style="stop-color:#ffb82c;stop-opacity:1;" offset="0.976562"/><stop style="stop-color:#ffb72b;stop-opacity:1;" offset="0.980469"/><stop style="stop-color:#ffb72a;stop-opacity:1;" offset="0.984375"/><stop style="stop-color:#ffb729;stop-opacity:1;" offset="0.988281"/><stop style="stop-color:#ffb628;stop-opacity:1;" offset="0.992188"/><stop style="stop-color:#ffb627;stop-opacity:1;" offset="0.996094"/><stop style="stop-color:#ffb627;stop-opacity:1;" offset="1"/></radialGradient></defs><g id="47686a48ec"><g clip-rule="nonzero" clip-path="url(#6d09cff65d)"><g clip-rule="nonzero" clip-path="url(#f65c0bc7bb)"><path style=" stroke:none;fill-rule:nonzero;fill:url(#edd2d2cd48);" d="M 2.242188 2.242188 L 2.242188 372.757812 L 372.757812 372.757812 L 372.757812 2.242188 Z M 2.242188 2.242188 "/></g></g><path style=" stroke:none;fill-rule:nonzero;fill:#60000b;fill-opacity:1;" d="M 175.65625 71.738281 C 175.65625 72.925781 175.597656 74.109375 175.484375 75.292969 C 175.367188 76.476562 175.191406 77.648438 174.960938 78.8125 C 174.726562 79.980469 174.441406 81.128906 174.09375 82.265625 C 173.75 83.40625 173.351562 84.523438 172.894531 85.621094 C 172.441406 86.71875 171.933594 87.789062 171.375 88.835938 C 170.8125 89.886719 170.203125 90.902344 169.542969 91.890625 C 168.882812 92.878906 168.175781 93.832031 167.421875 94.75 C 166.667969 95.667969 165.871094 96.546875 165.03125 97.386719 C 164.191406 98.230469 163.3125 99.027344 162.394531 99.777344 C 161.476562 100.53125 160.523438 101.238281 159.535156 101.898438 C 158.546875 102.558594 157.527344 103.171875 156.480469 103.730469 C 155.433594 104.289062 154.359375 104.796875 153.261719 105.253906 C 152.164062 105.707031 151.046875 106.105469 149.910156 106.453125 C 148.773438 106.796875 147.621094 107.085938 146.457031 107.316406 C 145.292969 107.546875 144.117188 107.722656 142.9375 107.839844 C 141.753906 107.957031 140.570312 108.011719 139.378906 108.011719 C 138.191406 108.011719 137.007812 107.957031 135.824219 107.839844 C 134.640625 107.722656 133.46875 107.546875 132.304688 107.316406 C 131.136719 107.085938 129.988281 106.796875 128.851562 106.453125 C 127.714844 106.105469 126.59375 105.707031 125.496094 105.253906 C 124.398438 104.796875 123.328125 104.289062 122.28125 103.730469 C 121.230469 103.171875 120.214844 102.558594 119.226562 101.898438 C 118.238281 101.238281 117.285156 100.53125 116.367188 99.777344 C 115.449219 99.027344 114.570312 98.230469 113.730469 97.386719 C 112.890625 96.546875 112.09375 95.667969 111.339844 94.75 C 110.585938 93.832031 109.878906 92.878906 109.21875 91.890625 C 108.558594 90.902344 107.949219 89.886719 107.386719 88.835938 C 106.828125 87.789062 106.320312 86.71875 105.863281 85.621094 C 105.410156 84.523438 105.011719 83.40625 104.664062 82.265625 C 104.320312 81.128906 104.03125 79.980469 103.800781 78.8125 C 103.570312 77.648438 103.394531 76.476562 103.277344 75.292969 C 103.160156 74.109375 103.105469 72.925781 103.105469 71.738281 C 103.105469 70.546875 103.160156 69.363281 103.277344 68.179688 C 103.394531 67 103.570312 65.824219 103.800781 64.660156 C 104.03125 63.496094 104.320312 62.34375 104.664062 61.207031 C 105.011719 60.070312 105.410156 58.953125 105.863281 57.855469 C 106.320312 56.757812 106.828125 55.683594 107.386719 54.636719 C 107.949219 53.589844 108.558594 52.570312 109.21875 51.582031 C 109.878906 50.59375 110.585938 49.640625 111.339844 48.722656 C 112.09375 47.804688 112.890625 46.925781 113.730469 46.085938 C 114.570312 45.246094 115.449219 44.449219 116.367188 43.695312 C 117.285156 42.941406 118.238281 42.234375 119.226562 41.574219 C 120.214844 40.914062 121.230469 40.304688 122.28125 39.742188 C 123.328125 39.183594 124.398438 38.675781 125.496094 38.222656 C 126.59375 37.765625 127.714844 37.367188 128.851562 37.023438 C 129.988281 36.675781 131.136719 36.390625 132.304688 36.15625 C 133.46875 35.925781 134.640625 35.75 135.824219 35.636719 C 137.007812 35.519531 138.191406 35.460938 139.378906 35.460938 C 140.570312 35.460938 141.753906 35.519531 142.9375 35.636719 C 144.117188 35.75 145.292969 35.925781 146.457031 36.15625 C 147.621094 36.390625 148.773438 36.675781 149.910156 37.023438 C 151.046875 37.367188 152.164062 37.765625 153.261719 38.222656 C 154.359375 38.675781 155.433594 39.183594 156.480469 39.742188 C 157.527344 40.304688 158.546875 40.914062 159.535156 41.574219 C 160.523438 42.234375 161.476562 42.941406 162.394531 43.695312 C 163.3125 44.449219 164.191406 45.246094 165.03125 46.085938 C 165.871094 46.925781 166.667969 47.804688 167.421875 48.722656 C 168.175781 49.640625 168.882812 50.59375 169.542969 51.582031 C 170.203125 52.570312 170.8125 53.589844 171.375 54.636719 C 171.933594 55.683594 172.441406 56.757812 172.894531 57.855469 C 173.351562 58.953125 173.75 60.070312 174.09375 61.207031 C 174.441406 62.34375 174.726562 63.496094 174.960938 64.660156 C 175.191406 65.824219 175.367188 67 175.484375 68.179688 C 175.597656 69.363281 175.65625 70.546875 175.65625 71.738281 Z M 175.65625 71.738281 "/><path style=" stroke:none;fill-rule:nonzero;fill:#60000b;fill-opacity:1;" d="M 275.089844 98.609375 C 275.089844 99.777344 275.03125 100.9375 274.917969 102.097656 C 274.804688 103.261719 274.632812 104.414062 274.40625 105.554688 C 274.179688 106.699219 273.894531 107.828125 273.554688 108.945312 C 273.21875 110.0625 272.824219 111.160156 272.378906 112.234375 C 271.933594 113.3125 271.433594 114.367188 270.886719 115.394531 C 270.335938 116.421875 269.738281 117.421875 269.089844 118.390625 C 268.441406 119.363281 267.746094 120.296875 267.007812 121.199219 C 266.265625 122.101562 265.484375 122.964844 264.660156 123.789062 C 263.835938 124.613281 262.972656 125.394531 262.070312 126.132812 C 261.167969 126.875 260.234375 127.566406 259.265625 128.214844 C 258.296875 128.863281 257.296875 129.460938 256.265625 130.011719 C 255.238281 130.5625 254.1875 131.058594 253.109375 131.507812 C 252.03125 131.953125 250.933594 132.34375 249.816406 132.683594 C 248.703125 133.023438 247.574219 133.304688 246.429688 133.53125 C 245.285156 133.761719 244.132812 133.929688 242.972656 134.046875 C 241.8125 134.160156 240.648438 134.21875 239.480469 134.21875 C 238.316406 134.21875 237.152344 134.160156 235.992188 134.046875 C 234.832031 133.929688 233.679688 133.761719 232.535156 133.53125 C 231.390625 133.304688 230.261719 133.023438 229.144531 132.683594 C 228.03125 132.34375 226.933594 131.953125 225.855469 131.507812 C 224.777344 131.058594 223.726562 130.5625 222.695312 130.011719 C 221.667969 129.460938 220.667969 128.863281 219.699219 128.214844 C 218.730469 127.566406 217.792969 126.875 216.890625 126.132812 C 215.992188 125.394531 215.128906 124.613281 214.304688 123.789062 C 213.480469 122.964844 212.695312 122.101562 211.957031 121.199219 C 211.214844 120.296875 210.523438 119.363281 209.875 118.390625 C 209.226562 117.421875 208.628906 116.421875 208.078125 115.394531 C 207.527344 114.367188 207.03125 113.3125 206.585938 112.234375 C 206.136719 111.160156 205.746094 110.0625 205.40625 108.945312 C 205.070312 107.828125 204.785156 106.699219 204.558594 105.554688 C 204.332031 104.414062 204.160156 103.261719 204.046875 102.097656 C 203.929688 100.9375 203.875 99.777344 203.875 98.609375 C 203.875 97.441406 203.929688 96.28125 204.046875 95.117188 C 204.160156 93.957031 204.332031 92.804688 204.558594 91.664062 C 204.785156 90.519531 205.070312 89.390625 205.40625 88.273438 C 205.746094 87.15625 206.136719 86.058594 206.585938 84.984375 C 207.03125 83.90625 207.527344 82.851562 208.078125 81.824219 C 208.628906 80.796875 209.226562 79.796875 209.875 78.828125 C 210.523438 77.855469 211.214844 76.921875 211.957031 76.019531 C 212.695312 75.117188 213.480469 74.253906 214.304688 73.429688 C 215.128906 72.605469 215.992188 71.824219 216.890625 71.082031 C 217.792969 70.34375 218.730469 69.648438 219.699219 69.003906 C 220.667969 68.355469 221.667969 67.753906 222.695312 67.207031 C 223.726562 66.65625 224.777344 66.15625 225.855469 65.710938 C 226.933594 65.265625 228.03125 64.871094 229.144531 64.535156 C 230.261719 64.195312 231.390625 63.914062 232.535156 63.683594 C 233.679688 63.457031 234.832031 63.285156 235.992188 63.171875 C 237.152344 63.058594 238.316406 63 239.480469 63 C 240.648438 63 241.8125 63.058594 242.972656 63.171875 C 244.132812 63.285156 245.285156 63.457031 246.429688 63.683594 C 247.574219 63.914062 248.703125 64.195312 249.816406 64.535156 C 250.933594 64.871094 252.03125 65.265625 253.109375 65.710938 C 254.1875 66.15625 255.238281 66.65625 256.265625 67.207031 C 257.296875 67.753906 258.296875 68.355469 259.265625 69.003906 C 260.234375 69.648438 261.167969 70.34375 262.070312 71.082031 C 262.972656 71.824219 263.835938 72.605469 264.660156 73.429688 C 265.484375 74.253906 266.265625 75.117188 267.007812 76.019531 C 267.746094 76.921875 268.441406 77.855469 269.089844 78.828125 C 269.738281 79.796875 270.335938 80.796875 270.886719 81.824219 C 271.433594 82.851562 271.933594 83.90625 272.378906 84.984375 C 272.824219 86.058594 273.21875 87.15625 273.554688 88.273438 C 273.894531 89.390625 274.179688 90.519531 274.40625 91.664062 C 274.632812 92.804688 274.804688 93.957031 274.917969 95.117188 C 275.03125 96.28125 275.089844 97.441406 275.089844 98.609375 Z M 275.089844 98.609375 "/><path style=" stroke:none;fill-rule:nonzero;fill:#60000b;fill-opacity:1;" d="M 314.054688 106.335938 C 313.617188 107.621094 311.808594 112.453125 306.664062 115.40625 C 305.09375 116.304688 301.332031 118.113281 296.585938 117.421875 C 292.476562 116.824219 289.832031 114.664062 287.855469 113.054688 C 284.394531 110.234375 282.476562 107.035156 281.472656 104.992188 C 279.625 99.21875 277.914062 94.140625 276.433594 89.875 C 274.726562 84.945312 273.894531 82.71875 272.066406 80.132812 C 269.433594 76.402344 266.265625 74.097656 264.003906 72.738281 C 265.792969 72.480469 268.882812 72.304688 272.066406 73.746094 C 274.429688 74.820312 276.21875 76.222656 278.113281 79.121094 C 281.695312 84.609375 285.277344 90.09375 288.863281 95.582031 C 289.777344 97.035156 292.042969 100.191406 296.253906 102.300781 C 301.320312 104.835938 306.039062 104.253906 307.675781 103.980469 C 307.269531 104.328125 301.394531 109.203125 294.574219 107.003906 C 291.066406 105.871094 289.011719 103.425781 288.195312 102.300781 C 286.738281 100.175781 285.28125 98.046875 283.824219 95.921875 C 283.917969 97.507812 284.304688 100.515625 286.175781 103.644531 C 286.851562 104.777344 289.757812 109.328125 295.582031 111.035156 C 300.320312 112.425781 304.285156 111.144531 306.664062 110.363281 C 310.050781 109.257812 312.519531 107.574219 314.054688 106.335938 Z M 314.054688 106.335938 "/><path style=" stroke:none;fill-rule:nonzero;fill:#60000b;fill-opacity:1;" d="M 308.679688 252.121094 C 309.566406 256.429688 311.015625 263.8125 309.351562 272.945312 C 307.679688 282.125 303.714844 288.355469 300.621094 293.101562 C 292.40625 305.707031 282.519531 312.695312 275.234375 317.726562 C 269.769531 321.503906 258.832031 328.378906 243.363281 333.371094 C 215.636719 342.320312 192.683594 338.96875 187.417969 338.113281 C 175.949219 336.246094 166.859375 332.949219 160.878906 330.386719 C 158.667969 331.761719 156.222656 333.160156 153.546875 334.53125 C 150.914062 335.878906 148.386719 337.027344 146.015625 338.011719 C 144.816406 338.789062 143.257812 338.472656 142.539062 337.429688 C 141.9375 336.5625 142.003906 335.316406 142.738281 334.421875 L 151.808594 326.355469 C 142.292969 319.246094 134.429688 312.652344 128.292969 307.210938 C 120.140625 299.976562 114.246094 294.085938 110.667969 290.496094 C 103.675781 283.484375 98.839844 278.628906 93.285156 271.953125 C 87.785156 265.347656 81.101562 257.316406 74.882812 245.402344 C 71.671875 239.253906 65.804688 227.738281 63.128906 211.476562 C 61.867188 203.820312 60.351562 194.027344 62.792969 181.582031 C 65.699219 166.769531 72.527344 156.820312 75.894531 152.019531 C 79.988281 146.179688 86.335938 137.332031 98.0625 130.523438 C 103.222656 127.527344 112.160156 122.332031 124.601562 122.457031 C 137.195312 122.585938 146.207031 128.09375 151.140625 131.191406 C 160.605469 137.136719 165.453125 143.871094 173.980469 155.710938 C 178.3125 161.722656 185.605469 171.988281 191.785156 187.285156 C 194.214844 193.3125 198.632812 204.46875 200.515625 219.871094 C 201.664062 229.269531 203.019531 241.316406 198.835938 255.8125 C 196.984375 262.226562 194.597656 267.253906 192.789062 270.589844 C 194.570312 256.722656 193.660156 245.265625 192.457031 237.339844 C 190.113281 221.910156 185.257812 210.707031 181.371094 201.730469 C 176.320312 190.0625 171.527344 182.5 170.289062 180.566406 C 165.160156 172.585938 160.253906 166.816406 157.191406 163.4375 C 152.78125 158.582031 149.222656 154.703125 143.417969 150.671875 C 139.949219 148.265625 135.550781 145.257812 128.972656 143.28125 C 125.582031 142.257812 120.011719 140.648438 112.847656 141.601562 C 106.171875 142.492188 101.5 145.167969 98.40625 146.976562 C 96.632812 148.015625 92.175781 150.785156 87.65625 155.707031 C 86.453125 157.015625 80.835938 163.285156 77.242188 173.511719 C 72.460938 187.117188 74.378906 199.003906 75.898438 208.445312 C 76.4375 211.828125 78.582031 224.035156 85.757812 238.339844 C 90.445312 247.683594 95.128906 253.632812 103.441406 264.207031 C 111.335938 274.242188 118.007812 281.25 122.921875 286.378906 C 135.054688 299.039062 144.589844 307.109375 147.109375 309.21875 C 152.210938 313.496094 156.640625 316.894531 159.875 319.296875 C 166.304688 314.273438 174.390625 307.648438 183.390625 299.476562 C 188.699219 294.652344 199.015625 285.03125 211.269531 271.597656 C 223.722656 257.945312 230.546875 248.71875 235.457031 241.363281 C 237.769531 237.902344 242.039062 231.285156 245.199219 221.882812 C 248.332031 212.558594 248.113281 207.214844 247.886719 204.753906 C 247.671875 202.4375 247.210938 197.953125 244.527344 193 C 243.316406 190.757812 239.804688 184.484375 232.4375 181.242188 C 223.078125 177.125 214 180.757812 210.265625 182.25 C 204.585938 184.523438 200.695312 187.820312 198.511719 189.976562 C 198.796875 186.578125 199.945312 178.699219 205.902344 171.5 C 210 166.542969 214.523438 164.160156 215.976562 163.4375 C 218.109375 162.382812 225.808594 158.570312 234.789062 160.746094 C 242.457031 162.609375 247.027344 167.855469 252.257812 173.847656 C 255.382812 177.425781 257.550781 180.785156 258.976562 183.253906 C 262.15625 185.617188 266.089844 188.742188 270.398438 192.65625 C 278.878906 200.367188 284.476562 207.21875 286.523438 209.785156 C 289.96875 214.121094 296.273438 222.140625 301.972656 233.972656 C 304.792969 239.824219 307.183594 244.785156 308.691406 252.113281 Z M 285.839844 277.3125 C 288.542969 267.699219 287.617188 259.542969 286.84375 252.792969 C 285.507812 241.0625 281.886719 232.332031 279.453125 226.59375 C 276.121094 218.726562 272.511719 212.800781 270.050781 208.789062 C 266.785156 203.484375 263.710938 199.179688 261.316406 196.023438 C 261.503906 203.355469 260.914062 214.328125 256.617188 226.59375 C 252.253906 239.035156 246.058594 247.15625 236.125 260.183594 C 234.332031 262.527344 226.0625 273.289062 213.28125 286.050781 C 210.269531 289.058594 201.042969 298.25 187.753906 309.226562 C 179.6875 315.890625 172.507812 321.25 166.878906 325.261719 C 168.089844 325.746094 169.449219 326.21875 170.953125 326.625 C 171.859375 326.871094 172.730469 327.066406 173.554688 327.226562 C 173.554688 327.226562 181.164062 328.875 189.433594 329.378906 C 212.257812 330.773438 232.355469 324.105469 232.355469 324.105469 C 240.890625 321.269531 254.179688 316.707031 267.027344 304.859375 C 272.992188 299.359375 281.964844 291.089844 285.839844 277.3125 Z M 285.839844 277.3125 "/></g></svg>