<svg xmlns="http://www.w3.org/2000/svg" xmlns:xlink="http://www.w3.org/1999/xlink" width="500" zoomAndPan="magnify" viewBox="0 0 375 374.999991" height="500" preserveAspectRatio="xMidYMid meet" version="1.0"><path fill="#ffa146" d="M 175.558594 71.699219 C 175.558594 72.886719 175.5 74.074219 175.382812 75.253906 C 175.265625 76.4375 175.09375 77.609375 174.863281 78.773438 C 174.628906 79.9375 174.34375 81.089844 173.996094 82.226562 C 173.652344 83.359375 173.253906 84.476562 172.796875 85.574219 C 172.34375 86.671875 171.835938 87.742188 171.277344 88.792969 C 170.71875 89.839844 170.109375 90.855469 169.449219 91.84375 C 168.789062 92.832031 168.082031 93.78125 167.328125 94.699219 C 166.574219 95.617188 165.777344 96.496094 164.941406 97.335938 C 164.101562 98.175781 163.222656 98.972656 162.304688 99.726562 C 161.386719 100.480469 160.433594 101.1875 159.445312 101.84375 C 158.457031 102.503906 157.441406 103.113281 156.394531 103.675781 C 155.347656 104.234375 154.273438 104.742188 153.175781 105.195312 C 152.082031 105.648438 150.964844 106.050781 149.828125 106.394531 C 148.691406 106.738281 147.542969 107.027344 146.375 107.257812 C 145.210938 107.492188 144.039062 107.664062 142.855469 107.78125 C 141.675781 107.898438 140.492188 107.957031 139.304688 107.957031 C 138.117188 107.957031 136.929688 107.898438 135.75 107.78125 C 134.566406 107.664062 133.394531 107.492188 132.230469 107.257812 C 131.066406 107.027344 129.914062 106.738281 128.777344 106.394531 C 127.644531 106.050781 126.527344 105.648438 125.429688 105.195312 C 124.332031 104.742188 123.261719 104.234375 122.214844 103.675781 C 121.164062 103.113281 120.148438 102.503906 119.160156 101.84375 C 118.175781 101.1875 117.222656 100.480469 116.304688 99.726562 C 115.386719 98.972656 114.507812 98.175781 113.667969 97.335938 C 112.828125 96.496094 112.03125 95.617188 111.277344 94.699219 C 110.523438 93.78125 109.820312 92.832031 109.160156 91.84375 C 108.5 90.855469 107.890625 89.839844 107.328125 88.792969 C 106.769531 87.742188 106.261719 86.671875 105.808594 85.574219 C 105.355469 84.476562 104.953125 83.359375 104.609375 82.226562 C 104.265625 81.089844 103.976562 79.9375 103.746094 78.773438 C 103.511719 77.609375 103.339844 76.4375 103.222656 75.253906 C 103.105469 74.074219 103.046875 72.886719 103.046875 71.699219 C 103.046875 70.511719 103.105469 69.328125 103.222656 68.148438 C 103.339844 66.964844 103.511719 65.792969 103.746094 64.628906 C 103.976562 63.464844 104.265625 62.3125 104.609375 61.175781 C 104.953125 60.039062 105.355469 58.921875 105.808594 57.828125 C 106.261719 56.730469 106.769531 55.65625 107.328125 54.609375 C 107.890625 53.5625 108.5 52.546875 109.160156 51.558594 C 109.820312 50.570312 110.523438 49.617188 111.277344 48.699219 C 112.03125 47.78125 112.828125 46.902344 113.667969 46.066406 C 114.507812 45.226562 115.386719 44.429688 116.304688 43.675781 C 117.222656 42.921875 118.175781 42.214844 119.160156 41.554688 C 120.148438 40.894531 121.164062 40.285156 122.214844 39.726562 C 123.261719 39.167969 124.332031 38.660156 125.429688 38.207031 C 126.527344 37.75 127.644531 37.351562 128.777344 37.007812 C 129.914062 36.664062 131.066406 36.375 132.230469 36.140625 C 133.394531 35.910156 134.566406 35.738281 135.75 35.621094 C 136.929688 35.503906 138.117188 35.445312 139.304688 35.445312 C 140.492188 35.445312 141.675781 35.503906 142.855469 35.621094 C 144.039062 35.738281 145.210938 35.910156 146.375 36.140625 C 147.542969 36.375 148.691406 36.664062 149.828125 37.007812 C 150.964844 37.351562 152.082031 37.75 153.175781 38.207031 C 154.273438 38.660156 155.347656 39.167969 156.394531 39.726562 C 157.441406 40.285156 158.457031 40.894531 159.445312 41.554688 C 160.433594 42.214844 161.386719 42.921875 162.304688 43.675781 C 163.222656 44.429688 164.101562 45.226562 164.941406 46.066406 C 165.777344 46.902344 166.574219 47.78125 167.328125 48.699219 C 168.082031 49.617188 168.789062 50.570312 169.449219 51.558594 C 170.109375 52.546875 170.71875 53.5625 171.277344 54.609375 C 171.835938 55.65625 172.34375 56.730469 172.796875 57.828125 C 173.253906 58.921875 173.652344 60.039062 173.996094 61.175781 C 174.34375 62.3125 174.628906 63.464844 174.863281 64.628906 C 175.09375 65.792969 175.265625 66.964844 175.382812 68.148438 C 175.5 69.328125 175.558594 70.511719 175.558594 71.699219 Z M 175.558594 71.699219 " fill-opacity="1" fill-rule="nonzero"/><path fill="#ffa146" d="M 274.929688 98.558594 C 274.929688 99.722656 274.875 100.886719 274.761719 102.042969 C 274.644531 103.203125 274.476562 104.355469 274.246094 105.5 C 274.019531 106.640625 273.738281 107.773438 273.398438 108.886719 C 273.0625 110.003906 272.667969 111.097656 272.222656 112.175781 C 271.777344 113.253906 271.277344 114.304688 270.730469 115.332031 C 270.179688 116.359375 269.582031 117.359375 268.933594 118.328125 C 268.285156 119.296875 267.59375 120.230469 266.851562 121.132812 C 266.113281 122.035156 265.332031 122.894531 264.507812 123.71875 C 263.683594 124.542969 262.820312 125.328125 261.921875 126.066406 C 261.019531 126.804688 260.085938 127.5 259.117188 128.144531 C 258.148438 128.792969 257.148438 129.390625 256.121094 129.941406 C 255.09375 130.492188 254.039062 130.988281 252.964844 131.433594 C 251.886719 131.878906 250.789062 132.273438 249.675781 132.609375 C 248.558594 132.949219 247.429688 133.230469 246.289062 133.460938 C 245.144531 133.6875 243.992188 133.859375 242.832031 133.972656 C 241.671875 134.085938 240.511719 134.144531 239.34375 134.144531 C 238.179688 134.144531 237.015625 134.085938 235.855469 133.972656 C 234.695312 133.859375 233.546875 133.6875 232.402344 133.460938 C 231.257812 133.230469 230.128906 132.949219 229.015625 132.609375 C 227.898438 132.273438 226.804688 131.878906 225.726562 131.433594 C 224.648438 130.988281 223.597656 130.492188 222.570312 129.941406 C 221.542969 129.390625 220.542969 128.792969 219.574219 128.144531 C 218.605469 127.5 217.667969 126.804688 216.769531 126.066406 C 215.867188 125.328125 215.003906 124.542969 214.179688 123.71875 C 213.355469 122.894531 212.574219 122.035156 211.835938 121.132812 C 211.097656 120.230469 210.402344 119.296875 209.753906 118.328125 C 209.109375 117.359375 208.507812 116.359375 207.960938 115.332031 C 207.410156 114.304688 206.914062 113.253906 206.46875 112.175781 C 206.019531 111.097656 205.628906 110.003906 205.289062 108.886719 C 204.953125 107.773438 204.667969 106.640625 204.441406 105.5 C 204.214844 104.355469 204.042969 103.203125 203.929688 102.042969 C 203.816406 100.886719 203.757812 99.722656 203.757812 98.558594 C 203.757812 97.390625 203.816406 96.230469 203.929688 95.070312 C 204.042969 93.910156 204.214844 92.757812 204.441406 91.613281 C 204.667969 90.472656 204.953125 89.34375 205.289062 88.226562 C 205.628906 87.109375 206.019531 86.015625 206.46875 84.9375 C 206.914062 83.863281 207.410156 82.808594 207.960938 81.78125 C 208.507812 80.753906 209.109375 79.753906 209.753906 78.785156 C 210.402344 77.816406 211.097656 76.882812 211.835938 75.980469 C 212.574219 75.078125 213.355469 74.21875 214.179688 73.394531 C 215.003906 72.570312 215.867188 71.789062 216.769531 71.046875 C 217.667969 70.308594 218.605469 69.613281 219.574219 68.96875 C 220.542969 68.320312 221.542969 67.722656 222.570312 67.171875 C 223.597656 66.621094 224.648438 66.125 225.726562 65.679688 C 226.804688 65.234375 227.898438 64.839844 229.015625 64.503906 C 230.128906 64.164062 231.257812 63.882812 232.402344 63.652344 C 233.546875 63.425781 234.695312 63.257812 235.855469 63.140625 C 237.015625 63.027344 238.179688 62.96875 239.34375 62.96875 C 240.511719 62.96875 241.671875 63.027344 242.832031 63.140625 C 243.992188 63.257812 245.144531 63.425781 246.289062 63.652344 C 247.429688 63.882812 248.558594 64.164062 249.675781 64.503906 C 250.789062 64.839844 251.886719 65.234375 252.964844 65.679688 C 254.039062 66.125 255.09375 66.621094 256.121094 67.171875 C 257.148438 67.722656 258.148438 68.320312 259.117188 68.96875 C 260.085938 69.613281 261.019531 70.308594 261.921875 71.046875 C 262.820312 71.789062 263.683594 72.570312 264.507812 73.394531 C 265.332031 74.21875 266.113281 75.078125 266.855469 75.980469 C 267.59375 76.882812 268.285156 77.816406 268.933594 78.785156 C 269.582031 79.753906 270.179688 80.753906 270.730469 81.78125 C 271.277344 82.808594 271.777344 83.863281 272.222656 84.9375 C 272.667969 86.015625 273.0625 87.109375 273.398438 88.226562 C 273.738281 89.34375 274.019531 90.472656 274.246094 91.613281 C 274.476562 92.757812 274.644531 93.910156 274.761719 95.070312 C 274.875 96.230469 274.929688 97.390625 274.929688 98.558594 Z M 274.929688 98.558594 " fill-opacity="1" fill-rule="nonzero"/><path fill="#ffa146" d="M 313.875 106.277344 C 313.4375 107.566406 311.628906 112.390625 306.488281 115.34375 C 304.917969 116.242188 301.15625 118.046875 296.417969 117.359375 C 292.308594 116.761719 289.667969 114.605469 287.6875 112.992188 C 284.230469 110.175781 282.316406 106.976562 281.3125 104.933594 C 279.460938 99.164062 277.753906 94.089844 276.273438 89.828125 C 274.570312 84.902344 273.734375 82.675781 271.910156 80.089844 C 269.277344 76.363281 266.113281 74.0625 263.851562 72.703125 C 265.636719 72.441406 268.726562 72.265625 271.910156 73.710938 C 274.269531 74.78125 276.058594 76.183594 277.953125 79.082031 C 281.535156 84.5625 285.113281 90.046875 288.695312 95.53125 C 289.609375 96.984375 291.875 100.140625 296.082031 102.246094 C 301.148438 104.777344 305.859375 104.199219 307.496094 103.925781 C 307.089844 104.273438 301.222656 109.144531 294.402344 106.945312 C 290.898438 105.8125 288.847656 103.367188 288.027344 102.246094 C 286.574219 100.121094 285.117188 97.992188 283.660156 95.871094 C 283.753906 97.457031 284.140625 100.464844 286.011719 103.589844 C 286.6875 104.722656 289.59375 109.269531 295.410156 110.976562 C 300.148438 112.367188 304.109375 111.085938 306.488281 110.304688 C 309.871094 109.195312 312.339844 107.515625 313.875 106.277344 Z M 313.875 106.277344 " fill-opacity="1" fill-rule="nonzero"/><path fill="#ffa146" d="M 308.503906 251.976562 C 309.390625 256.28125 310.835938 263.660156 309.175781 272.789062 C 307.503906 281.960938 303.539062 288.1875 300.445312 292.929688 C 292.238281 305.53125 282.355469 312.511719 275.074219 317.542969 C 269.613281 321.316406 258.683594 328.191406 243.222656 333.175781 C 215.511719 342.121094 192.574219 338.769531 187.308594 337.914062 C 175.851562 336.050781 166.765625 332.753906 160.789062 330.195312 C 158.578125 331.570312 156.132812 332.964844 153.460938 334.339844 C 150.832031 335.6875 148.304688 336.832031 145.933594 337.8125 C 144.734375 338.589844 143.179688 338.273438 142.457031 337.234375 C 141.859375 336.367188 141.925781 335.121094 142.660156 334.226562 L 151.722656 326.167969 C 142.210938 319.0625 134.355469 312.46875 128.222656 307.03125 C 120.074219 299.804688 114.183594 293.914062 110.609375 290.328125 C 103.621094 283.320312 98.785156 278.464844 93.234375 271.796875 C 87.742188 265.195312 81.0625 257.167969 74.84375 245.261719 C 71.632812 239.117188 65.769531 227.605469 63.097656 211.355469 C 61.835938 203.707031 60.320312 193.917969 62.761719 181.476562 C 65.667969 166.675781 72.492188 156.734375 75.855469 151.933594 C 79.945312 146.097656 86.292969 137.257812 98.011719 130.449219 C 103.167969 127.457031 112.097656 122.265625 124.535156 122.390625 C 137.121094 122.519531 146.128906 128.023438 151.054688 131.117188 C 160.515625 137.0625 165.359375 143.792969 173.882812 155.625 C 178.210938 161.632812 185.503906 171.894531 191.675781 187.179688 C 194.105469 193.203125 198.519531 204.351562 200.402344 219.746094 C 201.550781 229.140625 202.902344 241.175781 198.726562 255.664062 C 196.875 262.074219 194.484375 267.101562 192.679688 270.4375 C 194.460938 256.578125 193.550781 245.125 192.347656 237.203125 C 190.003906 221.78125 185.152344 210.585938 181.269531 201.617188 C 176.21875 189.957031 171.433594 182.394531 170.195312 180.464844 C 165.070312 172.488281 160.164062 166.722656 157.101562 163.34375 C 152.699219 158.496094 149.136719 154.617188 143.339844 150.585938 C 139.875 148.183594 135.476562 145.179688 128.902344 143.199219 C 125.515625 142.179688 119.945312 140.570312 112.789062 141.523438 C 106.117188 142.414062 101.445312 145.085938 98.351562 146.894531 C 96.578125 147.933594 92.125 150.699219 87.609375 155.621094 C 86.40625 156.929688 80.792969 163.195312 77.203125 173.414062 C 72.425781 187.011719 74.34375 198.890625 75.859375 208.328125 C 76.398438 211.707031 78.542969 223.90625 85.714844 238.203125 C 90.398438 247.539062 95.078125 253.488281 103.386719 264.054688 C 111.277344 274.082031 117.945312 281.085938 122.855469 286.210938 C 134.980469 298.867188 144.507812 306.929688 147.027344 309.039062 C 152.125 313.3125 156.554688 316.710938 159.785156 319.109375 C 166.210938 314.089844 174.292969 307.472656 183.285156 299.304688 C 188.59375 294.480469 198.902344 284.867188 211.148438 271.441406 C 223.59375 257.796875 230.414062 248.574219 235.320312 241.226562 C 237.632812 237.765625 241.902344 231.152344 245.058594 221.757812 C 248.1875 212.4375 247.96875 207.097656 247.746094 204.636719 C 247.53125 202.324219 247.070312 197.839844 244.390625 192.890625 C 243.175781 190.648438 239.667969 184.378906 232.300781 181.140625 C 222.949219 177.023438 213.878906 180.65625 210.144531 182.148438 C 204.46875 184.417969 200.582031 187.714844 198.398438 189.867188 C 198.683594 186.472656 199.832031 178.597656 205.785156 171.402344 C 209.882812 166.453125 214.402344 164.066406 215.855469 163.34375 C 217.988281 162.289062 225.679688 158.480469 234.65625 160.660156 C 242.316406 162.519531 246.886719 167.761719 252.113281 173.75 C 255.238281 177.328125 257.402344 180.683594 258.828125 183.148438 C 262.003906 185.511719 265.9375 188.636719 270.242188 192.546875 C 278.71875 200.253906 284.3125 207.101562 286.355469 209.667969 C 289.800781 213.996094 296.101562 222.015625 301.796875 233.839844 C 304.617188 239.6875 307.003906 244.644531 308.511719 251.96875 Z M 285.671875 277.15625 C 288.375 267.542969 287.449219 259.394531 286.679688 252.648438 C 285.34375 240.925781 281.722656 232.199219 279.292969 226.464844 C 275.960938 218.601562 272.355469 212.679688 269.894531 208.671875 C 266.632812 203.367188 263.558594 199.066406 261.167969 195.914062 C 261.355469 203.242188 260.761719 214.207031 256.46875 226.464844 C 252.109375 238.898438 245.917969 247.011719 235.988281 260.035156 C 234.199219 262.378906 225.933594 273.128906 213.160156 285.886719 C 210.148438 288.890625 200.929688 298.078125 187.648438 309.046875 C 179.585938 315.707031 172.410156 321.0625 166.785156 325.074219 C 167.996094 325.558594 169.355469 326.03125 170.855469 326.433594 C 171.761719 326.679688 172.632812 326.878906 173.457031 327.035156 C 173.457031 327.035156 181.0625 328.6875 189.324219 329.1875 C 212.136719 330.582031 232.222656 323.914062 232.222656 323.914062 C 240.75 321.085938 254.035156 316.523438 266.871094 304.683594 C 272.835938 299.1875 281.800781 290.921875 285.671875 277.15625 Z M 285.671875 277.15625 " fill-opacity="1" fill-rule="nonzero"/></svg>