<svg xmlns="http://www.w3.org/2000/svg" xmlns:xlink="http://www.w3.org/1999/xlink" width="1000" zoomAndPan="magnify" viewBox="0 0 750 225" height="300" preserveAspectRatio="xMidYMid meet" version="1.2"><defs><clipPath id="789b61bcfc"><path d="M 365.957031 49.492188 L 507.484375 49.492188 L 507.484375 96.605469 L 365.957031 96.605469 Z M 365.957031 49.492188 "/></clipPath><clipPath id="8f818d78c7"><path d="M 389.515625 49.492188 L 483.75 49.492188 C 490 49.492188 495.992188 51.972656 500.410156 56.390625 C 504.828125 60.808594 507.308594 66.800781 507.308594 73.046875 C 507.308594 79.296875 504.828125 85.289062 500.410156 89.707031 C 495.992188 94.125 490 96.605469 483.75 96.605469 L 389.515625 96.605469 C 383.265625 96.605469 377.277344 94.125 372.859375 89.707031 C 368.441406 85.289062 365.957031 79.296875 365.957031 73.046875 C 365.957031 66.800781 368.441406 60.808594 372.859375 56.390625 C 377.277344 51.972656 383.265625 49.492188 389.515625 49.492188 Z M 389.515625 49.492188 "/></clipPath><clipPath id="aca3063dc8"><path d="M 357 69 L 401 69 L 401 118 L 357 118 Z M 357 69 "/></clipPath><clipPath id="aded978f5e"><path d="M 368.769531 69.433594 L 400.582031 92.929688 L 373.6875 129.339844 L 341.875 105.839844 Z M 368.769531 69.433594 "/></clipPath><clipPath id="4572aba8dd"><path d="M 357.789062 117.582031 L 400.582031 92.929688 L 368.769531 69.433594 Z M 357.789062 117.582031 "/></clipPath></defs><g id="7b251a1958"><path style=" stroke:none;fill-rule:nonzero;fill:#60000b;fill-opacity:1;" d="M 105.726562 45.664062 C 105.726562 46.351562 105.691406 47.035156 105.625 47.71875 C 105.558594 48.402344 105.457031 49.078125 105.324219 49.75 C 105.191406 50.425781 105.023438 51.089844 104.824219 51.746094 C 104.625 52.402344 104.394531 53.046875 104.132812 53.679688 C 103.871094 54.3125 103.578125 54.933594 103.253906 55.539062 C 102.929688 56.144531 102.578125 56.730469 102.195312 57.300781 C 101.816406 57.871094 101.40625 58.421875 100.972656 58.953125 C 100.535156 59.480469 100.078125 59.988281 99.59375 60.472656 C 99.105469 60.960938 98.597656 61.417969 98.070312 61.855469 C 97.539062 62.289062 96.988281 62.699219 96.417969 63.078125 C 95.847656 63.460938 95.261719 63.8125 94.65625 64.136719 C 94.050781 64.457031 93.429688 64.75 92.796875 65.015625 C 92.164062 65.277344 91.519531 65.507812 90.863281 65.707031 C 90.207031 65.90625 89.542969 66.070312 88.867188 66.207031 C 88.195312 66.339844 87.519531 66.441406 86.835938 66.507812 C 86.152344 66.574219 85.46875 66.609375 84.78125 66.609375 C 84.097656 66.609375 83.414062 66.574219 82.730469 66.507812 C 82.046875 66.441406 81.371094 66.339844 80.695312 66.207031 C 80.023438 66.070312 79.359375 65.90625 78.703125 65.707031 C 78.046875 65.507812 77.402344 65.277344 76.769531 65.015625 C 76.136719 64.75 75.515625 64.457031 74.910156 64.136719 C 74.304688 63.8125 73.71875 63.460938 73.148438 63.078125 C 72.578125 62.699219 72.027344 62.289062 71.496094 61.855469 C 70.964844 61.417969 70.460938 60.960938 69.972656 60.472656 C 69.488281 59.988281 69.027344 59.480469 68.59375 58.953125 C 68.160156 58.421875 67.75 57.871094 67.371094 57.300781 C 66.988281 56.730469 66.636719 56.144531 66.3125 55.539062 C 65.988281 54.933594 65.695312 54.3125 65.433594 53.679688 C 65.171875 53.046875 64.941406 52.402344 64.742188 51.746094 C 64.542969 51.089844 64.375 50.425781 64.242188 49.75 C 64.109375 49.078125 64.007812 48.402344 63.941406 47.71875 C 63.875 47.035156 63.839844 46.351562 63.839844 45.664062 C 63.839844 44.980469 63.875 44.296875 63.941406 43.613281 C 64.007812 42.929688 64.109375 42.253906 64.242188 41.578125 C 64.375 40.90625 64.542969 40.242188 64.742188 39.585938 C 64.941406 38.929688 65.171875 38.285156 65.433594 37.652344 C 65.695312 37.015625 65.988281 36.398438 66.3125 35.792969 C 66.636719 35.1875 66.988281 34.601562 67.371094 34.03125 C 67.75 33.460938 68.160156 32.910156 68.59375 32.378906 C 69.027344 31.847656 69.488281 31.339844 69.972656 30.855469 C 70.460938 30.371094 70.964844 29.910156 71.496094 29.476562 C 72.027344 29.042969 72.578125 28.632812 73.148438 28.253906 C 73.71875 27.871094 74.304688 27.519531 74.910156 27.195312 C 75.515625 26.871094 76.136719 26.578125 76.769531 26.316406 C 77.402344 26.054688 78.046875 25.824219 78.703125 25.625 C 79.359375 25.425781 80.023438 25.257812 80.695312 25.125 C 81.371094 24.992188 82.046875 24.890625 82.730469 24.824219 C 83.414062 24.757812 84.097656 24.722656 84.78125 24.722656 C 85.46875 24.722656 86.152344 24.757812 86.835938 24.824219 C 87.519531 24.890625 88.195312 24.992188 88.867188 25.125 C 89.542969 25.257812 90.207031 25.425781 90.863281 25.625 C 91.519531 25.824219 92.164062 26.054688 92.796875 26.316406 C 93.429688 26.578125 94.050781 26.871094 94.65625 27.195312 C 95.261719 27.519531 95.847656 27.871094 96.417969 28.253906 C 96.988281 28.632812 97.539062 29.042969 98.070312 29.476562 C 98.597656 29.910156 99.105469 30.371094 99.59375 30.855469 C 100.078125 31.339844 100.535156 31.847656 100.972656 32.378906 C 101.40625 32.910156 101.816406 33.460938 102.195312 34.03125 C 102.578125 34.601562 102.929688 35.1875 103.253906 35.792969 C 103.578125 36.398438 103.871094 37.015625 104.132812 37.652344 C 104.394531 38.285156 104.625 38.929688 104.824219 39.585938 C 105.023438 40.242188 105.191406 40.90625 105.324219 41.578125 C 105.457031 42.253906 105.558594 42.929688 105.625 43.613281 C 105.691406 44.296875 105.726562 44.980469 105.726562 45.664062 Z M 105.726562 45.664062 "/><path style=" stroke:none;fill-rule:nonzero;fill:#60000b;fill-opacity:1;" d="M 163.128906 61.179688 C 163.128906 61.851562 163.097656 62.523438 163.03125 63.195312 C 162.964844 63.863281 162.867188 64.53125 162.734375 65.191406 C 162.601562 65.851562 162.441406 66.503906 162.246094 67.148438 C 162.050781 67.789062 161.824219 68.425781 161.566406 69.046875 C 161.308594 69.667969 161.019531 70.277344 160.703125 70.871094 C 160.386719 71.464844 160.039062 72.039062 159.664062 72.601562 C 159.289062 73.160156 158.890625 73.699219 158.464844 74.21875 C 158.035156 74.742188 157.585938 75.238281 157.109375 75.714844 C 156.632812 76.191406 156.132812 76.644531 155.613281 77.070312 C 155.09375 77.496094 154.554688 77.898438 153.992188 78.273438 C 153.433594 78.644531 152.855469 78.992188 152.261719 79.308594 C 151.667969 79.625 151.0625 79.914062 150.4375 80.171875 C 149.816406 80.429688 149.183594 80.65625 148.539062 80.851562 C 147.894531 81.046875 147.242188 81.210938 146.582031 81.339844 C 145.921875 81.472656 145.257812 81.570312 144.585938 81.636719 C 143.917969 81.703125 143.246094 81.734375 142.574219 81.734375 C 141.898438 81.734375 141.226562 81.703125 140.558594 81.636719 C 139.886719 81.570312 139.222656 81.472656 138.5625 81.339844 C 137.902344 81.210938 137.25 81.046875 136.605469 80.851562 C 135.960938 80.65625 135.328125 80.429688 134.707031 80.171875 C 134.082031 79.914062 133.476562 79.625 132.882812 79.308594 C 132.289062 78.992188 131.710938 78.644531 131.152344 78.273438 C 130.59375 77.898438 130.050781 77.496094 129.53125 77.070312 C 129.011719 76.644531 128.511719 76.191406 128.035156 75.714844 C 127.5625 75.238281 127.109375 74.742188 126.683594 74.21875 C 126.253906 73.699219 125.855469 73.160156 125.480469 72.601562 C 125.105469 72.039062 124.761719 71.464844 124.441406 70.871094 C 124.125 70.277344 123.839844 69.667969 123.582031 69.046875 C 123.324219 68.425781 123.097656 67.789062 122.902344 67.148438 C 122.707031 66.503906 122.542969 65.851562 122.410156 65.191406 C 122.28125 64.53125 122.179688 63.863281 122.113281 63.195312 C 122.046875 62.523438 122.015625 61.851562 122.015625 61.179688 C 122.015625 60.507812 122.046875 59.835938 122.113281 59.164062 C 122.179688 58.496094 122.28125 57.828125 122.410156 57.167969 C 122.542969 56.507812 122.707031 55.855469 122.902344 55.210938 C 123.097656 54.566406 123.324219 53.933594 123.582031 53.3125 C 123.839844 52.691406 124.125 52.082031 124.441406 51.488281 C 124.761719 50.894531 125.105469 50.316406 125.480469 49.757812 C 125.855469 49.199219 126.253906 48.660156 126.683594 48.136719 C 127.109375 47.617188 127.5625 47.121094 128.035156 46.644531 C 128.511719 46.167969 129.011719 45.714844 129.53125 45.289062 C 130.050781 44.863281 130.59375 44.460938 131.152344 44.085938 C 131.710938 43.710938 132.289062 43.367188 132.882812 43.050781 C 133.476562 42.730469 134.082031 42.445312 134.707031 42.1875 C 135.328125 41.929688 135.960938 41.703125 136.605469 41.507812 C 137.25 41.3125 137.902344 41.148438 138.5625 41.015625 C 139.222656 40.886719 139.886719 40.789062 140.558594 40.722656 C 141.226562 40.65625 141.898438 40.621094 142.574219 40.621094 C 143.246094 40.621094 143.917969 40.65625 144.585938 40.722656 C 145.257812 40.789062 145.921875 40.886719 146.582031 41.015625 C 147.242188 41.148438 147.894531 41.3125 148.539062 41.507812 C 149.183594 41.703125 149.816406 41.929688 150.4375 42.1875 C 151.0625 42.445312 151.667969 42.730469 152.261719 43.050781 C 152.855469 43.367188 153.433594 43.710938 153.992188 44.085938 C 154.554688 44.460938 155.09375 44.863281 155.613281 45.289062 C 156.132812 45.714844 156.632812 46.167969 157.109375 46.644531 C 157.585938 47.121094 158.035156 47.617188 158.464844 48.136719 C 158.890625 48.660156 159.292969 49.199219 159.664062 49.757812 C 160.039062 50.316406 160.386719 50.894531 160.703125 51.488281 C 161.019531 52.082031 161.308594 52.691406 161.566406 53.3125 C 161.824219 53.933594 162.050781 54.566406 162.246094 55.210938 C 162.441406 55.855469 162.601562 56.507812 162.734375 57.167969 C 162.867188 57.828125 162.964844 58.496094 163.03125 59.164062 C 163.097656 59.835938 163.128906 60.507812 163.128906 61.179688 Z M 163.128906 61.179688 "/><path style=" stroke:none;fill-rule:nonzero;fill:#60000b;fill-opacity:1;" d="M 185.625 65.640625 C 185.371094 66.382812 184.328125 69.171875 181.359375 70.875 C 180.453125 71.394531 178.28125 72.4375 175.539062 72.039062 C 173.167969 71.695312 171.640625 70.449219 170.5 69.519531 C 168.5 67.890625 167.394531 66.042969 166.816406 64.863281 C 165.746094 61.53125 164.757812 58.597656 163.90625 56.136719 C 162.921875 53.292969 162.4375 52.003906 161.382812 50.511719 C 159.863281 48.359375 158.035156 47.027344 156.730469 46.246094 C 157.761719 46.09375 159.546875 45.992188 161.382812 46.824219 C 162.746094 47.445312 163.78125 48.253906 164.875 49.929688 C 166.945312 53.097656 169.011719 56.265625 171.082031 59.433594 C 171.609375 60.269531 172.917969 62.09375 175.347656 63.3125 C 178.273438 64.773438 180.996094 64.4375 181.941406 64.28125 C 181.707031 64.480469 178.316406 67.296875 174.378906 66.023438 C 172.351562 65.371094 171.167969 63.957031 170.695312 63.3125 C 169.855469 62.082031 169.015625 60.855469 168.171875 59.625 C 168.226562 60.542969 168.449219 62.28125 169.53125 64.085938 C 169.921875 64.742188 171.597656 67.367188 174.960938 68.355469 C 177.695312 69.15625 179.984375 68.417969 181.359375 67.964844 C 183.3125 67.324219 184.738281 66.355469 185.625 65.640625 Z M 185.625 65.640625 "/><path style=" stroke:none;fill-rule:nonzero;fill:#60000b;fill-opacity:1;" d="M 182.523438 149.804688 C 183.035156 152.289062 183.871094 156.554688 182.910156 161.824219 C 181.945312 167.125 179.65625 170.722656 177.867188 173.460938 C 173.125 180.738281 167.417969 184.773438 163.210938 187.679688 C 160.058594 189.859375 153.742188 193.828125 144.8125 196.710938 C 128.804688 201.878906 115.554688 199.941406 112.515625 199.445312 C 105.894531 198.371094 100.644531 196.464844 97.195312 194.988281 C 95.917969 195.78125 94.503906 196.589844 92.960938 197.378906 C 91.441406 198.160156 89.984375 198.820312 88.613281 199.386719 C 87.921875 199.835938 87.023438 199.652344 86.605469 199.050781 C 86.261719 198.554688 86.296875 197.832031 86.722656 197.316406 L 91.957031 192.660156 C 86.464844 188.554688 81.925781 184.746094 78.382812 181.605469 C 73.675781 177.429688 70.273438 174.03125 68.207031 171.957031 C 64.171875 167.910156 61.378906 165.105469 58.171875 161.253906 C 54.996094 157.4375 51.136719 152.800781 47.546875 145.925781 C 45.691406 142.375 42.304688 135.726562 40.761719 126.339844 C 40.035156 121.917969 39.160156 116.265625 40.570312 109.078125 C 42.246094 100.527344 46.1875 94.785156 48.132812 92.011719 C 50.496094 88.640625 54.160156 83.535156 60.929688 79.601562 C 63.910156 77.875 69.066406 74.875 76.25 74.949219 C 83.519531 75.019531 88.726562 78.199219 91.570312 79.988281 C 97.035156 83.421875 99.835938 87.308594 104.757812 94.144531 C 107.257812 97.617188 111.46875 103.542969 115.035156 112.375 C 116.441406 115.851562 118.992188 122.292969 120.078125 131.183594 C 120.738281 136.613281 121.523438 143.566406 119.109375 151.933594 C 118.039062 155.636719 116.660156 158.539062 115.617188 160.464844 C 116.644531 152.460938 116.117188 145.84375 115.425781 141.269531 C 114.070312 132.359375 111.269531 125.894531 109.027344 120.710938 C 106.109375 113.976562 103.34375 109.609375 102.628906 108.496094 C 99.667969 103.886719 96.835938 100.554688 95.0625 98.605469 C 92.519531 95.804688 90.464844 93.5625 87.113281 91.234375 C 85.113281 89.84375 82.570312 88.109375 78.773438 86.96875 C 76.816406 86.378906 73.601562 85.449219 69.464844 86 C 65.613281 86.511719 62.914062 88.058594 61.128906 89.101562 C 60.101562 89.703125 57.53125 91.300781 54.921875 94.144531 C 54.226562 94.898438 50.984375 98.519531 48.910156 104.421875 C 46.148438 112.277344 47.257812 119.136719 48.132812 124.589844 C 48.445312 126.542969 49.683594 133.589844 53.828125 141.847656 C 56.535156 147.242188 59.234375 150.675781 64.035156 156.78125 C 68.59375 162.574219 72.445312 166.621094 75.28125 169.578125 C 82.285156 176.890625 87.789062 181.546875 89.246094 182.765625 C 92.1875 185.234375 94.746094 187.199219 96.613281 188.585938 C 100.328125 185.683594 104.996094 181.859375 110.191406 177.140625 C 113.257812 174.355469 119.210938 168.804688 126.285156 161.046875 C 133.472656 153.164062 137.414062 147.839844 140.25 143.59375 C 141.582031 141.59375 144.050781 137.773438 145.871094 132.347656 C 147.679688 126.960938 147.554688 123.878906 147.425781 122.457031 C 147.300781 121.121094 147.035156 118.53125 145.488281 115.671875 C 144.785156 114.375 142.757812 110.757812 138.503906 108.882812 C 133.101562 106.507812 127.863281 108.605469 125.707031 109.464844 C 122.425781 110.777344 120.179688 112.683594 118.917969 113.925781 C 119.082031 111.964844 119.75 107.414062 123.1875 103.261719 C 125.554688 100.398438 128.164062 99.023438 129.003906 98.605469 C 130.234375 97.996094 134.679688 95.792969 139.863281 97.050781 C 144.289062 98.128906 146.929688 101.15625 149.949219 104.617188 C 151.753906 106.683594 153.003906 108.621094 153.828125 110.042969 C 155.664062 111.410156 157.933594 113.214844 160.421875 115.472656 C 165.316406 119.925781 168.546875 123.878906 169.730469 125.363281 C 171.71875 127.863281 175.359375 132.496094 178.648438 139.328125 C 180.277344 142.703125 181.65625 145.570312 182.527344 149.800781 Z M 169.335938 164.347656 C 170.894531 158.796875 170.359375 154.089844 169.917969 150.191406 C 169.144531 143.417969 167.054688 138.378906 165.648438 135.066406 C 163.726562 130.523438 161.640625 127.101562 160.21875 124.789062 C 158.335938 121.722656 156.558594 119.238281 155.179688 117.417969 C 155.285156 121.652344 154.945312 127.984375 152.464844 135.066406 C 149.945312 142.25 146.371094 146.9375 140.632812 154.457031 C 139.601562 155.8125 134.824219 162.023438 127.445312 169.390625 C 125.707031 171.128906 120.382812 176.433594 112.710938 182.769531 C 108.050781 186.617188 103.90625 189.710938 100.660156 192.027344 C 101.355469 192.308594 102.140625 192.582031 103.007812 192.816406 C 103.535156 192.957031 104.035156 193.070312 104.511719 193.164062 C 104.511719 193.164062 108.90625 194.113281 113.679688 194.40625 C 126.855469 195.210938 138.457031 191.359375 138.457031 191.359375 C 143.386719 189.722656 151.058594 187.089844 158.472656 180.25 C 161.917969 177.074219 167.097656 172.300781 169.335938 164.347656 Z M 169.335938 164.347656 "/><g clip-rule="nonzero" clip-path="url(#789b61bcfc)"><g clip-rule="nonzero" clip-path="url(#8f818d78c7)"><path style=" stroke:none;fill-rule:nonzero;fill:#60000b;fill-opacity:1;" d="M 365.957031 49.492188 L 507.300781 49.492188 L 507.300781 96.605469 L 365.957031 96.605469 Z M 365.957031 49.492188 "/></g></g><g clip-rule="nonzero" clip-path="url(#aca3063dc8)"><g clip-rule="nonzero" clip-path="url(#aded978f5e)"><g clip-rule="nonzero" clip-path="url(#4572aba8dd)"><path style=" stroke:none;fill-rule:nonzero;fill:#60000b;fill-opacity:1;" d="M 368.769531 69.433594 L 400.582031 92.929688 L 373.6875 129.339844 L 341.875 105.839844 Z M 368.769531 69.433594 "/></g></g></g><g style="fill:#60000b;fill-opacity:1;"><g transform="translate(207.318272, 151.676164)"><path style="stroke:none" d="M 27.375 -23.5625 C 23.039062 -23.5625 20.914062 -24.65625 21 -26.84375 C 21 -28.90625 23.082031 -29.9375 27.25 -29.9375 C 28.226562 -29.9375 29.164062 -29.820312 30.0625 -29.59375 C 31.539062 -31.070312 32.28125 -33.3125 32.28125 -36.3125 C 32.28125 -41.5 28.8125 -44.09375 21.875 -44.09375 C 18.25 -44.09375 14.804688 -43.304688 11.546875 -41.734375 C 10.335938 -41.160156 9.25 -40.625 8.28125 -40.125 C 7.320312 -39.632812 6.4375 -39.390625 5.625 -39.390625 C 4.820312 -39.390625 4.421875 -39.632812 4.421875 -40.125 C 4.421875 -40.707031 4.867188 -41.566406 5.765625 -42.703125 C 6.660156 -43.847656 7.914062 -45.003906 9.53125 -46.171875 C 13.644531 -49.035156 18.320312 -50.488281 23.5625 -50.53125 C 30.40625 -50.53125 35.4375 -49.164062 38.65625 -46.4375 C 41.425781 -44.15625 42.8125 -41.046875 42.8125 -37.109375 C 42.8125 -32.546875 40.578125 -29.054688 36.109375 -26.640625 C 40.398438 -24.179688 42.945312 -21.160156 43.75 -17.578125 C 44.019531 -16.328125 44.15625 -14.671875 44.15625 -12.609375 C 44.15625 -10.554688 43.59375 -8.613281 42.46875 -6.78125 C 41.351562 -4.945312 39.859375 -3.398438 37.984375 -2.140625 C 34.222656 0.265625 29.414062 1.46875 23.5625 1.46875 C 19.394531 1.46875 14.757812 0.53125 9.65625 -1.34375 C 6.257812 -2.59375 3.753906 -4.09375 2.140625 -5.84375 C 1.335938 -6.6875 0.945312 -7.53125 0.96875 -8.375 C 0.988281 -9.226562 1.410156 -9.65625 2.234375 -9.65625 C 3.066406 -9.65625 4.648438 -9.367188 6.984375 -8.796875 L 6.984375 -8.859375 C 6.984375 -12.347656 7.382812 -15.925781 8.1875 -19.59375 C 9.570312 -25.988281 11.179688 -31 13.015625 -34.625 C 14.984375 -38.65625 17.019531 -40.671875 19.125 -40.671875 C 19.707031 -40.671875 20 -39.660156 20 -37.640625 C 20 -35.628906 19.804688 -33.570312 19.421875 -31.46875 C 19.046875 -29.363281 18.644531 -27.296875 18.21875 -25.265625 C 17.789062 -23.234375 17.382812 -21.390625 17 -19.734375 C 16.625 -18.078125 16.4375 -16.890625 16.4375 -16.171875 L 15.765625 -6.046875 C 18.410156 -5.328125 20.648438 -4.96875 22.484375 -4.96875 C 24.316406 -4.96875 25.972656 -5.28125 27.453125 -5.90625 C 31.160156 -7.46875 33.015625 -10.195312 33.015625 -14.09375 C 33.015625 -16.414062 32.789062 -18.335938 32.34375 -19.859375 C 31.894531 -21.378906 31.09375 -22.722656 29.9375 -23.890625 C 28.90625 -23.671875 28.050781 -23.5625 27.375 -23.5625 Z M 27.375 -23.5625 "/></g></g><g style="fill:#60000b;fill-opacity:1;"><g transform="translate(254.823423, 151.676164)"><path style="stroke:none" d="M 10.0625 0.203125 C 5.59375 0.203125 3.359375 -3.976562 3.359375 -12.34375 C 3.359375 -16.90625 3.914062 -21.046875 5.03125 -24.765625 C 6.78125 -30.492188 8.75 -33.359375 10.9375 -33.359375 C 12.238281 -33.359375 13.269531 -32.484375 14.03125 -30.734375 C 14.65625 -29.390625 14.941406 -28.070312 14.890625 -26.78125 C 14.890625 -24.988281 14.351562 -21.832031 13.28125 -17.3125 C 12.257812 -13.375 11.75 -10.9375 11.75 -10 C 11.75 -9.0625 11.984375 -8.410156 12.453125 -8.046875 C 12.921875 -7.691406 13.476562 -7.515625 14.125 -7.515625 C 14.769531 -7.515625 15.582031 -7.9375 16.5625 -8.78125 C 17.550781 -9.632812 18.535156 -10.566406 19.515625 -11.578125 C 20.503906 -12.585938 21.410156 -13.515625 22.234375 -14.359375 C 23.066406 -15.210938 23.640625 -15.640625 23.953125 -15.640625 C 24.578125 -15.640625 24.890625 -14.878906 24.890625 -13.359375 C 24.890625 -10.222656 23.3125 -7.164062 20.15625 -4.1875 C 17.007812 -1.21875 13.644531 0.242188 10.0625 0.203125 Z M 12.8125 -38.796875 C 11.601562 -40.578125 11 -42.492188 11 -44.546875 C 11 -46.609375 11.320312 -48.320312 11.96875 -49.6875 C 12.625 -51.050781 13.242188 -52.054688 13.828125 -52.703125 C 14.410156 -53.359375 15.082031 -53.6875 15.84375 -53.6875 C 17.09375 -53.6875 18.226562 -52.757812 19.25 -50.90625 C 20.28125 -49.050781 20.796875 -47.492188 20.796875 -46.234375 C 20.796875 -43.910156 19.976562 -42.085938 18.34375 -40.765625 C 16.71875 -39.453125 14.875 -38.796875 12.8125 -38.796875 Z M 12.8125 -38.796875 "/></g></g><g style="fill:#60000b;fill-opacity:1;"><g transform="translate(274.348851, 151.676164)"><path style="stroke:none" d="M 7.65625 -31.546875 C 4.34375 -32.972656 2.6875 -34.359375 2.6875 -35.703125 C 2.6875 -36.421875 2.976562 -36.753906 3.5625 -36.703125 C 4.363281 -36.703125 5.28125 -36.507812 6.3125 -36.125 C 7.34375 -35.75 8.394531 -35.453125 9.46875 -35.234375 C 13.132812 -42.171875 17.289062 -46.710938 21.9375 -48.859375 C 23.507812 -49.566406 25.078125 -49.945312 26.640625 -50 C 29.722656 -50 32.082031 -49.25 33.71875 -47.75 C 35.351562 -46.25 36.171875 -44.425781 36.171875 -42.28125 C 36.171875 -38.425781 34.09375 -35.453125 29.9375 -33.359375 C 26.53125 -31.648438 21.898438 -30.597656 16.046875 -30.203125 C 13.941406 -25.015625 12.890625 -19.441406 12.890625 -13.484375 C 12.890625 -9.054688 13.914062 -6.484375 15.96875 -5.765625 C 17.40625 -5.273438 18.476562 -5.265625 19.1875 -5.734375 C 19.90625 -6.203125 20.460938 -6.828125 20.859375 -7.609375 C 21.265625 -8.398438 21.476562 -9.554688 21.5 -11.078125 C 21.53125 -12.597656 21.109375 -13.882812 20.234375 -14.9375 C 19.359375 -15.988281 18.519531 -16.957031 17.71875 -17.84375 C 18.125 -19.320312 18.707031 -20.554688 19.46875 -21.546875 C 20.894531 -23.460938 22.125 -24.421875 23.15625 -24.421875 C 24.1875 -24.421875 25.023438 -24.0625 25.671875 -23.34375 C 26.316406 -22.632812 26.835938 -21.742188 27.234375 -20.671875 C 27.640625 -19.597656 27.96875 -18.429688 28.21875 -17.171875 C 28.46875 -15.921875 28.75 -14.757812 29.0625 -13.6875 C 29.375 -12.613281 29.765625 -11.71875 30.234375 -11 C 30.703125 -10.289062 31.328125 -9.9375 32.109375 -9.9375 C 32.890625 -9.9375 33.59375 -10.238281 34.21875 -10.84375 C 34.851562 -11.445312 35.414062 -12.101562 35.90625 -12.8125 C 36.394531 -13.53125 36.835938 -14.191406 37.234375 -14.796875 C 37.640625 -15.398438 38.054688 -15.703125 38.484375 -15.703125 C 38.910156 -15.703125 39.335938 -15.34375 39.765625 -14.625 C 40.191406 -13.914062 40.40625 -13.242188 40.40625 -12.609375 C 40.40625 -11.179688 39.695312 -9.484375 38.28125 -7.515625 C 36.875 -5.546875 35.070312 -4.570312 32.875 -4.59375 C 30.6875 -4.613281 28.988281 -5.070312 27.78125 -5.96875 C 27.019531 -4.09375 25.722656 -2.523438 23.890625 -1.265625 C 22.054688 -0.015625 19.445312 0.609375 16.0625 0.609375 C 12.6875 0.609375 9.789062 -0.265625 7.375 -2.015625 C 4.46875 -4.117188 3.015625 -7.382812 3.015625 -11.8125 C 3.015625 -18.125 4.5625 -24.703125 7.65625 -31.546875 Z M 28.796875 -41.078125 C 28.742188 -42.640625 28.171875 -43.421875 27.078125 -43.421875 C 25.984375 -43.421875 24.5625 -42.59375 22.8125 -40.9375 C 21.070312 -39.28125 19.394531 -36.976562 17.78125 -34.03125 C 22.65625 -34.875 25.988281 -36.367188 27.78125 -38.515625 C 28.40625 -39.328125 28.742188 -40.179688 28.796875 -41.078125 Z M 28.796875 -41.078125 "/></g></g><g style="fill:#60000b;fill-opacity:1;"><g transform="translate(309.038352, 151.676164)"><path style="stroke:none" d="M 43.21875 -15.84375 C 44.019531 -15.84375 44.421875 -14.8125 44.421875 -12.75 C 44.421875 -11.632812 43.953125 -10.28125 43.015625 -8.6875 C 42.078125 -7.101562 40.859375 -5.648438 39.359375 -4.328125 C 37.859375 -3.003906 36.191406 -1.914062 34.359375 -1.0625 C 32.523438 -0.21875 30.734375 0.203125 28.984375 0.203125 C 26.617188 0.203125 25.03125 -1.878906 24.21875 -6.046875 C 23.0625 -4.117188 21.539062 -2.539062 19.65625 -1.3125 C 17.78125 -0.0820312 15.265625 0.53125 12.109375 0.53125 C 8.953125 0.53125 6.410156 -0.453125 4.484375 -2.421875 C 2.566406 -4.390625 1.628906 -6.78125 1.671875 -9.59375 C 1.671875 -17.195312 4.203125 -23.191406 9.265625 -27.578125 C 11.410156 -29.410156 13.410156 -30.617188 15.265625 -31.203125 C 17.117188 -31.785156 19.070312 -32.078125 21.125 -32.078125 C 23.1875 -32.078125 24.867188 -31.71875 26.171875 -31 C 26.796875 -32.300781 27.507812 -32.953125 28.3125 -32.953125 C 29.882812 -32.953125 31.375 -32.269531 32.78125 -30.90625 C 34.1875 -29.539062 34.890625 -28.253906 34.890625 -27.046875 C 34.265625 -25.566406 33.347656 -23.800781 32.140625 -21.75 C 31.785156 -19.6875 31.609375 -16.796875 31.609375 -13.078125 C 31.609375 -9.367188 32.078125 -7.515625 33.015625 -7.515625 C 34.179688 -7.515625 37 -9.84375 41.46875 -14.5 C 42.28125 -15.394531 42.863281 -15.84375 43.21875 -15.84375 Z M 11.546875 -11.8125 C 11.546875 -8.363281 12.820312 -6.640625 15.375 -6.640625 C 18.101562 -6.679688 20.359375 -8.132812 22.140625 -11 C 22.765625 -11.988281 23.28125 -13.195312 23.6875 -14.625 C 23.6875 -19.632812 24.132812 -23.929688 25.03125 -27.515625 C 21.40625 -26.796875 18.25 -25.050781 15.5625 -22.28125 C 12.882812 -19.507812 11.546875 -16.019531 11.546875 -11.8125 Z M 11.546875 -11.8125 "/></g></g><g style="fill:#60000b;fill-opacity:1;"><g transform="translate(348.089194, 151.676164)"><path style="stroke:none" d="M 24.359375 -22.546875 C 24.359375 -24.160156 23.40625 -24.96875 21.5 -24.96875 C 19.601562 -24.96875 17.738281 -23.5 15.90625 -20.5625 C 14.070312 -17.632812 12.929688 -14.648438 12.484375 -11.609375 C 12.566406 -10.578125 12.65625 -9.546875 12.75 -8.515625 C 12.84375 -7.492188 12.890625 -6.488281 12.890625 -5.5 C 12.890625 -3.132812 12.101562 -1.523438 10.53125 -0.671875 C 9.820312 -0.265625 9.140625 0.113281 8.484375 0.46875 C 7.835938 0.820312 7.085938 1 6.234375 1 C 5.390625 1 4.640625 0.429688 3.984375 -0.703125 C 3.335938 -1.847656 3.015625 -3.628906 3.015625 -6.046875 C 3.015625 -12.796875 3.507812 -18.65625 4.5 -23.625 C 6.019531 -31.320312 9.039062 -39.550781 13.5625 -48.3125 C 14.1875 -49.519531 15.101562 -50.113281 16.3125 -50.09375 C 17.519531 -50.070312 18.503906 -49.234375 19.265625 -47.578125 C 20.023438 -45.921875 20.390625 -44.53125 20.359375 -43.40625 C 20.335938 -42.289062 20.160156 -41.207031 19.828125 -40.15625 C 19.492188 -39.113281 19.066406 -38.085938 18.546875 -37.078125 C 18.035156 -36.066406 17.457031 -35.035156 16.8125 -33.984375 C 16.164062 -32.929688 15.523438 -31.804688 14.890625 -30.609375 L 13.890625 -25.765625 C 15.640625 -28.671875 17.988281 -30.617188 20.9375 -31.609375 C 22.007812 -31.960938 23.195312 -32.140625 24.5 -32.140625 C 27.539062 -32.140625 29.84375 -31.457031 31.40625 -30.09375 C 32.96875 -28.726562 33.75 -26.804688 33.75 -24.328125 C 33.75 -21.847656 33.425781 -19.332031 32.78125 -16.78125 C 32.132812 -14.226562 31.664062 -12.398438 31.375 -11.296875 C 31.082031 -10.203125 30.9375 -9.296875 30.9375 -8.578125 C 30.9375 -7.867188 31.179688 -7.515625 31.671875 -7.515625 C 32.347656 -7.515625 33.175781 -7.9375 34.15625 -8.78125 C 35.144531 -9.632812 36.128906 -10.566406 37.109375 -11.578125 C 38.097656 -12.585938 39.003906 -13.515625 39.828125 -14.359375 C 40.660156 -15.210938 41.234375 -15.640625 41.546875 -15.640625 C 42.171875 -15.640625 42.484375 -14.878906 42.484375 -13.359375 C 42.484375 -10.222656 40.9375 -7.203125 37.84375 -4.296875 C 32.65625 -1.253906 29.347656 0.265625 27.921875 0.265625 C 27.785156 0.265625 27.695312 0.242188 27.65625 0.203125 C 24.070312 0.203125 22.28125 -2.660156 22.28125 -8.390625 C 22.28125 -10.847656 22.515625 -13.101562 22.984375 -15.15625 C 23.453125 -17.21875 23.796875 -18.71875 24.015625 -19.65625 C 24.242188 -20.601562 24.359375 -21.566406 24.359375 -22.546875 Z M 24.359375 -22.546875 "/></g></g><g style="fill:#60000b;fill-opacity:1;"><g transform="translate(385.19421, 151.676164)"><path style="stroke:none" d="M 29.125 -5.703125 C 25.59375 -1.546875 21.351562 0.53125 16.40625 0.53125 C 11.46875 0.53125 7.765625 -0.726562 5.296875 -3.25 C 2.835938 -5.78125 1.628906 -8.925781 1.671875 -12.6875 C 1.628906 -18.007812 3.304688 -22.59375 6.703125 -26.4375 C 10.109375 -30.289062 14.5625 -32.21875 20.0625 -32.21875 C 22.570312 -32.21875 24.585938 -31.898438 26.109375 -31.265625 C 28.742188 -30.191406 30.0625 -29.1875 30.0625 -28.25 C 30.0625 -27.53125 28.210938 -27.160156 24.515625 -27.140625 C 20.828125 -27.117188 17.742188 -25.84375 15.265625 -23.3125 C 12.785156 -20.789062 11.546875 -17.601562 11.546875 -13.75 C 11.546875 -11.738281 12.132812 -10.050781 13.3125 -8.6875 C 14.5 -7.320312 16.175781 -6.640625 18.34375 -6.640625 C 20.519531 -6.640625 22.320312 -7.085938 23.75 -7.984375 C 20.570312 -10.128906 18.984375 -13.238281 18.984375 -17.3125 C 18.941406 -19.457031 19.710938 -21.414062 21.296875 -23.1875 C 22.890625 -24.957031 24.925781 -25.851562 27.40625 -25.875 C 29.894531 -25.894531 31.675781 -25.210938 32.75 -23.828125 C 33.820312 -22.441406 34.359375 -20.660156 34.359375 -18.484375 C 34.359375 -16.316406 33.84375 -14.023438 32.8125 -11.609375 L 33.21875 -11.609375 C 35.1875 -11.648438 36.882812 -12.34375 38.3125 -13.6875 C 38.851562 -14.226562 39.3125 -14.695312 39.6875 -15.09375 C 40.070312 -15.5 40.46875 -15.703125 40.875 -15.703125 C 41.5 -15.703125 41.8125 -14.960938 41.8125 -13.484375 C 41.8125 -10.753906 41.003906 -8.707031 39.390625 -7.34375 C 37.785156 -5.976562 36.007812 -5.296875 34.0625 -5.296875 C 32.113281 -5.296875 30.46875 -5.429688 29.125 -5.703125 Z M 28.515625 -13.484375 C 29.273438 -15.097656 29.65625 -16.664062 29.65625 -18.1875 C 29.65625 -19.707031 29.164062 -20.46875 28.1875 -20.46875 C 27.78125 -20.46875 27.441406 -20.175781 27.171875 -19.59375 C 26.910156 -19.007812 26.78125 -18.453125 26.78125 -17.921875 C 26.78125 -16.128906 27.359375 -14.648438 28.515625 -13.484375 Z M 28.515625 -13.484375 "/></g></g><g style="fill:#60000b;fill-opacity:1;"><g transform="translate(421.628253, 151.676164)"><path style="stroke:none" d=""/></g></g><g style="fill:#60000b;fill-opacity:1;"><g transform="translate(448.467316, 151.676164)"><path style="stroke:none" d="M 27.375 -23.5625 C 23.039062 -23.5625 20.914062 -24.65625 21 -26.84375 C 21 -28.90625 23.082031 -29.9375 27.25 -29.9375 C 28.226562 -29.9375 29.164062 -29.820312 30.0625 -29.59375 C 31.539062 -31.070312 32.28125 -33.3125 32.28125 -36.3125 C 32.28125 -41.5 28.8125 -44.09375 21.875 -44.09375 C 18.25 -44.09375 14.804688 -43.304688 11.546875 -41.734375 C 10.335938 -41.160156 9.25 -40.625 8.28125 -40.125 C 7.320312 -39.632812 6.4375 -39.390625 5.625 -39.390625 C 4.820312 -39.390625 4.421875 -39.632812 4.421875 -40.125 C 4.421875 -40.707031 4.867188 -41.566406 5.765625 -42.703125 C 6.660156 -43.847656 7.914062 -45.003906 9.53125 -46.171875 C 13.644531 -49.035156 18.320312 -50.488281 23.5625 -50.53125 C 30.40625 -50.53125 35.4375 -49.164062 38.65625 -46.4375 C 41.425781 -44.15625 42.8125 -41.046875 42.8125 -37.109375 C 42.8125 -32.546875 40.578125 -29.054688 36.109375 -26.640625 C 40.398438 -24.179688 42.945312 -21.160156 43.75 -17.578125 C 44.019531 -16.328125 44.15625 -14.671875 44.15625 -12.609375 C 44.15625 -10.554688 43.59375 -8.613281 42.46875 -6.78125 C 41.351562 -4.945312 39.859375 -3.398438 37.984375 -2.140625 C 34.222656 0.265625 29.414062 1.46875 23.5625 1.46875 C 19.394531 1.46875 14.757812 0.53125 9.65625 -1.34375 C 6.257812 -2.59375 3.753906 -4.09375 2.140625 -5.84375 C 1.335938 -6.6875 0.945312 -7.53125 0.96875 -8.375 C 0.988281 -9.226562 1.410156 -9.65625 2.234375 -9.65625 C 3.066406 -9.65625 4.648438 -9.367188 6.984375 -8.796875 L 6.984375 -8.859375 C 6.984375 -12.347656 7.382812 -15.925781 8.1875 -19.59375 C 9.570312 -25.988281 11.179688 -31 13.015625 -34.625 C 14.984375 -38.65625 17.019531 -40.671875 19.125 -40.671875 C 19.707031 -40.671875 20 -39.660156 20 -37.640625 C 20 -35.628906 19.804688 -33.570312 19.421875 -31.46875 C 19.046875 -29.363281 18.644531 -27.296875 18.21875 -25.265625 C 17.789062 -23.234375 17.382812 -21.390625 17 -19.734375 C 16.625 -18.078125 16.4375 -16.890625 16.4375 -16.171875 L 15.765625 -6.046875 C 18.410156 -5.328125 20.648438 -4.96875 22.484375 -4.96875 C 24.316406 -4.96875 25.972656 -5.28125 27.453125 -5.90625 C 31.160156 -7.46875 33.015625 -10.195312 33.015625 -14.09375 C 33.015625 -16.414062 32.789062 -18.335938 32.34375 -19.859375 C 31.894531 -21.378906 31.09375 -22.722656 29.9375 -23.890625 C 28.90625 -23.671875 28.050781 -23.5625 27.375 -23.5625 Z M 27.375 -23.5625 "/></g></g><g style="fill:#60000b;fill-opacity:1;"><g transform="translate(495.972466, 151.676164)"><path style="stroke:none" d="M 43.21875 -15.84375 C 44.019531 -15.84375 44.421875 -14.8125 44.421875 -12.75 C 44.421875 -11.632812 43.953125 -10.28125 43.015625 -8.6875 C 42.078125 -7.101562 40.859375 -5.648438 39.359375 -4.328125 C 37.859375 -3.003906 36.191406 -1.914062 34.359375 -1.0625 C 32.523438 -0.21875 30.734375 0.203125 28.984375 0.203125 C 26.617188 0.203125 25.03125 -1.878906 24.21875 -6.046875 C 23.0625 -4.117188 21.539062 -2.539062 19.65625 -1.3125 C 17.78125 -0.0820312 15.265625 0.53125 12.109375 0.53125 C 8.953125 0.53125 6.410156 -0.453125 4.484375 -2.421875 C 2.566406 -4.390625 1.628906 -6.78125 1.671875 -9.59375 C 1.671875 -17.195312 4.203125 -23.191406 9.265625 -27.578125 C 11.410156 -29.410156 13.410156 -30.617188 15.265625 -31.203125 C 17.117188 -31.785156 19.070312 -32.078125 21.125 -32.078125 C 23.1875 -32.078125 24.867188 -31.71875 26.171875 -31 C 26.796875 -32.300781 27.507812 -32.953125 28.3125 -32.953125 C 29.882812 -32.953125 31.375 -32.269531 32.78125 -30.90625 C 34.1875 -29.539062 34.890625 -28.253906 34.890625 -27.046875 C 34.265625 -25.566406 33.347656 -23.800781 32.140625 -21.75 C 31.785156 -19.6875 31.609375 -16.796875 31.609375 -13.078125 C 31.609375 -9.367188 32.078125 -7.515625 33.015625 -7.515625 C 34.179688 -7.515625 37 -9.84375 41.46875 -14.5 C 42.28125 -15.394531 42.863281 -15.84375 43.21875 -15.84375 Z M 11.546875 -11.8125 C 11.546875 -8.363281 12.820312 -6.640625 15.375 -6.640625 C 18.101562 -6.679688 20.359375 -8.132812 22.140625 -11 C 22.765625 -11.988281 23.28125 -13.195312 23.6875 -14.625 C 23.6875 -19.632812 24.132812 -23.929688 25.03125 -27.515625 C 21.40625 -26.796875 18.25 -25.050781 15.5625 -22.28125 C 12.882812 -19.507812 11.546875 -16.019531 11.546875 -11.8125 Z M 11.546875 -11.8125 "/></g></g><g style="fill:#60000b;fill-opacity:1;"><g transform="translate(535.023322, 151.676164)"><path style="stroke:none" d="M 10.9375 -33.484375 C 12.550781 -33.484375 14.070312 -31.941406 15.5 -28.859375 C 17.601562 -31.046875 20.207031 -32.140625 23.3125 -32.140625 C 26.425781 -32.140625 28.765625 -31.457031 30.328125 -30.09375 C 31.898438 -28.726562 32.6875 -26.804688 32.6875 -24.328125 C 32.6875 -21.847656 32.359375 -19.332031 31.703125 -16.78125 C 31.054688 -14.226562 30.585938 -12.398438 30.296875 -11.296875 C 30.003906 -10.203125 29.859375 -9.296875 29.859375 -8.578125 C 29.859375 -7.867188 30.109375 -7.515625 30.609375 -7.515625 C 31.273438 -7.515625 32.097656 -7.9375 33.078125 -8.78125 C 34.066406 -9.632812 35.050781 -10.566406 36.03125 -11.578125 C 37.019531 -12.585938 37.925781 -13.515625 38.75 -14.359375 C 39.582031 -15.210938 40.15625 -15.640625 40.46875 -15.640625 C 41.09375 -15.640625 41.40625 -14.878906 41.40625 -13.359375 C 41.40625 -10.222656 39.863281 -7.203125 36.78125 -4.296875 C 31.582031 -1.253906 28.269531 0.265625 26.84375 0.265625 C 26.707031 0.265625 26.617188 0.242188 26.578125 0.203125 C 22.992188 0.203125 21.203125 -2.660156 21.203125 -8.390625 C 21.203125 -10.847656 21.4375 -13.101562 21.90625 -15.15625 C 22.375 -17.21875 22.71875 -18.71875 22.9375 -19.65625 C 23.164062 -20.601562 23.28125 -21.566406 23.28125 -22.546875 C 23.28125 -24.160156 22.351562 -24.96875 20.5 -24.96875 C 18.644531 -24.96875 16.878906 -23.585938 15.203125 -20.828125 C 13.523438 -18.078125 12.394531 -15.226562 11.8125 -12.28125 L 11.8125 -11.8125 C 11.8125 -10.289062 12.046875 -8.722656 12.515625 -7.109375 C 12.984375 -5.503906 13.21875 -4.390625 13.21875 -3.765625 C 13.21875 -2.234375 11.316406 -0.734375 7.515625 0.734375 C 6.929688 0.960938 6.414062 1.078125 5.96875 1.078125 C 4.851562 1.078125 4.082031 0.492188 3.65625 -0.671875 C 3.226562 -1.835938 3.015625 -3.648438 3.015625 -6.109375 C 3.015625 -12.460938 3.265625 -17.046875 3.765625 -19.859375 C 4.429688 -24.066406 5.953125 -27.984375 8.328125 -31.609375 C 9.128906 -32.859375 10 -33.484375 10.9375 -33.484375 Z M 10.9375 -33.484375 "/></g></g><g style="fill:#60000b;fill-opacity:1;"><g transform="translate(571.054744, 151.676164)"><path style="stroke:none" d="M 43.21875 -15.84375 C 44.019531 -15.84375 44.421875 -14.8125 44.421875 -12.75 C 44.421875 -11.632812 43.953125 -10.28125 43.015625 -8.6875 C 42.078125 -7.101562 40.859375 -5.648438 39.359375 -4.328125 C 37.859375 -3.003906 36.191406 -1.914062 34.359375 -1.0625 C 32.523438 -0.21875 30.734375 0.203125 28.984375 0.203125 C 26.523438 0.203125 24.914062 -1.8125 24.15625 -5.84375 C 21.46875 -1.59375 17.488281 0.53125 12.21875 0.53125 C 8.988281 0.53125 6.410156 -0.453125 4.484375 -2.421875 C 2.566406 -4.390625 1.628906 -6.78125 1.671875 -9.59375 C 1.671875 -17.195312 4.203125 -23.191406 9.265625 -27.578125 C 12.753906 -30.578125 16.375 -32.078125 20.125 -32.078125 C 21.832031 -32.078125 23.175781 -31.941406 24.15625 -31.671875 L 25.703125 -31.265625 C 27.535156 -39.898438 29.660156 -45.675781 32.078125 -48.59375 C 32.878906 -49.570312 33.6875 -50.0625 34.5 -50.0625 C 35.789062 -50.0625 37 -49.164062 38.125 -47.375 C 39.101562 -45.90625 39.59375 -44.628906 39.59375 -43.546875 C 39.59375 -42.472656 39.4375 -41.421875 39.125 -40.390625 C 38.8125 -39.367188 38.421875 -38.421875 37.953125 -37.546875 C 37.484375 -36.671875 36.957031 -35.816406 36.375 -34.984375 C 35.789062 -34.160156 35.207031 -33.328125 34.625 -32.484375 C 33.332031 -27.648438 32.375 -22.234375 31.75 -16.234375 C 31.5625 -14.535156 31.46875 -13.171875 31.46875 -12.140625 C 31.46875 -9.054688 31.984375 -7.515625 33.015625 -7.515625 C 34.179688 -7.515625 37 -9.84375 41.46875 -14.5 C 42.28125 -15.394531 42.863281 -15.84375 43.21875 -15.84375 Z M 11.546875 -11.8125 C 11.546875 -8.363281 12.820312 -6.640625 15.375 -6.640625 C 16.894531 -6.640625 18.425781 -7.222656 19.96875 -8.390625 C 21.507812 -9.554688 22.707031 -11.503906 23.5625 -14.234375 C 23.644531 -18.253906 24.113281 -22.679688 24.96875 -27.515625 C 21.382812 -26.796875 18.25 -25.050781 15.5625 -22.28125 C 12.882812 -19.507812 11.546875 -16.019531 11.546875 -11.8125 Z M 11.546875 -11.8125 "/></g></g><g style="fill:#60000b;fill-opacity:1;"><g transform="translate(610.1056, 151.676164)"><path style="stroke:none" d="M 24.359375 -22.546875 C 24.359375 -24.160156 23.40625 -24.96875 21.5 -24.96875 C 19.601562 -24.96875 17.738281 -23.5 15.90625 -20.5625 C 14.070312 -17.632812 12.929688 -14.648438 12.484375 -11.609375 C 12.566406 -10.578125 12.65625 -9.546875 12.75 -8.515625 C 12.84375 -7.492188 12.890625 -6.488281 12.890625 -5.5 C 12.890625 -3.132812 12.101562 -1.523438 10.53125 -0.671875 C 9.820312 -0.265625 9.140625 0.113281 8.484375 0.46875 C 7.835938 0.820312 7.085938 1 6.234375 1 C 5.390625 1 4.640625 0.429688 3.984375 -0.703125 C 3.335938 -1.847656 3.015625 -3.628906 3.015625 -6.046875 C 3.015625 -12.796875 3.507812 -18.65625 4.5 -23.625 C 6.019531 -31.320312 9.039062 -39.550781 13.5625 -48.3125 C 14.1875 -49.519531 15.101562 -50.113281 16.3125 -50.09375 C 17.519531 -50.070312 18.503906 -49.234375 19.265625 -47.578125 C 20.023438 -45.921875 20.390625 -44.53125 20.359375 -43.40625 C 20.335938 -42.289062 20.160156 -41.207031 19.828125 -40.15625 C 19.492188 -39.113281 19.066406 -38.085938 18.546875 -37.078125 C 18.035156 -36.066406 17.457031 -35.035156 16.8125 -33.984375 C 16.164062 -32.929688 15.523438 -31.804688 14.890625 -30.609375 L 13.890625 -25.765625 C 15.640625 -28.671875 17.988281 -30.617188 20.9375 -31.609375 C 22.007812 -31.960938 23.195312 -32.140625 24.5 -32.140625 C 27.539062 -32.140625 29.84375 -31.457031 31.40625 -30.09375 C 32.96875 -28.726562 33.75 -26.804688 33.75 -24.328125 C 33.75 -21.847656 33.425781 -19.332031 32.78125 -16.78125 C 32.132812 -14.226562 31.664062 -12.398438 31.375 -11.296875 C 31.082031 -10.203125 30.9375 -9.296875 30.9375 -8.578125 C 30.9375 -7.867188 31.179688 -7.515625 31.671875 -7.515625 C 32.347656 -7.515625 33.175781 -7.9375 34.15625 -8.78125 C 35.144531 -9.632812 36.128906 -10.566406 37.109375 -11.578125 C 38.097656 -12.585938 39.003906 -13.515625 39.828125 -14.359375 C 40.660156 -15.210938 41.234375 -15.640625 41.546875 -15.640625 C 42.171875 -15.640625 42.484375 -14.878906 42.484375 -13.359375 C 42.484375 -10.222656 40.9375 -7.203125 37.84375 -4.296875 C 32.65625 -1.253906 29.347656 0.265625 27.921875 0.265625 C 27.785156 0.265625 27.695312 0.242188 27.65625 0.203125 C 24.070312 0.203125 22.28125 -2.660156 22.28125 -8.390625 C 22.28125 -10.847656 22.515625 -13.101562 22.984375 -15.15625 C 23.453125 -17.21875 23.796875 -18.71875 24.015625 -19.65625 C 24.242188 -20.601562 24.359375 -21.566406 24.359375 -22.546875 Z M 24.359375 -22.546875 "/></g></g><g style="fill:#60000b;fill-opacity:1;"><g transform="translate(647.210628, 151.676164)"><path style="stroke:none" d="M 43.21875 -15.84375 C 44.019531 -15.84375 44.421875 -14.8125 44.421875 -12.75 C 44.421875 -11.632812 43.953125 -10.28125 43.015625 -8.6875 C 42.078125 -7.101562 40.859375 -5.648438 39.359375 -4.328125 C 37.859375 -3.003906 36.191406 -1.914062 34.359375 -1.0625 C 32.523438 -0.21875 30.734375 0.203125 28.984375 0.203125 C 26.617188 0.203125 25.03125 -1.878906 24.21875 -6.046875 C 23.0625 -4.117188 21.539062 -2.539062 19.65625 -1.3125 C 17.78125 -0.0820312 15.265625 0.53125 12.109375 0.53125 C 8.953125 0.53125 6.410156 -0.453125 4.484375 -2.421875 C 2.566406 -4.390625 1.628906 -6.78125 1.671875 -9.59375 C 1.671875 -17.195312 4.203125 -23.191406 9.265625 -27.578125 C 11.410156 -29.410156 13.410156 -30.617188 15.265625 -31.203125 C 17.117188 -31.785156 19.070312 -32.078125 21.125 -32.078125 C 23.1875 -32.078125 24.867188 -31.71875 26.171875 -31 C 26.796875 -32.300781 27.507812 -32.953125 28.3125 -32.953125 C 29.882812 -32.953125 31.375 -32.269531 32.78125 -30.90625 C 34.1875 -29.539062 34.890625 -28.253906 34.890625 -27.046875 C 34.265625 -25.566406 33.347656 -23.800781 32.140625 -21.75 C 31.785156 -19.6875 31.609375 -16.796875 31.609375 -13.078125 C 31.609375 -9.367188 32.078125 -7.515625 33.015625 -7.515625 C 34.179688 -7.515625 37 -9.84375 41.46875 -14.5 C 42.28125 -15.394531 42.863281 -15.84375 43.21875 -15.84375 Z M 11.546875 -11.8125 C 11.546875 -8.363281 12.820312 -6.640625 15.375 -6.640625 C 18.101562 -6.679688 20.359375 -8.132812 22.140625 -11 C 22.765625 -11.988281 23.28125 -13.195312 23.6875 -14.625 C 23.6875 -19.632812 24.132812 -23.929688 25.03125 -27.515625 C 21.40625 -26.796875 18.25 -25.050781 15.5625 -22.28125 C 12.882812 -19.507812 11.546875 -16.019531 11.546875 -11.8125 Z M 11.546875 -11.8125 "/></g></g><g style="fill:#60000b;fill-opacity:1;"><g transform="translate(686.261434, 151.676164)"><path style="stroke:none" d="M 10.9375 -33.484375 C 12.550781 -33.484375 14.070312 -31.941406 15.5 -28.859375 C 17.601562 -31.046875 20.207031 -32.140625 23.3125 -32.140625 C 26.425781 -32.140625 28.765625 -31.457031 30.328125 -30.09375 C 31.898438 -28.726562 32.6875 -26.804688 32.6875 -24.328125 C 32.6875 -21.847656 32.359375 -19.332031 31.703125 -16.78125 C 31.054688 -14.226562 30.585938 -12.398438 30.296875 -11.296875 C 30.003906 -10.203125 29.859375 -9.296875 29.859375 -8.578125 C 29.859375 -7.867188 30.109375 -7.515625 30.609375 -7.515625 C 31.273438 -7.515625 32.097656 -7.9375 33.078125 -8.78125 C 34.066406 -9.632812 35.050781 -10.566406 36.03125 -11.578125 C 37.019531 -12.585938 37.925781 -13.515625 38.75 -14.359375 C 39.582031 -15.210938 40.15625 -15.640625 40.46875 -15.640625 C 41.09375 -15.640625 41.40625 -14.878906 41.40625 -13.359375 C 41.40625 -10.222656 39.863281 -7.203125 36.78125 -4.296875 C 31.582031 -1.253906 28.269531 0.265625 26.84375 0.265625 C 26.707031 0.265625 26.617188 0.242188 26.578125 0.203125 C 22.992188 0.203125 21.203125 -2.660156 21.203125 -8.390625 C 21.203125 -10.847656 21.4375 -13.101562 21.90625 -15.15625 C 22.375 -17.21875 22.71875 -18.71875 22.9375 -19.65625 C 23.164062 -20.601562 23.28125 -21.566406 23.28125 -22.546875 C 23.28125 -24.160156 22.351562 -24.96875 20.5 -24.96875 C 18.644531 -24.96875 16.878906 -23.585938 15.203125 -20.828125 C 13.523438 -18.078125 12.394531 -15.226562 11.8125 -12.28125 L 11.8125 -11.8125 C 11.8125 -10.289062 12.046875 -8.722656 12.515625 -7.109375 C 12.984375 -5.503906 13.21875 -4.390625 13.21875 -3.765625 C 13.21875 -2.234375 11.316406 -0.734375 7.515625 0.734375 C 6.929688 0.960938 6.414062 1.078125 5.96875 1.078125 C 4.851562 1.078125 4.082031 0.492188 3.65625 -0.671875 C 3.226562 -1.835938 3.015625 -3.648438 3.015625 -6.109375 C 3.015625 -12.460938 3.265625 -17.046875 3.765625 -19.859375 C 4.429688 -24.066406 5.953125 -27.984375 8.328125 -31.609375 C 9.128906 -32.859375 10 -33.484375 10.9375 -33.484375 Z M 10.9375 -33.484375 "/></g></g><g style="fill:#ffffff;fill-opacity:1;"><g transform="translate(376.720883, 84.058035)"><path style="stroke:none" d="M 12.4375 -10.6875 C 10.457031 -10.6875 9.488281 -11.1875 9.53125 -12.1875 C 9.53125 -13.125 10.476562 -13.59375 12.375 -13.59375 C 12.820312 -13.59375 13.25 -13.539062 13.65625 -13.4375 C 14.320312 -14.101562 14.65625 -15.117188 14.65625 -16.484375 C 14.65625 -18.835938 13.082031 -20.015625 9.9375 -20.015625 C 8.289062 -20.015625 6.722656 -19.660156 5.234375 -18.953125 C 4.691406 -18.691406 4.203125 -18.445312 3.765625 -18.21875 C 3.328125 -18 2.925781 -17.890625 2.5625 -17.890625 C 2.195312 -17.890625 2.015625 -18 2.015625 -18.21875 C 2.015625 -18.476562 2.21875 -18.867188 2.625 -19.390625 C 3.03125 -19.910156 3.597656 -20.4375 4.328125 -20.96875 C 6.191406 -22.257812 8.3125 -22.914062 10.6875 -22.9375 C 13.800781 -22.9375 16.085938 -22.316406 17.546875 -21.078125 C 18.804688 -20.046875 19.4375 -18.632812 19.4375 -16.84375 C 19.4375 -14.769531 18.421875 -13.1875 16.390625 -12.09375 C 18.335938 -10.976562 19.492188 -9.609375 19.859375 -7.984375 C 19.984375 -7.410156 20.046875 -6.65625 20.046875 -5.71875 C 20.046875 -4.789062 19.789062 -3.910156 19.28125 -3.078125 C 18.78125 -2.242188 18.101562 -1.539062 17.25 -0.96875 C 15.539062 0.125 13.351562 0.671875 10.6875 0.671875 C 8.800781 0.671875 6.703125 0.242188 4.390625 -0.609375 C 2.847656 -1.179688 1.707031 -1.863281 0.96875 -2.65625 C 0.601562 -3.039062 0.425781 -3.425781 0.4375 -3.8125 C 0.445312 -4.195312 0.640625 -4.390625 1.015625 -4.390625 C 1.390625 -4.390625 2.109375 -4.253906 3.171875 -3.984375 L 3.171875 -4.015625 C 3.171875 -5.597656 3.351562 -7.222656 3.71875 -8.890625 C 4.34375 -11.796875 5.070312 -14.070312 5.90625 -15.71875 C 6.800781 -17.550781 7.726562 -18.46875 8.6875 -18.46875 C 8.945312 -18.46875 9.078125 -18.007812 9.078125 -17.09375 C 9.078125 -16.175781 8.988281 -15.238281 8.8125 -14.28125 C 8.644531 -13.332031 8.460938 -12.394531 8.265625 -11.46875 C 8.078125 -10.539062 7.894531 -9.703125 7.71875 -8.953125 C 7.550781 -8.203125 7.46875 -7.664062 7.46875 -7.34375 L 7.15625 -2.734375 C 8.351562 -2.410156 9.367188 -2.25 10.203125 -2.25 C 11.035156 -2.25 11.789062 -2.394531 12.46875 -2.6875 C 14.144531 -3.394531 14.984375 -4.628906 14.984375 -6.390625 C 14.984375 -7.453125 14.878906 -8.328125 14.671875 -9.015625 C 14.472656 -9.703125 14.113281 -10.3125 13.59375 -10.84375 C 13.125 -10.738281 12.738281 -10.6875 12.4375 -10.6875 Z M 12.4375 -10.6875 "/></g></g><g style="fill:#ffffff;fill-opacity:1;"><g transform="translate(398.295034, 84.058035)"><path style="stroke:none" d="M 19.625 -7.1875 C 19.988281 -7.1875 20.171875 -6.71875 20.171875 -5.78125 C 20.171875 -5.28125 19.957031 -4.664062 19.53125 -3.9375 C 19.101562 -3.21875 18.546875 -2.554688 17.859375 -1.953125 C 17.179688 -1.359375 16.425781 -0.867188 15.59375 -0.484375 C 14.757812 -0.0976562 13.945312 0.09375 13.15625 0.09375 C 12.082031 0.09375 11.363281 -0.847656 11 -2.734375 C 10.46875 -1.867188 9.773438 -1.15625 8.921875 -0.59375 C 8.066406 -0.03125 6.921875 0.25 5.484375 0.25 C 4.054688 0.25 2.90625 -0.195312 2.03125 -1.09375 C 1.164062 -1.988281 0.742188 -3.078125 0.765625 -4.359375 C 0.765625 -7.804688 1.910156 -10.523438 4.203125 -12.515625 C 5.179688 -13.347656 6.09375 -13.894531 6.9375 -14.15625 C 7.78125 -14.425781 8.664062 -14.5625 9.59375 -14.5625 C 10.53125 -14.5625 11.289062 -14.398438 11.875 -14.078125 C 12.164062 -14.660156 12.492188 -14.953125 12.859375 -14.953125 C 13.566406 -14.953125 14.238281 -14.640625 14.875 -14.015625 C 15.519531 -13.398438 15.84375 -12.820312 15.84375 -12.28125 C 15.5625 -11.601562 15.144531 -10.800781 14.59375 -9.875 C 14.425781 -8.9375 14.34375 -7.625 14.34375 -5.9375 C 14.34375 -4.25 14.554688 -3.40625 14.984375 -3.40625 C 15.515625 -3.40625 16.796875 -4.460938 18.828125 -6.578125 C 19.191406 -6.984375 19.457031 -7.1875 19.625 -7.1875 Z M 5.234375 -5.359375 C 5.234375 -3.796875 5.816406 -3.015625 6.984375 -3.015625 C 8.210938 -3.035156 9.234375 -3.695312 10.046875 -5 C 10.335938 -5.445312 10.570312 -5.992188 10.75 -6.640625 C 10.75 -8.910156 10.953125 -10.859375 11.359375 -12.484375 C 9.710938 -12.160156 8.28125 -11.367188 7.0625 -10.109375 C 5.84375 -8.847656 5.234375 -7.265625 5.234375 -5.359375 Z M 5.234375 -5.359375 "/></g></g><g style="fill:#ffffff;fill-opacity:1;"><g transform="translate(416.029718, 84.058035)"><path style="stroke:none" d="M 4.96875 -15.203125 C 5.695312 -15.203125 6.382812 -14.5 7.03125 -13.09375 C 7.988281 -14.09375 9.171875 -14.59375 10.578125 -14.59375 C 11.992188 -14.59375 13.054688 -14.28125 13.765625 -13.65625 C 14.484375 -13.039062 14.84375 -12.171875 14.84375 -11.046875 C 14.84375 -9.921875 14.691406 -8.773438 14.390625 -7.609375 C 14.097656 -6.453125 13.882812 -5.625 13.75 -5.125 C 13.625 -4.632812 13.5625 -4.222656 13.5625 -3.890625 C 13.5625 -3.566406 13.671875 -3.40625 13.890625 -3.40625 C 14.191406 -3.40625 14.566406 -3.597656 15.015625 -3.984375 C 15.460938 -4.367188 15.910156 -4.789062 16.359375 -5.25 C 16.804688 -5.707031 17.21875 -6.128906 17.59375 -6.515625 C 17.96875 -6.898438 18.226562 -7.09375 18.375 -7.09375 C 18.65625 -7.09375 18.796875 -6.75 18.796875 -6.0625 C 18.796875 -4.644531 18.097656 -3.273438 16.703125 -1.953125 C 14.335938 -0.566406 12.832031 0.125 12.1875 0.125 C 12.125 0.125 12.082031 0.113281 12.0625 0.09375 C 10.4375 0.09375 9.625 -1.207031 9.625 -3.8125 C 9.625 -4.925781 9.726562 -5.945312 9.9375 -6.875 C 10.15625 -7.8125 10.316406 -8.492188 10.421875 -8.921875 C 10.523438 -9.347656 10.578125 -9.785156 10.578125 -10.234375 C 10.578125 -10.960938 10.15625 -11.328125 9.3125 -11.328125 C 8.46875 -11.328125 7.664062 -10.703125 6.90625 -9.453125 C 6.144531 -8.210938 5.628906 -6.921875 5.359375 -5.578125 L 5.359375 -5.359375 C 5.359375 -4.671875 5.460938 -3.957031 5.671875 -3.21875 C 5.890625 -2.488281 6 -1.984375 6 -1.703125 C 6 -1.015625 5.132812 -0.335938 3.40625 0.328125 C 3.144531 0.429688 2.914062 0.484375 2.71875 0.484375 C 2.207031 0.484375 1.851562 0.222656 1.65625 -0.296875 C 1.46875 -0.828125 1.375 -1.648438 1.375 -2.765625 C 1.375 -5.648438 1.484375 -7.734375 1.703125 -9.015625 C 2.003906 -10.921875 2.695312 -12.695312 3.78125 -14.34375 C 4.144531 -14.914062 4.539062 -15.203125 4.96875 -15.203125 Z M 4.96875 -15.203125 "/></g></g><g style="fill:#ffffff;fill-opacity:1;"><g transform="translate(432.393162, 84.058035)"><path style="stroke:none" d="M 12.578125 -13.859375 C 12.867188 -14.753906 13.328125 -15.203125 13.953125 -15.203125 C 14.523438 -15.179688 15.0625 -14.78125 15.5625 -14 C 16.070312 -13.21875 16.328125 -12.613281 16.328125 -12.1875 C 16.285156 -11.351562 16.03125 -10.023438 15.5625 -8.203125 C 15.101562 -6.390625 14.445312 -4.03125 13.59375 -1.125 C 14.925781 -2.164062 16.242188 -3.515625 17.546875 -5.171875 C 17.992188 -5.742188 18.375 -6.207031 18.6875 -6.5625 C 19.007812 -6.914062 19.269531 -7.09375 19.46875 -7.09375 C 19.75 -7.09375 19.890625 -6.769531 19.890625 -6.125 C 19.890625 -4.84375 19.171875 -3.347656 17.734375 -1.640625 C 16.304688 0.0546875 14.554688 1.382812 12.484375 2.34375 C 12.242188 3.15625 11.976562 3.925781 11.6875 4.65625 C 11.40625 5.394531 11.046875 6.035156 10.609375 6.578125 C 9.628906 7.753906 8.144531 8.34375 6.15625 8.34375 C 4.8125 8.34375 3.664062 7.957031 2.71875 7.1875 C 1.78125 6.414062 1.3125 5.453125 1.3125 4.296875 C 1.3125 3.660156 1.519531 3.160156 1.9375 2.796875 C 2.351562 2.429688 2.925781 2.132812 3.65625 1.90625 C 4.382812 1.6875 5.238281 1.492188 6.21875 1.328125 C 7.207031 1.171875 8.265625 0.972656 9.390625 0.734375 C 9.484375 0.390625 9.566406 0.0507812 9.640625 -0.28125 C 9.710938 -0.625 9.789062 -0.96875 9.875 -1.3125 C 8.757812 -0.269531 7.390625 0.25 5.765625 0.25 C 4.148438 0.25 2.90625 -0.195312 2.03125 -1.09375 C 1.164062 -1.988281 0.742188 -3.078125 0.765625 -4.359375 C 0.765625 -7.804688 1.910156 -10.523438 4.203125 -12.515625 C 5.785156 -13.878906 7.429688 -14.5625 9.140625 -14.5625 C 9.734375 -14.5625 10.367188 -14.488281 11.046875 -14.34375 C 11.722656 -14.207031 12.234375 -14.046875 12.578125 -13.859375 Z M 5.234375 -5.359375 C 5.234375 -3.796875 5.816406 -3.015625 6.984375 -3.015625 C 7.628906 -3.015625 8.285156 -3.257812 8.953125 -3.75 C 9.628906 -4.238281 10.171875 -5.03125 10.578125 -6.125 C 10.878906 -7.539062 11.195312 -8.847656 11.53125 -10.046875 C 11.863281 -11.253906 12.09375 -12.085938 12.21875 -12.546875 C 10.507812 -12.328125 8.914062 -11.566406 7.4375 -10.265625 C 5.96875 -8.960938 5.234375 -7.328125 5.234375 -5.359375 Z M 8.4375 3.53125 C 7.707031 3.675781 7.066406 3.785156 6.515625 3.859375 C 5.972656 3.941406 5.519531 4.015625 5.15625 4.078125 C 4.800781 4.140625 4.535156 4.210938 4.359375 4.296875 C 4.191406 4.378906 4.109375 4.507812 4.109375 4.6875 C 4.109375 5.050781 4.335938 5.363281 4.796875 5.625 C 5.253906 5.894531 5.707031 6.019531 6.15625 6 C 6.925781 6 7.6875 5.175781 8.4375 3.53125 Z M 8.4375 3.53125 "/></g></g><g style="fill:#ffffff;fill-opacity:1;"><g transform="translate(449.853597, 84.058035)"><path style="stroke:none" d="M 19.625 -7.1875 C 19.988281 -7.1875 20.171875 -6.71875 20.171875 -5.78125 C 20.171875 -5.28125 19.957031 -4.664062 19.53125 -3.9375 C 19.101562 -3.21875 18.546875 -2.554688 17.859375 -1.953125 C 17.179688 -1.359375 16.425781 -0.867188 15.59375 -0.484375 C 14.757812 -0.0976562 13.945312 0.09375 13.15625 0.09375 C 12.082031 0.09375 11.363281 -0.847656 11 -2.734375 C 10.46875 -1.867188 9.773438 -1.15625 8.921875 -0.59375 C 8.066406 -0.03125 6.921875 0.25 5.484375 0.25 C 4.054688 0.25 2.90625 -0.195312 2.03125 -1.09375 C 1.164062 -1.988281 0.742188 -3.078125 0.765625 -4.359375 C 0.765625 -7.804688 1.910156 -10.523438 4.203125 -12.515625 C 5.179688 -13.347656 6.09375 -13.894531 6.9375 -14.15625 C 7.78125 -14.425781 8.664062 -14.5625 9.59375 -14.5625 C 10.53125 -14.5625 11.289062 -14.398438 11.875 -14.078125 C 12.164062 -14.660156 12.492188 -14.953125 12.859375 -14.953125 C 13.566406 -14.953125 14.238281 -14.640625 14.875 -14.015625 C 15.519531 -13.398438 15.84375 -12.820312 15.84375 -12.28125 C 15.5625 -11.601562 15.144531 -10.800781 14.59375 -9.875 C 14.425781 -8.9375 14.34375 -7.625 14.34375 -5.9375 C 14.34375 -4.25 14.554688 -3.40625 14.984375 -3.40625 C 15.515625 -3.40625 16.796875 -4.460938 18.828125 -6.578125 C 19.191406 -6.984375 19.457031 -7.1875 19.625 -7.1875 Z M 5.234375 -5.359375 C 5.234375 -3.796875 5.816406 -3.015625 6.984375 -3.015625 C 8.210938 -3.035156 9.234375 -3.695312 10.046875 -5 C 10.335938 -5.445312 10.570312 -5.992188 10.75 -6.640625 C 10.75 -8.910156 10.953125 -10.859375 11.359375 -12.484375 C 9.710938 -12.160156 8.28125 -11.367188 7.0625 -10.109375 C 5.84375 -8.847656 5.234375 -7.265625 5.234375 -5.359375 Z M 5.234375 -5.359375 "/></g></g><g style="fill:#ffffff;fill-opacity:1;"><g transform="translate(467.58828, 84.058035)"><path style="stroke:none" d="M 7.703125 0.09375 C 4.796875 0.113281 2.816406 -0.972656 1.765625 -3.171875 C 1.398438 -3.941406 1.21875 -4.910156 1.21875 -6.078125 C 1.21875 -7.242188 1.316406 -8.488281 1.515625 -9.8125 C 1.921875 -12.445312 2.707031 -14.882812 3.875 -17.125 C 4.457031 -18.257812 5.113281 -19.234375 5.84375 -20.046875 C 7.445312 -21.835938 9.238281 -22.722656 11.21875 -22.703125 C 12.082031 -22.703125 12.765625 -22.460938 13.265625 -21.984375 C 13.765625 -21.503906 14.015625 -20.816406 14.015625 -19.921875 C 14.015625 -19.023438 13.75 -18.125 13.21875 -17.21875 C 12.695312 -16.320312 12.023438 -15.390625 11.203125 -14.421875 C 10.378906 -13.460938 9.46875 -12.453125 8.46875 -11.390625 C 7.476562 -10.335938 6.503906 -9.191406 5.546875 -7.953125 L 5.546875 -6.734375 C 5.546875 -5.597656 5.785156 -4.765625 6.265625 -4.234375 C 6.753906 -3.703125 7.328125 -3.4375 7.984375 -3.4375 C 9.734375 -3.4375 11.273438 -4.300781 12.609375 -6.03125 C 13.160156 -6.738281 13.578125 -7.09375 13.859375 -7.09375 C 14.148438 -7.09375 14.296875 -6.75 14.296875 -6.0625 C 14.296875 -5.375 14.101562 -4.664062 13.71875 -3.9375 C 13.34375 -3.21875 12.847656 -2.554688 12.234375 -1.953125 C 11.628906 -1.359375 10.929688 -0.867188 10.140625 -0.484375 C 9.347656 -0.0976562 8.535156 0.09375 7.703125 0.09375 Z M 9.359375 -16.265625 C 9.785156 -16.796875 10.117188 -17.273438 10.359375 -17.703125 C 10.597656 -18.128906 10.71875 -18.570312 10.71875 -19.03125 C 10.71875 -19.488281 10.554688 -19.71875 10.234375 -19.71875 C 9.523438 -19.71875 8.738281 -18.984375 7.875 -17.515625 C 7.007812 -16.054688 6.363281 -14.140625 5.9375 -11.765625 C 6.632812 -12.816406 7.269531 -13.695312 7.84375 -14.40625 C 8.425781 -15.125 8.929688 -15.742188 9.359375 -16.265625 Z M 9.359375 -16.265625 "/></g></g><g style="fill:#ffffff;fill-opacity:1;"><g transform="translate(479.167634, 84.058035)"><path style="stroke:none" d="M 4.5625 0.09375 C 2.53125 0.09375 1.515625 -1.804688 1.515625 -5.609375 C 1.515625 -7.679688 1.769531 -9.5625 2.28125 -11.25 C 3.070312 -13.84375 3.96875 -15.140625 4.96875 -15.140625 C 5.550781 -15.140625 6.019531 -14.742188 6.375 -13.953125 C 6.65625 -13.347656 6.785156 -12.75 6.765625 -12.15625 C 6.765625 -11.34375 6.519531 -9.910156 6.03125 -7.859375 C 5.5625 -6.066406 5.328125 -4.957031 5.328125 -4.53125 C 5.328125 -4.113281 5.429688 -3.820312 5.640625 -3.65625 C 5.859375 -3.488281 6.113281 -3.40625 6.40625 -3.40625 C 6.707031 -3.40625 7.082031 -3.597656 7.53125 -3.984375 C 7.976562 -4.367188 8.421875 -4.789062 8.859375 -5.25 C 9.304688 -5.707031 9.71875 -6.128906 10.09375 -6.515625 C 10.46875 -6.898438 10.726562 -7.09375 10.875 -7.09375 C 11.15625 -7.09375 11.296875 -6.75 11.296875 -6.0625 C 11.296875 -4.644531 10.578125 -3.257812 9.140625 -1.90625 C 7.710938 -0.550781 6.1875 0.113281 4.5625 0.09375 Z M 5.8125 -17.609375 C 5.269531 -18.421875 5 -19.289062 5 -20.21875 C 5 -21.15625 5.144531 -21.929688 5.4375 -22.546875 C 5.726562 -23.171875 6.003906 -23.628906 6.265625 -23.921875 C 6.535156 -24.222656 6.84375 -24.375 7.1875 -24.375 C 7.757812 -24.375 8.273438 -23.953125 8.734375 -23.109375 C 9.203125 -22.265625 9.4375 -21.5625 9.4375 -21 C 9.4375 -19.9375 9.066406 -19.101562 8.328125 -18.5 C 7.585938 -17.90625 6.75 -17.609375 5.8125 -17.609375 Z M 5.8125 -17.609375 "/></g></g><g style="fill:#ffffff;fill-opacity:1;"><g transform="translate(488.040569, 84.058035)"><path style="stroke:none" d=""/></g></g></g></svg>