<svg xmlns="http://www.w3.org/2000/svg" xmlns:xlink="http://www.w3.org/1999/xlink" width="1000" zoomAndPan="magnify" viewBox="0 0 750 225" height="300" preserveAspectRatio="xMidYMid meet" version="1.2"><defs><clipPath id="7f6e5f0bcd"><path d="M 366.164062 53.679688 L 507.867188 53.679688 L 507.867188 100.851562 L 366.164062 100.851562 Z M 366.164062 53.679688 "/></clipPath><clipPath id="c24349f8e2"><path d="M 389.75 53.679688 L 484.101562 53.679688 C 490.355469 53.679688 496.355469 56.164062 500.78125 60.585938 C 505.203125 65.011719 507.6875 71.007812 507.6875 77.265625 C 507.6875 83.519531 505.203125 89.519531 500.78125 93.941406 C 496.355469 98.367188 490.355469 100.851562 484.101562 100.851562 L 389.75 100.851562 C 383.496094 100.851562 377.496094 98.367188 373.074219 93.941406 C 368.652344 89.519531 366.164062 83.519531 366.164062 77.265625 C 366.164062 71.007812 368.652344 65.011719 373.074219 60.585938 C 377.496094 56.164062 383.496094 53.679688 389.75 53.679688 Z M 389.75 53.679688 "/></clipPath><clipPath id="ebd07c4cb0"><path d="M 357 73 L 401 73 L 401 122 L 357 122 Z M 357 73 "/></clipPath><clipPath id="a2863eec87"><path d="M 368.980469 73.644531 L 400.832031 97.171875 L 373.90625 133.625 L 342.054688 110.097656 Z M 368.980469 73.644531 "/></clipPath><clipPath id="6672bff9c2"><path d="M 357.988281 121.851562 L 400.832031 97.171875 L 368.980469 73.644531 Z M 357.988281 121.851562 "/></clipPath></defs><g id="8c92925b9a"><path style=" stroke:none;fill-rule:nonzero;fill:#ffa146;fill-opacity:1;" d="M 105.738281 45.6875 C 105.738281 46.375 105.703125 47.058594 105.636719 47.742188 C 105.570312 48.425781 105.46875 49.101562 105.335938 49.777344 C 105.203125 50.449219 105.035156 51.113281 104.835938 51.769531 C 104.636719 52.425781 104.40625 53.070312 104.144531 53.707031 C 103.878906 54.339844 103.585938 54.957031 103.265625 55.5625 C 102.941406 56.167969 102.589844 56.757812 102.207031 57.328125 C 101.824219 57.898438 101.417969 58.449219 100.984375 58.976562 C 100.546875 59.507812 100.085938 60.015625 99.601562 60.5 C 99.117188 60.988281 98.609375 61.445312 98.078125 61.882812 C 97.546875 62.316406 96.996094 62.726562 96.425781 63.105469 C 95.855469 63.488281 95.269531 63.839844 94.664062 64.164062 C 94.058594 64.488281 93.4375 64.78125 92.804688 65.042969 C 92.171875 65.304688 91.527344 65.535156 90.871094 65.734375 C 90.214844 65.933594 89.546875 66.101562 88.875 66.234375 C 88.203125 66.367188 87.523438 66.46875 86.84375 66.535156 C 86.160156 66.605469 85.476562 66.636719 84.789062 66.636719 C 84.101562 66.636719 83.417969 66.605469 82.734375 66.535156 C 82.050781 66.46875 81.375 66.367188 80.703125 66.234375 C 80.027344 66.101562 79.363281 65.933594 78.707031 65.734375 C 78.050781 65.535156 77.40625 65.304688 76.773438 65.042969 C 76.136719 64.78125 75.519531 64.488281 74.914062 64.164062 C 74.308594 63.839844 73.71875 63.488281 73.148438 63.105469 C 72.578125 62.726562 72.027344 62.316406 71.5 61.882812 C 70.96875 61.445312 70.460938 60.988281 69.976562 60.5 C 69.492188 60.015625 69.03125 59.507812 68.59375 58.976562 C 68.160156 58.449219 67.75 57.898438 67.371094 57.328125 C 66.988281 56.757812 66.636719 56.167969 66.3125 55.5625 C 65.988281 54.957031 65.695312 54.339844 65.433594 53.707031 C 65.171875 53.070312 64.941406 52.425781 64.742188 51.769531 C 64.542969 51.113281 64.375 50.449219 64.242188 49.777344 C 64.109375 49.101562 64.007812 48.425781 63.941406 47.742188 C 63.875 47.058594 63.839844 46.375 63.839844 45.6875 C 63.839844 45.003906 63.875 44.316406 63.941406 43.636719 C 64.007812 42.953125 64.109375 42.273438 64.242188 41.601562 C 64.375 40.929688 64.542969 40.265625 64.742188 39.605469 C 64.941406 38.949219 65.171875 38.304688 65.433594 37.671875 C 65.695312 37.039062 65.988281 36.417969 66.3125 35.8125 C 66.636719 35.207031 66.988281 34.621094 67.371094 34.050781 C 67.75 33.480469 68.160156 32.929688 68.59375 32.398438 C 69.03125 31.867188 69.492188 31.359375 69.976562 30.875 C 70.460938 30.390625 70.96875 29.929688 71.5 29.496094 C 72.027344 29.058594 72.578125 28.652344 73.148438 28.269531 C 73.71875 27.890625 74.308594 27.535156 74.914062 27.214844 C 75.519531 26.890625 76.136719 26.597656 76.773438 26.335938 C 77.40625 26.070312 78.050781 25.839844 78.707031 25.640625 C 79.363281 25.441406 80.027344 25.277344 80.703125 25.140625 C 81.375 25.007812 82.050781 24.90625 82.734375 24.839844 C 83.417969 24.773438 84.101562 24.738281 84.789062 24.738281 C 85.476562 24.738281 86.160156 24.773438 86.84375 24.839844 C 87.523438 24.90625 88.203125 25.007812 88.875 25.140625 C 89.546875 25.277344 90.214844 25.441406 90.871094 25.640625 C 91.527344 25.839844 92.171875 26.070312 92.804688 26.335938 C 93.4375 26.597656 94.058594 26.890625 94.664062 27.214844 C 95.269531 27.535156 95.855469 27.890625 96.425781 28.269531 C 96.996094 28.652344 97.546875 29.058594 98.078125 29.496094 C 98.609375 29.929688 99.117188 30.390625 99.601562 30.875 C 100.085938 31.359375 100.546875 31.867188 100.984375 32.398438 C 101.417969 32.929688 101.824219 33.480469 102.207031 34.050781 C 102.589844 34.621094 102.941406 35.207031 103.265625 35.8125 C 103.585938 36.417969 103.878906 37.039062 104.144531 37.671875 C 104.40625 38.304688 104.636719 38.949219 104.835938 39.605469 C 105.035156 40.265625 105.203125 40.929688 105.335938 41.601562 C 105.46875 42.273438 105.570312 42.953125 105.636719 43.636719 C 105.703125 44.316406 105.738281 45.003906 105.738281 45.6875 Z M 105.738281 45.6875 "/><path style=" stroke:none;fill-rule:nonzero;fill:#ffa146;fill-opacity:1;" d="M 163.15625 61.207031 C 163.15625 61.878906 163.125 62.550781 163.058594 63.222656 C 162.992188 63.890625 162.894531 64.558594 162.761719 65.21875 C 162.632812 65.878906 162.46875 66.53125 162.273438 67.175781 C 162.078125 67.820312 161.851562 68.453125 161.59375 69.074219 C 161.335938 69.699219 161.046875 70.304688 160.730469 70.898438 C 160.414062 71.492188 160.066406 72.070312 159.691406 72.628906 C 159.316406 73.191406 158.917969 73.730469 158.492188 74.25 C 158.0625 74.773438 157.609375 75.269531 157.136719 75.746094 C 156.660156 76.222656 156.160156 76.675781 155.640625 77.101562 C 155.121094 77.527344 154.578125 77.929688 154.019531 78.304688 C 153.460938 78.679688 152.882812 79.023438 152.289062 79.339844 C 151.695312 79.660156 151.085938 79.945312 150.464844 80.203125 C 149.84375 80.460938 149.207031 80.6875 148.5625 80.882812 C 147.917969 81.078125 147.265625 81.242188 146.605469 81.375 C 145.945312 81.503906 145.28125 81.605469 144.609375 81.671875 C 143.941406 81.738281 143.269531 81.769531 142.59375 81.769531 C 141.921875 81.769531 141.25 81.738281 140.578125 81.671875 C 139.910156 81.605469 139.242188 81.503906 138.582031 81.375 C 137.921875 81.242188 137.269531 81.078125 136.625 80.882812 C 135.980469 80.6875 135.347656 80.460938 134.726562 80.203125 C 134.105469 79.945312 133.496094 79.660156 132.902344 79.339844 C 132.308594 79.023438 131.730469 78.679688 131.171875 78.304688 C 130.609375 77.929688 130.070312 77.527344 129.550781 77.101562 C 129.03125 76.675781 128.53125 76.222656 128.054688 75.746094 C 127.578125 75.269531 127.128906 74.773438 126.699219 74.25 C 126.273438 73.730469 125.871094 73.191406 125.496094 72.628906 C 125.125 72.070312 124.777344 71.492188 124.460938 70.898438 C 124.144531 70.304688 123.855469 69.699219 123.597656 69.074219 C 123.339844 68.453125 123.113281 67.820312 122.917969 67.175781 C 122.722656 66.53125 122.558594 65.878906 122.425781 65.21875 C 122.296875 64.558594 122.195312 63.890625 122.132812 63.222656 C 122.066406 62.550781 122.03125 61.878906 122.03125 61.207031 C 122.03125 60.535156 122.066406 59.863281 122.132812 59.191406 C 122.195312 58.519531 122.296875 57.855469 122.425781 57.195312 C 122.558594 56.535156 122.722656 55.882812 122.917969 55.238281 C 123.113281 54.59375 123.339844 53.960938 123.597656 53.335938 C 123.855469 52.714844 124.144531 52.105469 124.460938 51.511719 C 124.777344 50.917969 125.125 50.34375 125.496094 49.78125 C 125.871094 49.222656 126.273438 48.683594 126.699219 48.160156 C 127.128906 47.640625 127.578125 47.144531 128.054688 46.667969 C 128.53125 46.191406 129.03125 45.738281 129.550781 45.3125 C 130.070312 44.882812 130.609375 44.484375 131.171875 44.109375 C 131.730469 43.734375 132.308594 43.390625 132.902344 43.070312 C 133.496094 42.753906 134.105469 42.46875 134.726562 42.210938 C 135.347656 41.953125 135.980469 41.726562 136.625 41.53125 C 137.269531 41.332031 137.921875 41.171875 138.582031 41.039062 C 139.242188 40.90625 139.910156 40.808594 140.578125 40.742188 C 141.25 40.675781 141.921875 40.644531 142.59375 40.644531 C 143.269531 40.644531 143.941406 40.675781 144.609375 40.742188 C 145.28125 40.808594 145.945312 40.90625 146.605469 41.039062 C 147.265625 41.171875 147.917969 41.332031 148.5625 41.53125 C 149.207031 41.726562 149.84375 41.953125 150.464844 42.210938 C 151.085938 42.46875 151.695312 42.753906 152.289062 43.070312 C 152.882812 43.390625 153.460938 43.734375 154.019531 44.109375 C 154.578125 44.484375 155.121094 44.882812 155.640625 45.3125 C 156.160156 45.738281 156.660156 46.191406 157.136719 46.667969 C 157.613281 47.144531 158.0625 47.640625 158.492188 48.160156 C 158.917969 48.683594 159.316406 49.222656 159.691406 49.78125 C 160.066406 50.34375 160.414062 50.917969 160.730469 51.511719 C 161.046875 52.105469 161.335938 52.714844 161.59375 53.335938 C 161.851562 53.960938 162.078125 54.59375 162.273438 55.238281 C 162.46875 55.882812 162.632812 56.535156 162.761719 57.195312 C 162.894531 57.855469 162.992188 58.519531 163.058594 59.191406 C 163.125 59.863281 163.15625 60.535156 163.15625 61.207031 Z M 163.15625 61.207031 "/><path style=" stroke:none;fill-rule:nonzero;fill:#ffa146;fill-opacity:1;" d="M 185.660156 65.667969 C 185.40625 66.410156 184.363281 69.199219 181.390625 70.90625 C 180.484375 71.425781 178.3125 72.46875 175.574219 72.070312 C 173.199219 71.726562 171.671875 70.480469 170.53125 69.546875 C 168.53125 67.921875 167.425781 66.074219 166.84375 64.890625 C 165.777344 61.558594 164.789062 58.625 163.933594 56.160156 C 162.949219 53.316406 162.464844 52.03125 161.410156 50.535156 C 159.890625 48.382812 158.0625 47.050781 156.753906 46.269531 C 157.789062 46.117188 159.574219 46.015625 161.410156 46.847656 C 162.777344 47.46875 163.808594 48.277344 164.902344 49.953125 C 166.972656 53.121094 169.042969 56.289062 171.109375 59.457031 C 171.640625 60.296875 172.949219 62.121094 175.378906 63.339844 C 178.304688 64.800781 181.03125 64.46875 181.976562 64.308594 C 181.742188 64.507812 178.347656 67.324219 174.410156 66.054688 C 172.382812 65.398438 171.199219 63.988281 170.726562 63.339844 C 169.886719 62.109375 169.042969 60.882812 168.203125 59.652344 C 168.253906 60.570312 168.480469 62.308594 169.558594 64.113281 C 169.949219 64.769531 171.628906 67.394531 174.992188 68.382812 C 177.730469 69.1875 180.015625 68.445312 181.390625 67.996094 C 183.347656 67.355469 184.773438 66.382812 185.660156 65.667969 Z M 185.660156 65.667969 "/><path style=" stroke:none;fill-rule:nonzero;fill:#ffa146;fill-opacity:1;" d="M 182.554688 149.855469 C 183.066406 152.34375 183.902344 156.609375 182.945312 161.882812 C 181.980469 167.183594 179.6875 170.78125 177.902344 173.519531 C 173.15625 180.800781 167.449219 184.835938 163.242188 187.742188 C 160.085938 189.921875 153.769531 193.894531 144.835938 196.777344 C 128.824219 201.945312 115.570312 200.007812 112.527344 199.515625 C 105.90625 198.4375 100.65625 196.53125 97.203125 195.054688 C 95.925781 195.847656 94.515625 196.65625 92.96875 197.445312 C 91.449219 198.226562 89.988281 198.886719 88.621094 199.457031 C 87.925781 199.90625 87.027344 199.722656 86.613281 199.121094 C 86.265625 198.621094 86.304688 197.902344 86.726562 197.382812 L 91.964844 192.726562 C 86.46875 188.621094 81.929688 184.8125 78.386719 181.667969 C 73.675781 177.492188 70.273438 174.089844 68.207031 172.015625 C 64.171875 167.96875 61.375 165.164062 58.167969 161.308594 C 54.996094 157.496094 51.132812 152.855469 47.542969 145.976562 C 45.6875 142.425781 42.300781 135.773438 40.753906 126.386719 C 40.027344 121.964844 39.152344 116.308594 40.5625 109.121094 C 42.242188 100.566406 46.183594 94.820312 48.125 92.050781 C 50.492188 88.679688 54.15625 83.566406 60.929688 79.636719 C 63.910156 77.90625 69.070312 74.90625 76.253906 74.980469 C 83.527344 75.050781 88.730469 78.234375 91.578125 80.023438 C 97.042969 83.457031 99.84375 87.34375 104.769531 94.183594 C 107.269531 97.652344 111.484375 103.582031 115.050781 112.414062 C 116.453125 115.894531 119.003906 122.339844 120.09375 131.234375 C 120.753906 136.660156 121.539062 143.617188 119.125 151.988281 C 118.054688 155.691406 116.675781 158.597656 115.632812 160.523438 C 116.660156 152.515625 116.132812 145.898438 115.4375 141.320312 C 114.085938 132.410156 111.28125 125.941406 109.039062 120.757812 C 106.121094 114.019531 103.355469 109.652344 102.636719 108.535156 C 99.675781 103.925781 96.84375 100.59375 95.074219 98.644531 C 92.527344 95.839844 90.472656 93.601562 87.121094 91.269531 C 85.117188 89.882812 82.578125 88.144531 78.777344 87.003906 C 76.820312 86.414062 73.605469 85.484375 69.46875 86.035156 C 65.613281 86.546875 62.914062 88.09375 61.125 89.136719 C 60.101562 89.738281 57.527344 91.335938 54.917969 94.179688 C 54.222656 94.9375 50.980469 98.554688 48.90625 104.460938 C 46.144531 112.316406 47.253906 119.183594 48.128906 124.636719 C 48.441406 126.589844 49.679688 133.636719 53.824219 141.898438 C 56.53125 147.292969 59.234375 150.730469 64.035156 156.835938 C 68.59375 162.628906 72.449219 166.675781 75.285156 169.636719 C 82.289062 176.953125 87.796875 181.609375 89.253906 182.828125 C 92.195312 185.300781 94.757812 187.261719 96.625 188.648438 C 100.335938 185.75 105.007812 181.921875 110.203125 177.203125 C 113.269531 174.417969 119.226562 168.863281 126.300781 161.105469 C 133.492188 153.21875 137.433594 147.890625 140.269531 143.644531 C 141.605469 141.644531 144.074219 137.824219 145.894531 132.394531 C 147.703125 127.007812 147.578125 123.921875 147.449219 122.503906 C 147.324219 121.164062 147.058594 118.574219 145.507812 115.714844 C 144.808594 114.417969 142.78125 110.796875 138.527344 108.925781 C 133.121094 106.546875 127.878906 108.644531 125.722656 109.507812 C 122.441406 110.820312 120.195312 112.722656 118.933594 113.96875 C 119.097656 112.007812 119.765625 107.457031 123.203125 103.300781 C 125.570312 100.4375 128.183594 99.058594 129.023438 98.644531 C 130.253906 98.035156 134.699219 95.832031 139.886719 97.089844 C 144.3125 98.164062 146.953125 101.195312 149.972656 104.65625 C 151.777344 106.722656 153.03125 108.660156 153.851562 110.085938 C 155.6875 111.453125 157.960938 113.257812 160.449219 115.515625 C 165.347656 119.96875 168.578125 123.925781 169.757812 125.410156 C 171.75 127.910156 175.390625 132.542969 178.683594 139.375 C 180.308594 142.753906 181.691406 145.621094 182.5625 149.851562 Z M 169.363281 164.40625 C 170.925781 158.851562 170.390625 154.144531 169.945312 150.246094 C 169.175781 143.46875 167.082031 138.429688 165.679688 135.113281 C 163.753906 130.570312 161.671875 127.148438 160.246094 124.835938 C 158.363281 121.769531 156.585938 119.285156 155.203125 117.460938 C 155.3125 121.695312 154.972656 128.03125 152.488281 135.113281 C 149.972656 142.300781 146.394531 146.988281 140.65625 154.511719 C 139.621094 155.867188 134.84375 162.078125 127.464844 169.449219 C 125.726562 171.1875 120.398438 176.496094 112.722656 182.832031 C 108.066406 186.679688 103.917969 189.777344 100.667969 192.09375 C 101.367188 192.375 102.152344 192.644531 103.019531 192.878906 C 103.542969 193.023438 104.046875 193.136719 104.523438 193.226562 C 104.523438 193.226562 108.917969 194.179688 113.691406 194.472656 C 126.875 195.277344 138.480469 191.425781 138.480469 191.425781 C 143.40625 189.789062 151.082031 187.152344 158.5 180.3125 C 161.945312 177.136719 167.128906 172.359375 169.363281 164.40625 Z M 169.363281 164.40625 "/><g clip-rule="nonzero" clip-path="url(#7f6e5f0bcd)"><g clip-rule="nonzero" clip-path="url(#c24349f8e2)"><path style=" stroke:none;fill-rule:nonzero;fill:#ffa146;fill-opacity:1;" d="M 366.164062 53.679688 L 507.679688 53.679688 L 507.679688 100.851562 L 366.164062 100.851562 Z M 366.164062 53.679688 "/></g></g><g clip-rule="nonzero" clip-path="url(#ebd07c4cb0)"><g clip-rule="nonzero" clip-path="url(#a2863eec87)"><g clip-rule="nonzero" clip-path="url(#6672bff9c2)"><path style=" stroke:none;fill-rule:nonzero;fill:#ffa146;fill-opacity:1;" d="M 368.980469 73.644531 L 400.832031 97.171875 L 373.90625 133.625 L 342.054688 110.097656 Z M 368.980469 73.644531 "/></g></g></g><g style="fill:#ffa146;fill-opacity:1;"><g transform="translate(207.333858, 155.987819)"><path style="stroke:none" d="M 27.40625 -23.578125 C 23.0625 -23.578125 20.9375 -24.675781 21.03125 -26.875 C 21.03125 -28.9375 23.113281 -29.96875 27.28125 -29.96875 C 28.257812 -29.96875 29.195312 -29.851562 30.09375 -29.625 C 31.570312 -31.101562 32.3125 -33.34375 32.3125 -36.34375 C 32.3125 -41.539062 28.84375 -44.140625 21.90625 -44.140625 C 18.28125 -44.140625 14.832031 -43.359375 11.5625 -41.796875 C 10.351562 -41.210938 9.265625 -40.671875 8.296875 -40.171875 C 7.335938 -39.679688 6.453125 -39.4375 5.640625 -39.4375 C 4.835938 -39.4375 4.4375 -39.679688 4.4375 -40.171875 C 4.4375 -40.753906 4.882812 -41.617188 5.78125 -42.765625 C 6.675781 -43.910156 7.929688 -45.0625 9.546875 -46.21875 C 13.660156 -49.09375 18.335938 -50.550781 23.578125 -50.59375 C 30.429688 -50.59375 35.472656 -49.226562 38.703125 -46.5 C 41.472656 -44.207031 42.859375 -41.09375 42.859375 -37.15625 C 42.859375 -32.582031 40.617188 -29.085938 36.140625 -26.671875 C 40.441406 -24.210938 43 -21.191406 43.8125 -17.609375 C 44.070312 -16.347656 44.203125 -14.6875 44.203125 -12.625 C 44.203125 -10.570312 43.640625 -8.625 42.515625 -6.78125 C 41.398438 -4.945312 39.90625 -3.40625 38.03125 -2.15625 C 34.269531 0.269531 29.453125 1.484375 23.578125 1.484375 C 19.410156 1.484375 14.773438 0.539062 9.671875 -1.34375 C 6.265625 -2.59375 3.757812 -4.09375 2.15625 -5.84375 C 1.34375 -6.695312 0.945312 -7.546875 0.96875 -8.390625 C 1 -9.242188 1.425781 -9.671875 2.25 -9.671875 C 3.082031 -9.671875 4.660156 -9.378906 6.984375 -8.796875 L 6.984375 -8.875 C 6.984375 -12.363281 7.390625 -15.945312 8.203125 -19.625 C 9.585938 -26.03125 11.195312 -31.046875 13.03125 -34.671875 C 15 -38.703125 17.039062 -40.71875 19.15625 -40.71875 C 19.726562 -40.71875 20.015625 -39.707031 20.015625 -37.6875 C 20.015625 -35.675781 19.820312 -33.617188 19.4375 -31.515625 C 19.0625 -29.410156 18.660156 -27.335938 18.234375 -25.296875 C 17.816406 -23.253906 17.414062 -21.40625 17.03125 -19.75 C 16.65625 -18.09375 16.46875 -16.90625 16.46875 -16.1875 L 15.796875 -6.046875 C 18.429688 -5.328125 20.664062 -4.96875 22.5 -4.96875 C 24.34375 -4.96875 26.003906 -5.28125 27.484375 -5.90625 C 31.203125 -7.476562 33.0625 -10.210938 33.0625 -14.109375 C 33.0625 -16.441406 32.835938 -18.367188 32.390625 -19.890625 C 31.941406 -21.410156 31.132812 -22.753906 29.96875 -23.921875 C 28.9375 -23.691406 28.082031 -23.578125 27.40625 -23.578125 Z M 27.40625 -23.578125 "/></g></g><g style="fill:#ffa146;fill-opacity:1;"><g transform="translate(254.896576, 155.987819)"><path style="stroke:none" d="M 10.078125 0.203125 C 5.597656 0.203125 3.359375 -3.984375 3.359375 -12.359375 C 3.359375 -16.929688 3.921875 -21.078125 5.046875 -24.796875 C 6.785156 -30.523438 8.753906 -33.390625 10.953125 -33.390625 C 12.253906 -33.390625 13.285156 -32.515625 14.046875 -30.765625 C 14.671875 -29.421875 14.960938 -28.101562 14.921875 -26.8125 C 14.921875 -25.019531 14.378906 -21.859375 13.296875 -17.328125 C 12.273438 -13.390625 11.765625 -10.945312 11.765625 -10 C 11.765625 -9.0625 12 -8.414062 12.46875 -8.0625 C 12.9375 -7.707031 13.492188 -7.53125 14.140625 -7.53125 C 14.796875 -7.53125 15.613281 -7.953125 16.59375 -8.796875 C 17.582031 -9.648438 18.566406 -10.582031 19.546875 -11.59375 C 20.535156 -12.601562 21.441406 -13.53125 22.265625 -14.375 C 23.097656 -15.226562 23.671875 -15.65625 23.984375 -15.65625 C 24.609375 -15.65625 24.921875 -14.894531 24.921875 -13.375 C 24.921875 -10.238281 23.34375 -7.179688 20.1875 -4.203125 C 17.03125 -1.222656 13.660156 0.242188 10.078125 0.203125 Z M 12.828125 -38.828125 C 11.617188 -40.617188 11.015625 -42.546875 11.015625 -44.609375 C 11.015625 -46.671875 11.335938 -48.382812 11.984375 -49.75 C 12.640625 -51.113281 13.257812 -52.117188 13.84375 -52.765625 C 14.425781 -53.421875 15.097656 -53.75 15.859375 -53.75 C 17.109375 -53.75 18.25 -52.816406 19.28125 -50.953125 C 20.3125 -49.097656 20.828125 -47.546875 20.828125 -46.296875 C 20.828125 -43.960938 20.007812 -42.132812 18.375 -40.8125 C 16.738281 -39.488281 14.890625 -38.828125 12.828125 -38.828125 Z M 12.828125 -38.828125 "/></g></g><g style="fill:#ffa146;fill-opacity:1;"><g transform="translate(274.445665, 155.987819)"><path style="stroke:none" d="M 7.65625 -31.578125 C 4.34375 -33.015625 2.6875 -34.40625 2.6875 -35.75 C 2.6875 -36.457031 2.976562 -36.789062 3.5625 -36.75 C 4.363281 -36.75 5.28125 -36.554688 6.3125 -36.171875 C 7.34375 -35.796875 8.394531 -35.5 9.46875 -35.28125 C 13.144531 -42.21875 17.3125 -46.757812 21.96875 -48.90625 C 23.539062 -49.625 25.109375 -50.007812 26.671875 -50.0625 C 29.765625 -50.0625 32.128906 -49.304688 33.765625 -47.796875 C 35.398438 -46.296875 36.21875 -44.472656 36.21875 -42.328125 C 36.21875 -38.472656 34.132812 -35.492188 29.96875 -33.390625 C 26.5625 -31.691406 21.925781 -30.640625 16.0625 -30.234375 C 13.957031 -25.035156 12.90625 -19.457031 12.90625 -13.5 C 12.90625 -9.070312 13.929688 -6.5 15.984375 -5.78125 C 17.421875 -5.289062 18.5 -5.28125 19.21875 -5.75 C 19.9375 -6.21875 20.492188 -6.84375 20.890625 -7.625 C 21.296875 -8.40625 21.507812 -9.554688 21.53125 -11.078125 C 21.550781 -12.609375 21.125 -13.898438 20.25 -14.953125 C 19.382812 -16.003906 18.546875 -16.976562 17.734375 -17.875 C 18.140625 -19.351562 18.722656 -20.582031 19.484375 -21.5625 C 20.921875 -23.488281 22.148438 -24.453125 23.171875 -24.453125 C 24.203125 -24.453125 25.039062 -24.09375 25.6875 -23.375 C 26.34375 -22.664062 26.875 -21.769531 27.28125 -20.6875 C 27.6875 -19.613281 28.007812 -18.445312 28.25 -17.1875 C 28.5 -15.9375 28.78125 -14.773438 29.09375 -13.703125 C 29.40625 -12.628906 29.796875 -11.734375 30.265625 -11.015625 C 30.734375 -10.296875 31.359375 -9.9375 32.140625 -9.9375 C 32.929688 -9.9375 33.640625 -10.238281 34.265625 -10.84375 C 34.890625 -11.457031 35.445312 -12.117188 35.9375 -12.828125 C 36.4375 -13.546875 36.882812 -14.207031 37.28125 -14.8125 C 37.6875 -15.414062 38.101562 -15.71875 38.53125 -15.71875 C 38.957031 -15.71875 39.382812 -15.359375 39.8125 -14.640625 C 40.238281 -13.929688 40.453125 -13.257812 40.453125 -12.625 C 40.453125 -11.195312 39.742188 -9.492188 38.328125 -7.515625 C 36.921875 -5.546875 35.117188 -4.570312 32.921875 -4.59375 C 30.722656 -4.625 29.019531 -5.085938 27.8125 -5.984375 C 27.050781 -4.097656 25.753906 -2.523438 23.921875 -1.265625 C 22.085938 -0.015625 19.476562 0.609375 16.09375 0.609375 C 12.707031 0.609375 9.804688 -0.265625 7.390625 -2.015625 C 4.484375 -4.117188 3.03125 -7.390625 3.03125 -11.828125 C 3.03125 -18.140625 4.570312 -24.722656 7.65625 -31.578125 Z M 28.828125 -41.125 C 28.773438 -42.6875 28.203125 -43.46875 27.109375 -43.46875 C 26.015625 -43.46875 24.59375 -42.640625 22.84375 -40.984375 C 21.09375 -39.328125 19.414062 -37.019531 17.8125 -34.0625 C 22.6875 -34.914062 26.019531 -36.414062 27.8125 -38.5625 C 28.4375 -39.375 28.773438 -40.226562 28.828125 -41.125 Z M 28.828125 -41.125 "/></g></g><g style="fill:#ffa146;fill-opacity:1;"><g transform="translate(309.177203, 155.987819)"><path style="stroke:none" d="M 43.265625 -15.859375 C 44.078125 -15.859375 44.484375 -14.828125 44.484375 -12.765625 C 44.484375 -11.648438 44.007812 -10.296875 43.0625 -8.703125 C 42.125 -7.109375 40.90625 -5.648438 39.40625 -4.328125 C 37.90625 -3.015625 36.234375 -1.929688 34.390625 -1.078125 C 32.554688 -0.222656 30.769531 0.203125 29.03125 0.203125 C 26.65625 0.203125 25.0625 -1.878906 24.25 -6.046875 C 23.09375 -4.117188 21.570312 -2.539062 19.6875 -1.3125 C 17.800781 -0.0820312 15.28125 0.53125 12.125 0.53125 C 8.96875 0.53125 6.425781 -0.453125 4.5 -2.421875 C 2.570312 -4.390625 1.632812 -6.785156 1.6875 -9.609375 C 1.6875 -17.222656 4.210938 -23.222656 9.265625 -27.609375 C 11.421875 -29.453125 13.425781 -30.660156 15.28125 -31.234375 C 17.144531 -31.816406 19.101562 -32.109375 21.15625 -32.109375 C 23.21875 -32.109375 24.898438 -31.753906 26.203125 -31.046875 C 26.828125 -32.335938 27.546875 -32.984375 28.359375 -32.984375 C 29.921875 -32.984375 31.40625 -32.300781 32.8125 -30.9375 C 34.226562 -29.570312 34.9375 -28.285156 34.9375 -27.078125 C 34.3125 -25.597656 33.394531 -23.828125 32.1875 -21.765625 C 31.820312 -19.703125 31.640625 -16.8125 31.640625 -13.09375 C 31.640625 -9.382812 32.113281 -7.53125 33.0625 -7.53125 C 34.21875 -7.53125 37.035156 -9.859375 41.515625 -14.515625 C 42.328125 -15.410156 42.910156 -15.859375 43.265625 -15.859375 Z M 11.5625 -11.828125 C 11.5625 -8.378906 12.835938 -6.65625 15.390625 -6.65625 C 18.117188 -6.695312 20.378906 -8.148438 22.171875 -11.015625 C 22.796875 -12.003906 23.3125 -13.210938 23.71875 -14.640625 C 23.71875 -19.660156 24.164062 -23.960938 25.0625 -27.546875 C 21.4375 -26.828125 18.28125 -25.078125 15.59375 -22.296875 C 12.90625 -19.523438 11.5625 -16.035156 11.5625 -11.828125 Z M 11.5625 -11.828125 "/></g></g><g style="fill:#ffa146;fill-opacity:1;"><g transform="translate(348.275368, 155.987819)"><path style="stroke:none" d="M 24.390625 -22.578125 C 24.390625 -24.191406 23.4375 -25 21.53125 -25 C 19.625 -25 17.753906 -23.53125 15.921875 -20.59375 C 14.085938 -17.65625 12.945312 -14.664062 12.5 -11.625 C 12.582031 -10.59375 12.671875 -9.5625 12.765625 -8.53125 C 12.859375 -7.5 12.90625 -6.492188 12.90625 -5.515625 C 12.90625 -3.140625 12.117188 -1.523438 10.546875 -0.671875 C 9.828125 -0.265625 9.144531 0.113281 8.5 0.46875 C 7.851562 0.832031 7.101562 1.015625 6.25 1.015625 C 5.394531 1.015625 4.644531 0.441406 4 -0.703125 C 3.351562 -1.847656 3.03125 -3.628906 3.03125 -6.046875 C 3.03125 -12.804688 3.519531 -18.675781 4.5 -23.65625 C 6.019531 -31.351562 9.046875 -39.59375 13.578125 -48.375 C 14.203125 -49.582031 15.117188 -50.175781 16.328125 -50.15625 C 17.535156 -50.132812 18.519531 -49.296875 19.28125 -47.640625 C 20.039062 -45.984375 20.410156 -44.59375 20.390625 -43.46875 C 20.367188 -42.351562 20.1875 -41.269531 19.84375 -40.21875 C 19.507812 -39.164062 19.085938 -38.132812 18.578125 -37.125 C 18.066406 -36.113281 17.484375 -35.082031 16.828125 -34.03125 C 16.179688 -32.976562 15.546875 -31.847656 14.921875 -30.640625 L 13.90625 -25.796875 C 15.65625 -28.710938 18.007812 -30.660156 20.96875 -31.640625 C 22.039062 -32.003906 23.226562 -32.1875 24.53125 -32.1875 C 27.570312 -32.1875 29.875 -31.5 31.4375 -30.125 C 33.007812 -28.757812 33.796875 -26.832031 33.796875 -24.34375 C 33.796875 -21.863281 33.46875 -19.347656 32.8125 -16.796875 C 32.164062 -14.242188 31.695312 -12.414062 31.40625 -11.3125 C 31.113281 -10.21875 30.96875 -9.3125 30.96875 -8.59375 C 30.96875 -7.882812 31.21875 -7.53125 31.71875 -7.53125 C 32.382812 -7.53125 33.207031 -7.953125 34.1875 -8.796875 C 35.175781 -9.648438 36.164062 -10.582031 37.15625 -11.59375 C 38.144531 -12.601562 39.050781 -13.53125 39.875 -14.375 C 40.707031 -15.226562 41.28125 -15.65625 41.59375 -15.65625 C 42.21875 -15.65625 42.53125 -14.894531 42.53125 -13.375 C 42.53125 -10.238281 40.984375 -7.210938 37.890625 -4.296875 C 32.691406 -1.253906 29.378906 0.265625 27.953125 0.265625 C 27.816406 0.265625 27.726562 0.242188 27.6875 0.203125 C 24.101562 0.203125 22.3125 -2.664062 22.3125 -8.40625 C 22.3125 -10.863281 22.546875 -13.125 23.015625 -15.1875 C 23.484375 -17.25 23.828125 -18.75 24.046875 -19.6875 C 24.273438 -20.625 24.390625 -21.585938 24.390625 -22.578125 Z M 24.390625 -22.578125 "/></g></g><g style="fill:#ffa146;fill-opacity:1;"><g transform="translate(385.425349, 155.987819)"><path style="stroke:none" d="M 29.15625 -5.71875 C 25.625 -1.550781 21.378906 0.53125 16.421875 0.53125 C 11.472656 0.53125 7.765625 -0.734375 5.296875 -3.265625 C 2.835938 -5.796875 1.632812 -8.941406 1.6875 -12.703125 C 1.632812 -18.023438 3.3125 -22.613281 6.71875 -26.46875 C 10.125 -30.320312 14.582031 -32.25 20.09375 -32.25 C 22.601562 -32.25 24.617188 -31.9375 26.140625 -31.3125 C 28.773438 -30.238281 30.09375 -29.226562 30.09375 -28.28125 C 30.09375 -27.570312 28.242188 -27.203125 24.546875 -27.171875 C 20.859375 -27.148438 17.769531 -25.875 15.28125 -23.34375 C 12.800781 -20.8125 11.5625 -17.625 11.5625 -13.78125 C 11.5625 -11.757812 12.15625 -10.066406 13.34375 -8.703125 C 14.53125 -7.335938 16.207031 -6.65625 18.375 -6.65625 C 20.550781 -6.65625 22.351562 -7.101562 23.78125 -8 C 20.601562 -10.144531 19.015625 -13.253906 19.015625 -17.328125 C 18.972656 -19.484375 19.742188 -21.445312 21.328125 -23.21875 C 22.921875 -24.988281 24.957031 -25.882812 27.4375 -25.90625 C 29.925781 -25.925781 31.707031 -25.238281 32.78125 -23.84375 C 33.863281 -22.457031 34.40625 -20.675781 34.40625 -18.5 C 34.40625 -16.332031 33.890625 -14.039062 32.859375 -11.625 L 33.265625 -11.625 C 35.234375 -11.664062 36.929688 -12.359375 38.359375 -13.703125 C 38.898438 -14.242188 39.359375 -14.710938 39.734375 -15.109375 C 40.117188 -15.515625 40.515625 -15.71875 40.921875 -15.71875 C 41.546875 -15.71875 41.859375 -14.976562 41.859375 -13.5 C 41.859375 -10.769531 41.050781 -8.722656 39.4375 -7.359375 C 37.820312 -5.992188 36.039062 -5.3125 34.09375 -5.3125 C 32.144531 -5.3125 30.5 -5.445312 29.15625 -5.71875 Z M 28.5625 -13.5 C 29.320312 -15.113281 29.703125 -16.679688 29.703125 -18.203125 C 29.703125 -19.734375 29.207031 -20.5 28.21875 -20.5 C 27.8125 -20.5 27.472656 -20.207031 27.203125 -19.625 C 26.941406 -19.039062 26.8125 -18.476562 26.8125 -17.9375 C 26.8125 -16.144531 27.394531 -14.664062 28.5625 -13.5 Z M 28.5625 -13.5 "/></g></g><g style="fill:#ffa146;fill-opacity:1;"><g transform="translate(421.903543, 155.987819)"><path style="stroke:none" d=""/></g></g><g style="fill:#ffa146;fill-opacity:1;"><g transform="translate(448.77513, 155.987819)"><path style="stroke:none" d="M 27.40625 -23.578125 C 23.0625 -23.578125 20.9375 -24.675781 21.03125 -26.875 C 21.03125 -28.9375 23.113281 -29.96875 27.28125 -29.96875 C 28.257812 -29.96875 29.195312 -29.851562 30.09375 -29.625 C 31.570312 -31.101562 32.3125 -33.34375 32.3125 -36.34375 C 32.3125 -41.539062 28.84375 -44.140625 21.90625 -44.140625 C 18.28125 -44.140625 14.832031 -43.359375 11.5625 -41.796875 C 10.351562 -41.210938 9.265625 -40.671875 8.296875 -40.171875 C 7.335938 -39.679688 6.453125 -39.4375 5.640625 -39.4375 C 4.835938 -39.4375 4.4375 -39.679688 4.4375 -40.171875 C 4.4375 -40.753906 4.882812 -41.617188 5.78125 -42.765625 C 6.675781 -43.910156 7.929688 -45.0625 9.546875 -46.21875 C 13.660156 -49.09375 18.335938 -50.550781 23.578125 -50.59375 C 30.429688 -50.59375 35.472656 -49.226562 38.703125 -46.5 C 41.472656 -44.207031 42.859375 -41.09375 42.859375 -37.15625 C 42.859375 -32.582031 40.617188 -29.085938 36.140625 -26.671875 C 40.441406 -24.210938 43 -21.191406 43.8125 -17.609375 C 44.070312 -16.347656 44.203125 -14.6875 44.203125 -12.625 C 44.203125 -10.570312 43.640625 -8.625 42.515625 -6.78125 C 41.398438 -4.945312 39.90625 -3.40625 38.03125 -2.15625 C 34.269531 0.269531 29.453125 1.484375 23.578125 1.484375 C 19.410156 1.484375 14.773438 0.539062 9.671875 -1.34375 C 6.265625 -2.59375 3.757812 -4.09375 2.15625 -5.84375 C 1.34375 -6.695312 0.945312 -7.546875 0.96875 -8.390625 C 1 -9.242188 1.425781 -9.671875 2.25 -9.671875 C 3.082031 -9.671875 4.660156 -9.378906 6.984375 -8.796875 L 6.984375 -8.875 C 6.984375 -12.363281 7.390625 -15.945312 8.203125 -19.625 C 9.585938 -26.03125 11.195312 -31.046875 13.03125 -34.671875 C 15 -38.703125 17.039062 -40.71875 19.15625 -40.71875 C 19.726562 -40.71875 20.015625 -39.707031 20.015625 -37.6875 C 20.015625 -35.675781 19.820312 -33.617188 19.4375 -31.515625 C 19.0625 -29.410156 18.660156 -27.335938 18.234375 -25.296875 C 17.816406 -23.253906 17.414062 -21.40625 17.03125 -19.75 C 16.65625 -18.09375 16.46875 -16.90625 16.46875 -16.1875 L 15.796875 -6.046875 C 18.429688 -5.328125 20.664062 -4.96875 22.5 -4.96875 C 24.34375 -4.96875 26.003906 -5.28125 27.484375 -5.90625 C 31.203125 -7.476562 33.0625 -10.210938 33.0625 -14.109375 C 33.0625 -16.441406 32.835938 -18.367188 32.390625 -19.890625 C 31.941406 -21.410156 31.132812 -22.753906 29.96875 -23.921875 C 28.9375 -23.691406 28.082031 -23.578125 27.40625 -23.578125 Z M 27.40625 -23.578125 "/></g></g><g style="fill:#ffa146;fill-opacity:1;"><g transform="translate(496.337848, 155.987819)"><path style="stroke:none" d="M 43.265625 -15.859375 C 44.078125 -15.859375 44.484375 -14.828125 44.484375 -12.765625 C 44.484375 -11.648438 44.007812 -10.296875 43.0625 -8.703125 C 42.125 -7.109375 40.90625 -5.648438 39.40625 -4.328125 C 37.90625 -3.015625 36.234375 -1.929688 34.390625 -1.078125 C 32.554688 -0.222656 30.769531 0.203125 29.03125 0.203125 C 26.65625 0.203125 25.0625 -1.878906 24.25 -6.046875 C 23.09375 -4.117188 21.570312 -2.539062 19.6875 -1.3125 C 17.800781 -0.0820312 15.28125 0.53125 12.125 0.53125 C 8.96875 0.53125 6.425781 -0.453125 4.5 -2.421875 C 2.570312 -4.390625 1.632812 -6.785156 1.6875 -9.609375 C 1.6875 -17.222656 4.210938 -23.222656 9.265625 -27.609375 C 11.421875 -29.453125 13.425781 -30.660156 15.28125 -31.234375 C 17.144531 -31.816406 19.101562 -32.109375 21.15625 -32.109375 C 23.21875 -32.109375 24.898438 -31.753906 26.203125 -31.046875 C 26.828125 -32.335938 27.546875 -32.984375 28.359375 -32.984375 C 29.921875 -32.984375 31.40625 -32.300781 32.8125 -30.9375 C 34.226562 -29.570312 34.9375 -28.285156 34.9375 -27.078125 C 34.3125 -25.597656 33.394531 -23.828125 32.1875 -21.765625 C 31.820312 -19.703125 31.640625 -16.8125 31.640625 -13.09375 C 31.640625 -9.382812 32.113281 -7.53125 33.0625 -7.53125 C 34.21875 -7.53125 37.035156 -9.859375 41.515625 -14.515625 C 42.328125 -15.410156 42.910156 -15.859375 43.265625 -15.859375 Z M 11.5625 -11.828125 C 11.5625 -8.378906 12.835938 -6.65625 15.390625 -6.65625 C 18.117188 -6.695312 20.378906 -8.148438 22.171875 -11.015625 C 22.796875 -12.003906 23.3125 -13.210938 23.71875 -14.640625 C 23.71875 -19.660156 24.164062 -23.960938 25.0625 -27.546875 C 21.4375 -26.828125 18.28125 -25.078125 15.59375 -22.296875 C 12.90625 -19.523438 11.5625 -16.035156 11.5625 -11.828125 Z M 11.5625 -11.828125 "/></g></g><g style="fill:#ffa146;fill-opacity:1;"><g transform="translate(535.436026, 155.987819)"><path style="stroke:none" d="M 10.953125 -33.53125 C 12.566406 -33.53125 14.085938 -31.984375 15.515625 -28.890625 C 17.617188 -31.085938 20.226562 -32.1875 23.34375 -32.1875 C 26.457031 -32.1875 28.796875 -31.5 30.359375 -30.125 C 31.929688 -28.757812 32.71875 -26.832031 32.71875 -24.34375 C 32.71875 -21.863281 32.390625 -19.347656 31.734375 -16.796875 C 31.085938 -14.242188 30.617188 -12.414062 30.328125 -11.3125 C 30.046875 -10.21875 29.90625 -9.3125 29.90625 -8.59375 C 29.90625 -7.882812 30.148438 -7.53125 30.640625 -7.53125 C 31.304688 -7.53125 32.132812 -7.953125 33.125 -8.796875 C 34.113281 -9.648438 35.097656 -10.582031 36.078125 -11.59375 C 37.066406 -12.601562 37.972656 -13.53125 38.796875 -14.375 C 39.628906 -15.226562 40.203125 -15.65625 40.515625 -15.65625 C 41.140625 -15.65625 41.453125 -14.894531 41.453125 -13.375 C 41.453125 -10.238281 39.90625 -7.210938 36.8125 -4.296875 C 31.625 -1.253906 28.3125 0.265625 26.875 0.265625 C 26.738281 0.265625 26.648438 0.242188 26.609375 0.203125 C 23.023438 0.203125 21.234375 -2.664062 21.234375 -8.40625 C 21.234375 -10.863281 21.46875 -13.125 21.9375 -15.1875 C 22.40625 -17.25 22.75 -18.75 22.96875 -19.6875 C 23.195312 -20.625 23.3125 -21.585938 23.3125 -22.578125 C 23.3125 -24.191406 22.378906 -25 20.515625 -25 C 18.660156 -25 16.894531 -23.617188 15.21875 -20.859375 C 13.539062 -18.109375 12.410156 -15.253906 11.828125 -12.296875 L 11.828125 -11.828125 C 11.828125 -10.304688 12.0625 -8.738281 12.53125 -7.125 C 13 -5.507812 13.234375 -4.390625 13.234375 -3.765625 C 13.234375 -2.242188 11.332031 -0.742188 7.53125 0.734375 C 6.945312 0.960938 6.429688 1.078125 5.984375 1.078125 C 4.859375 1.078125 4.082031 0.492188 3.65625 -0.671875 C 3.238281 -1.835938 3.03125 -3.648438 3.03125 -6.109375 C 3.03125 -12.472656 3.273438 -17.066406 3.765625 -19.890625 C 4.429688 -24.097656 5.953125 -28.015625 8.328125 -31.640625 C 9.140625 -32.898438 10.015625 -33.53125 10.953125 -33.53125 Z M 10.953125 -33.53125 "/></g></g><g style="fill:#ffa146;fill-opacity:1;"><g transform="translate(571.511112, 155.987819)"><path style="stroke:none" d="M 43.265625 -15.859375 C 44.078125 -15.859375 44.484375 -14.828125 44.484375 -12.765625 C 44.484375 -11.648438 44.007812 -10.296875 43.0625 -8.703125 C 42.125 -7.109375 40.90625 -5.648438 39.40625 -4.328125 C 37.90625 -3.015625 36.234375 -1.929688 34.390625 -1.078125 C 32.554688 -0.222656 30.769531 0.203125 29.03125 0.203125 C 26.5625 0.203125 24.945312 -1.8125 24.1875 -5.84375 C 21.5 -1.59375 17.515625 0.53125 12.234375 0.53125 C 9.003906 0.53125 6.425781 -0.453125 4.5 -2.421875 C 2.570312 -4.390625 1.632812 -6.785156 1.6875 -9.609375 C 1.6875 -17.222656 4.210938 -23.222656 9.265625 -27.609375 C 12.765625 -30.609375 16.394531 -32.109375 20.15625 -32.109375 C 21.851562 -32.109375 23.195312 -31.976562 24.1875 -31.71875 L 25.734375 -31.3125 C 27.566406 -39.957031 29.691406 -45.734375 32.109375 -48.640625 C 32.921875 -49.628906 33.726562 -50.125 34.53125 -50.125 C 35.832031 -50.125 37.039062 -49.226562 38.15625 -47.4375 C 39.144531 -45.957031 39.640625 -44.679688 39.640625 -43.609375 C 39.640625 -42.535156 39.484375 -41.484375 39.171875 -40.453125 C 38.859375 -39.421875 38.46875 -38.46875 38 -37.59375 C 37.53125 -36.71875 37.003906 -35.863281 36.421875 -35.03125 C 35.835938 -34.207031 35.253906 -33.367188 34.671875 -32.515625 C 33.367188 -27.679688 32.40625 -22.265625 31.78125 -16.265625 C 31.601562 -14.554688 31.515625 -13.1875 31.515625 -12.15625 C 31.515625 -9.070312 32.03125 -7.53125 33.0625 -7.53125 C 34.21875 -7.53125 37.035156 -9.859375 41.515625 -14.515625 C 42.328125 -15.410156 42.910156 -15.859375 43.265625 -15.859375 Z M 11.5625 -11.828125 C 11.5625 -8.378906 12.835938 -6.65625 15.390625 -6.65625 C 16.910156 -6.65625 18.441406 -7.234375 19.984375 -8.390625 C 21.535156 -9.554688 22.734375 -11.507812 23.578125 -14.25 C 23.671875 -18.28125 24.144531 -22.710938 25 -27.546875 C 21.414062 -26.828125 18.28125 -25.078125 15.59375 -22.296875 C 12.90625 -19.523438 11.5625 -16.035156 11.5625 -11.828125 Z M 11.5625 -11.828125 "/></g></g><g style="fill:#ffa146;fill-opacity:1;"><g transform="translate(610.60929, 155.987819)"><path style="stroke:none" d="M 24.390625 -22.578125 C 24.390625 -24.191406 23.4375 -25 21.53125 -25 C 19.625 -25 17.753906 -23.53125 15.921875 -20.59375 C 14.085938 -17.65625 12.945312 -14.664062 12.5 -11.625 C 12.582031 -10.59375 12.671875 -9.5625 12.765625 -8.53125 C 12.859375 -7.5 12.90625 -6.492188 12.90625 -5.515625 C 12.90625 -3.140625 12.117188 -1.523438 10.546875 -0.671875 C 9.828125 -0.265625 9.144531 0.113281 8.5 0.46875 C 7.851562 0.832031 7.101562 1.015625 6.25 1.015625 C 5.394531 1.015625 4.644531 0.441406 4 -0.703125 C 3.351562 -1.847656 3.03125 -3.628906 3.03125 -6.046875 C 3.03125 -12.804688 3.519531 -18.675781 4.5 -23.65625 C 6.019531 -31.351562 9.046875 -39.59375 13.578125 -48.375 C 14.203125 -49.582031 15.117188 -50.175781 16.328125 -50.15625 C 17.535156 -50.132812 18.519531 -49.296875 19.28125 -47.640625 C 20.039062 -45.984375 20.410156 -44.59375 20.390625 -43.46875 C 20.367188 -42.351562 20.1875 -41.269531 19.84375 -40.21875 C 19.507812 -39.164062 19.085938 -38.132812 18.578125 -37.125 C 18.066406 -36.113281 17.484375 -35.082031 16.828125 -34.03125 C 16.179688 -32.976562 15.546875 -31.847656 14.921875 -30.640625 L 13.90625 -25.796875 C 15.65625 -28.710938 18.007812 -30.660156 20.96875 -31.640625 C 22.039062 -32.003906 23.226562 -32.1875 24.53125 -32.1875 C 27.570312 -32.1875 29.875 -31.5 31.4375 -30.125 C 33.007812 -28.757812 33.796875 -26.832031 33.796875 -24.34375 C 33.796875 -21.863281 33.46875 -19.347656 32.8125 -16.796875 C 32.164062 -14.242188 31.695312 -12.414062 31.40625 -11.3125 C 31.113281 -10.21875 30.96875 -9.3125 30.96875 -8.59375 C 30.96875 -7.882812 31.21875 -7.53125 31.71875 -7.53125 C 32.382812 -7.53125 33.207031 -7.953125 34.1875 -8.796875 C 35.175781 -9.648438 36.164062 -10.582031 37.15625 -11.59375 C 38.144531 -12.601562 39.050781 -13.53125 39.875 -14.375 C 40.707031 -15.226562 41.28125 -15.65625 41.59375 -15.65625 C 42.21875 -15.65625 42.53125 -14.894531 42.53125 -13.375 C 42.53125 -10.238281 40.984375 -7.210938 37.890625 -4.296875 C 32.691406 -1.253906 29.378906 0.265625 27.953125 0.265625 C 27.816406 0.265625 27.726562 0.242188 27.6875 0.203125 C 24.101562 0.203125 22.3125 -2.664062 22.3125 -8.40625 C 22.3125 -10.863281 22.546875 -13.125 23.015625 -15.1875 C 23.484375 -17.25 23.828125 -18.75 24.046875 -19.6875 C 24.273438 -20.625 24.390625 -21.585938 24.390625 -22.578125 Z M 24.390625 -22.578125 "/></g></g><g style="fill:#ffa146;fill-opacity:1;"><g transform="translate(647.759283, 155.987819)"><path style="stroke:none" d="M 43.265625 -15.859375 C 44.078125 -15.859375 44.484375 -14.828125 44.484375 -12.765625 C 44.484375 -11.648438 44.007812 -10.296875 43.0625 -8.703125 C 42.125 -7.109375 40.90625 -5.648438 39.40625 -4.328125 C 37.90625 -3.015625 36.234375 -1.929688 34.390625 -1.078125 C 32.554688 -0.222656 30.769531 0.203125 29.03125 0.203125 C 26.65625 0.203125 25.0625 -1.878906 24.25 -6.046875 C 23.09375 -4.117188 21.570312 -2.539062 19.6875 -1.3125 C 17.800781 -0.0820312 15.28125 0.53125 12.125 0.53125 C 8.96875 0.53125 6.425781 -0.453125 4.5 -2.421875 C 2.570312 -4.390625 1.632812 -6.785156 1.6875 -9.609375 C 1.6875 -17.222656 4.210938 -23.222656 9.265625 -27.609375 C 11.421875 -29.453125 13.425781 -30.660156 15.28125 -31.234375 C 17.144531 -31.816406 19.101562 -32.109375 21.15625 -32.109375 C 23.21875 -32.109375 24.898438 -31.753906 26.203125 -31.046875 C 26.828125 -32.335938 27.546875 -32.984375 28.359375 -32.984375 C 29.921875 -32.984375 31.40625 -32.300781 32.8125 -30.9375 C 34.226562 -29.570312 34.9375 -28.285156 34.9375 -27.078125 C 34.3125 -25.597656 33.394531 -23.828125 32.1875 -21.765625 C 31.820312 -19.703125 31.640625 -16.8125 31.640625 -13.09375 C 31.640625 -9.382812 32.113281 -7.53125 33.0625 -7.53125 C 34.21875 -7.53125 37.035156 -9.859375 41.515625 -14.515625 C 42.328125 -15.410156 42.910156 -15.859375 43.265625 -15.859375 Z M 11.5625 -11.828125 C 11.5625 -8.378906 12.835938 -6.65625 15.390625 -6.65625 C 18.117188 -6.695312 20.378906 -8.148438 22.171875 -11.015625 C 22.796875 -12.003906 23.3125 -13.210938 23.71875 -14.640625 C 23.71875 -19.660156 24.164062 -23.960938 25.0625 -27.546875 C 21.4375 -26.828125 18.28125 -25.078125 15.59375 -22.296875 C 12.90625 -19.523438 11.5625 -16.035156 11.5625 -11.828125 Z M 11.5625 -11.828125 "/></g></g><g style="fill:#ffa146;fill-opacity:1;"><g transform="translate(686.857412, 155.987819)"><path style="stroke:none" d="M 10.953125 -33.53125 C 12.566406 -33.53125 14.085938 -31.984375 15.515625 -28.890625 C 17.617188 -31.085938 20.226562 -32.1875 23.34375 -32.1875 C 26.457031 -32.1875 28.796875 -31.5 30.359375 -30.125 C 31.929688 -28.757812 32.71875 -26.832031 32.71875 -24.34375 C 32.71875 -21.863281 32.390625 -19.347656 31.734375 -16.796875 C 31.085938 -14.242188 30.617188 -12.414062 30.328125 -11.3125 C 30.046875 -10.21875 29.90625 -9.3125 29.90625 -8.59375 C 29.90625 -7.882812 30.148438 -7.53125 30.640625 -7.53125 C 31.304688 -7.53125 32.132812 -7.953125 33.125 -8.796875 C 34.113281 -9.648438 35.097656 -10.582031 36.078125 -11.59375 C 37.066406 -12.601562 37.972656 -13.53125 38.796875 -14.375 C 39.628906 -15.226562 40.203125 -15.65625 40.515625 -15.65625 C 41.140625 -15.65625 41.453125 -14.894531 41.453125 -13.375 C 41.453125 -10.238281 39.90625 -7.210938 36.8125 -4.296875 C 31.625 -1.253906 28.3125 0.265625 26.875 0.265625 C 26.738281 0.265625 26.648438 0.242188 26.609375 0.203125 C 23.023438 0.203125 21.234375 -2.664062 21.234375 -8.40625 C 21.234375 -10.863281 21.46875 -13.125 21.9375 -15.1875 C 22.40625 -17.25 22.75 -18.75 22.96875 -19.6875 C 23.195312 -20.625 23.3125 -21.585938 23.3125 -22.578125 C 23.3125 -24.191406 22.378906 -25 20.515625 -25 C 18.660156 -25 16.894531 -23.617188 15.21875 -20.859375 C 13.539062 -18.109375 12.410156 -15.253906 11.828125 -12.296875 L 11.828125 -11.828125 C 11.828125 -10.304688 12.0625 -8.738281 12.53125 -7.125 C 13 -5.507812 13.234375 -4.390625 13.234375 -3.765625 C 13.234375 -2.242188 11.332031 -0.742188 7.53125 0.734375 C 6.945312 0.960938 6.429688 1.078125 5.984375 1.078125 C 4.859375 1.078125 4.082031 0.492188 3.65625 -0.671875 C 3.238281 -1.835938 3.03125 -3.648438 3.03125 -6.109375 C 3.03125 -12.472656 3.273438 -17.066406 3.765625 -19.890625 C 4.429688 -24.097656 5.953125 -28.015625 8.328125 -31.640625 C 9.140625 -32.898438 10.015625 -33.53125 10.953125 -33.53125 Z M 10.953125 -33.53125 "/></g></g><g style="fill:#ffead7;fill-opacity:1;"><g transform="translate(376.941752, 88.287765)"><path style="stroke:none" d="M 12.453125 -10.71875 C 10.472656 -10.71875 9.503906 -11.210938 9.546875 -12.203125 C 9.546875 -13.140625 10.492188 -13.609375 12.390625 -13.609375 C 12.835938 -13.609375 13.265625 -13.554688 13.671875 -13.453125 C 14.335938 -14.128906 14.671875 -15.148438 14.671875 -16.515625 C 14.671875 -18.867188 13.097656 -20.046875 9.953125 -20.046875 C 8.296875 -20.046875 6.726562 -19.691406 5.25 -18.984375 C 4.695312 -18.710938 4.203125 -18.460938 3.765625 -18.234375 C 3.328125 -18.015625 2.925781 -17.90625 2.5625 -17.90625 C 2.195312 -17.90625 2.015625 -18.019531 2.015625 -18.25 C 2.015625 -18.507812 2.21875 -18.898438 2.625 -19.421875 C 3.03125 -19.941406 3.597656 -20.46875 4.328125 -21 C 6.203125 -22.300781 8.332031 -22.960938 10.71875 -22.984375 C 13.820312 -22.984375 16.109375 -22.359375 17.578125 -21.109375 C 18.835938 -20.078125 19.46875 -18.664062 19.46875 -16.875 C 19.46875 -14.800781 18.453125 -13.210938 16.421875 -12.109375 C 18.367188 -10.992188 19.523438 -9.625 19.890625 -8 C 20.015625 -7.425781 20.078125 -6.671875 20.078125 -5.734375 C 20.078125 -4.796875 19.820312 -3.910156 19.3125 -3.078125 C 18.800781 -2.242188 18.117188 -1.539062 17.265625 -0.96875 C 15.554688 0.125 13.375 0.671875 10.71875 0.671875 C 8.820312 0.671875 6.710938 0.242188 4.390625 -0.609375 C 2.847656 -1.179688 1.707031 -1.863281 0.96875 -2.65625 C 0.601562 -3.039062 0.425781 -3.425781 0.4375 -3.8125 C 0.445312 -4.195312 0.640625 -4.390625 1.015625 -4.390625 C 1.398438 -4.390625 2.117188 -4.257812 3.171875 -4 L 3.171875 -4.03125 C 3.171875 -5.613281 3.351562 -7.238281 3.71875 -8.90625 C 4.351562 -11.820312 5.085938 -14.101562 5.921875 -15.75 C 6.816406 -17.582031 7.742188 -18.5 8.703125 -18.5 C 8.960938 -18.5 9.09375 -18.039062 9.09375 -17.125 C 9.09375 -16.207031 9.003906 -15.269531 8.828125 -14.3125 C 8.660156 -13.351562 8.476562 -12.410156 8.28125 -11.484375 C 8.09375 -10.554688 7.910156 -9.71875 7.734375 -8.96875 C 7.554688 -8.21875 7.46875 -7.679688 7.46875 -7.359375 L 7.171875 -2.75 C 8.367188 -2.425781 9.382812 -2.265625 10.21875 -2.265625 C 11.050781 -2.265625 11.804688 -2.40625 12.484375 -2.6875 C 14.171875 -3.394531 15.015625 -4.632812 15.015625 -6.40625 C 15.015625 -7.46875 14.910156 -8.34375 14.703125 -9.03125 C 14.503906 -9.71875 14.140625 -10.328125 13.609375 -10.859375 C 13.140625 -10.765625 12.753906 -10.71875 12.453125 -10.71875 Z M 12.453125 -10.71875 "/></g></g><g style="fill:#ffead7;fill-opacity:1;"><g transform="translate(398.542047, 88.287765)"><path style="stroke:none" d="M 19.65625 -7.203125 C 20.019531 -7.203125 20.203125 -6.734375 20.203125 -5.796875 C 20.203125 -5.285156 19.988281 -4.671875 19.5625 -3.953125 C 19.132812 -3.234375 18.578125 -2.570312 17.890625 -1.96875 C 17.210938 -1.363281 16.457031 -0.867188 15.625 -0.484375 C 14.789062 -0.0976562 13.976562 0.09375 13.1875 0.09375 C 12.101562 0.09375 11.378906 -0.851562 11.015625 -2.75 C 10.484375 -1.875 9.789062 -1.15625 8.9375 -0.59375 C 8.082031 -0.03125 6.9375 0.25 5.5 0.25 C 4.070312 0.25 2.921875 -0.195312 2.046875 -1.09375 C 1.171875 -1.988281 0.742188 -3.078125 0.765625 -4.359375 C 0.765625 -7.816406 1.914062 -10.546875 4.21875 -12.546875 C 5.1875 -13.378906 6.09375 -13.925781 6.9375 -14.1875 C 7.78125 -14.457031 8.671875 -14.59375 9.609375 -14.59375 C 10.546875 -14.59375 11.3125 -14.425781 11.90625 -14.09375 C 12.1875 -14.6875 12.507812 -14.984375 12.875 -14.984375 C 13.59375 -14.984375 14.269531 -14.671875 14.90625 -14.046875 C 15.550781 -13.429688 15.875 -12.847656 15.875 -12.296875 C 15.582031 -11.628906 15.160156 -10.828125 14.609375 -9.890625 C 14.453125 -8.953125 14.375 -7.640625 14.375 -5.953125 C 14.375 -4.265625 14.585938 -3.421875 15.015625 -3.421875 C 15.546875 -3.421875 16.828125 -4.476562 18.859375 -6.59375 C 19.222656 -7 19.488281 -7.203125 19.65625 -7.203125 Z M 5.25 -5.375 C 5.25 -3.800781 5.828125 -3.015625 6.984375 -3.015625 C 8.222656 -3.035156 9.25 -3.695312 10.0625 -5 C 10.351562 -5.445312 10.585938 -6 10.765625 -6.65625 C 10.765625 -8.925781 10.96875 -10.878906 11.375 -12.515625 C 9.726562 -12.179688 8.296875 -11.382812 7.078125 -10.125 C 5.859375 -8.863281 5.25 -7.28125 5.25 -5.375 Z M 5.25 -5.375 "/></g></g><g style="fill:#ffead7;fill-opacity:1;"><g transform="translate(416.298221, 88.287765)"><path style="stroke:none" d="M 4.96875 -15.234375 C 5.707031 -15.234375 6.398438 -14.53125 7.046875 -13.125 C 8.003906 -14.113281 9.1875 -14.609375 10.59375 -14.609375 C 12.007812 -14.609375 13.070312 -14.296875 13.78125 -13.671875 C 14.5 -13.054688 14.859375 -12.1875 14.859375 -11.0625 C 14.859375 -9.9375 14.707031 -8.789062 14.40625 -7.625 C 14.113281 -6.46875 13.898438 -5.640625 13.765625 -5.140625 C 13.640625 -4.640625 13.578125 -4.226562 13.578125 -3.90625 C 13.578125 -3.582031 13.691406 -3.421875 13.921875 -3.421875 C 14.222656 -3.421875 14.597656 -3.613281 15.046875 -4 C 15.492188 -4.382812 15.941406 -4.804688 16.390625 -5.265625 C 16.835938 -5.722656 17.25 -6.144531 17.625 -6.53125 C 18 -6.914062 18.257812 -7.109375 18.40625 -7.109375 C 18.6875 -7.109375 18.828125 -6.765625 18.828125 -6.078125 C 18.828125 -4.648438 18.125 -3.273438 16.71875 -1.953125 C 14.363281 -0.566406 12.859375 0.125 12.203125 0.125 C 12.140625 0.125 12.097656 0.113281 12.078125 0.09375 C 10.453125 0.09375 9.640625 -1.207031 9.640625 -3.8125 C 9.640625 -4.9375 9.742188 -5.960938 9.953125 -6.890625 C 10.171875 -7.828125 10.332031 -8.507812 10.4375 -8.9375 C 10.539062 -9.363281 10.59375 -9.800781 10.59375 -10.25 C 10.59375 -10.988281 10.171875 -11.359375 9.328125 -11.359375 C 8.484375 -11.359375 7.675781 -10.726562 6.90625 -9.46875 C 6.144531 -8.21875 5.632812 -6.921875 5.375 -5.578125 L 5.375 -5.375 C 5.375 -4.675781 5.476562 -3.960938 5.6875 -3.234375 C 5.90625 -2.503906 6.015625 -1.992188 6.015625 -1.703125 C 6.015625 -1.015625 5.148438 -0.335938 3.421875 0.328125 C 3.148438 0.429688 2.914062 0.484375 2.71875 0.484375 C 2.207031 0.484375 1.851562 0.222656 1.65625 -0.296875 C 1.46875 -0.828125 1.375 -1.65625 1.375 -2.78125 C 1.375 -5.664062 1.484375 -7.75 1.703125 -9.03125 C 2.015625 -10.945312 2.707031 -12.726562 3.78125 -14.375 C 4.144531 -14.945312 4.539062 -15.234375 4.96875 -15.234375 Z M 4.96875 -15.234375 "/></g></g><g style="fill:#ffead7;fill-opacity:1;"><g transform="translate(432.681494, 88.287765)"><path style="stroke:none" d="M 12.609375 -13.890625 C 12.890625 -14.785156 13.34375 -15.234375 13.96875 -15.234375 C 14.539062 -15.210938 15.082031 -14.804688 15.59375 -14.015625 C 16.101562 -13.234375 16.359375 -12.628906 16.359375 -12.203125 C 16.316406 -11.367188 16.0625 -10.039062 15.59375 -8.21875 C 15.125 -6.40625 14.460938 -4.039062 13.609375 -1.125 C 14.953125 -2.164062 16.273438 -3.519531 17.578125 -5.1875 C 18.023438 -5.757812 18.40625 -6.222656 18.71875 -6.578125 C 19.03125 -6.929688 19.289062 -7.109375 19.5 -7.109375 C 19.78125 -7.109375 19.921875 -6.785156 19.921875 -6.140625 C 19.921875 -4.859375 19.203125 -3.359375 17.765625 -1.640625 C 16.335938 0.0664062 14.585938 1.394531 12.515625 2.34375 C 12.265625 3.164062 12 3.941406 11.71875 4.671875 C 11.4375 5.398438 11.070312 6.039062 10.625 6.59375 C 9.644531 7.769531 8.160156 8.359375 6.171875 8.359375 C 4.828125 8.359375 3.679688 7.972656 2.734375 7.203125 C 1.785156 6.429688 1.3125 5.460938 1.3125 4.296875 C 1.3125 3.671875 1.519531 3.175781 1.9375 2.8125 C 2.351562 2.445312 2.925781 2.148438 3.65625 1.921875 C 4.394531 1.703125 5.253906 1.507812 6.234375 1.34375 C 7.222656 1.175781 8.28125 0.972656 9.40625 0.734375 C 9.5 0.390625 9.582031 0.0507812 9.65625 -0.28125 C 9.726562 -0.625 9.804688 -0.96875 9.890625 -1.3125 C 8.765625 -0.269531 7.394531 0.25 5.78125 0.25 C 4.164062 0.25 2.921875 -0.195312 2.046875 -1.09375 C 1.171875 -1.988281 0.742188 -3.078125 0.765625 -4.359375 C 0.765625 -7.816406 1.914062 -10.546875 4.21875 -12.546875 C 5.800781 -13.910156 7.445312 -14.59375 9.15625 -14.59375 C 9.75 -14.59375 10.382812 -14.519531 11.0625 -14.375 C 11.738281 -14.226562 12.253906 -14.066406 12.609375 -13.890625 Z M 5.25 -5.375 C 5.25 -3.800781 5.828125 -3.015625 6.984375 -3.015625 C 7.640625 -3.015625 8.300781 -3.257812 8.96875 -3.75 C 9.644531 -4.238281 10.1875 -5.035156 10.59375 -6.140625 C 10.894531 -7.554688 11.210938 -8.863281 11.546875 -10.0625 C 11.878906 -11.269531 12.109375 -12.109375 12.234375 -12.578125 C 10.523438 -12.347656 8.929688 -11.582031 7.453125 -10.28125 C 5.984375 -8.976562 5.25 -7.34375 5.25 -5.375 Z M 8.453125 3.546875 C 7.722656 3.679688 7.082031 3.789062 6.53125 3.875 C 5.976562 3.957031 5.523438 4.03125 5.171875 4.09375 C 4.816406 4.15625 4.550781 4.222656 4.375 4.296875 C 4.207031 4.378906 4.125 4.515625 4.125 4.703125 C 4.125 5.066406 4.351562 5.378906 4.8125 5.640625 C 5.269531 5.910156 5.722656 6.035156 6.171875 6.015625 C 6.941406 6.015625 7.703125 5.191406 8.453125 3.546875 Z M 8.453125 3.546875 "/></g></g><g style="fill:#ffead7;fill-opacity:1;"><g transform="translate(450.163087, 88.287765)"><path style="stroke:none" d="M 19.65625 -7.203125 C 20.019531 -7.203125 20.203125 -6.734375 20.203125 -5.796875 C 20.203125 -5.285156 19.988281 -4.671875 19.5625 -3.953125 C 19.132812 -3.234375 18.578125 -2.570312 17.890625 -1.96875 C 17.210938 -1.363281 16.457031 -0.867188 15.625 -0.484375 C 14.789062 -0.0976562 13.976562 0.09375 13.1875 0.09375 C 12.101562 0.09375 11.378906 -0.851562 11.015625 -2.75 C 10.484375 -1.875 9.789062 -1.15625 8.9375 -0.59375 C 8.082031 -0.03125 6.9375 0.25 5.5 0.25 C 4.070312 0.25 2.921875 -0.195312 2.046875 -1.09375 C 1.171875 -1.988281 0.742188 -3.078125 0.765625 -4.359375 C 0.765625 -7.816406 1.914062 -10.546875 4.21875 -12.546875 C 5.1875 -13.378906 6.09375 -13.925781 6.9375 -14.1875 C 7.78125 -14.457031 8.671875 -14.59375 9.609375 -14.59375 C 10.546875 -14.59375 11.3125 -14.425781 11.90625 -14.09375 C 12.1875 -14.6875 12.507812 -14.984375 12.875 -14.984375 C 13.59375 -14.984375 14.269531 -14.671875 14.90625 -14.046875 C 15.550781 -13.429688 15.875 -12.847656 15.875 -12.296875 C 15.582031 -11.628906 15.160156 -10.828125 14.609375 -9.890625 C 14.453125 -8.953125 14.375 -7.640625 14.375 -5.953125 C 14.375 -4.265625 14.585938 -3.421875 15.015625 -3.421875 C 15.546875 -3.421875 16.828125 -4.476562 18.859375 -6.59375 C 19.222656 -7 19.488281 -7.203125 19.65625 -7.203125 Z M 5.25 -5.375 C 5.25 -3.800781 5.828125 -3.015625 6.984375 -3.015625 C 8.222656 -3.035156 9.25 -3.695312 10.0625 -5 C 10.351562 -5.445312 10.585938 -6 10.765625 -6.65625 C 10.765625 -8.925781 10.96875 -10.878906 11.375 -12.515625 C 9.726562 -12.179688 8.296875 -11.382812 7.078125 -10.125 C 5.859375 -8.863281 5.25 -7.28125 5.25 -5.375 Z M 5.25 -5.375 "/></g></g><g style="fill:#ffead7;fill-opacity:1;"><g transform="translate(467.919261, 88.287765)"><path style="stroke:none" d="M 7.71875 0.09375 C 4.8125 0.113281 2.828125 -0.972656 1.765625 -3.171875 C 1.398438 -3.941406 1.21875 -4.910156 1.21875 -6.078125 C 1.21875 -7.253906 1.320312 -8.503906 1.53125 -9.828125 C 1.9375 -12.472656 2.71875 -14.914062 3.875 -17.15625 C 4.46875 -18.289062 5.128906 -19.265625 5.859375 -20.078125 C 7.460938 -21.867188 9.253906 -22.753906 11.234375 -22.734375 C 12.109375 -22.734375 12.789062 -22.492188 13.28125 -22.015625 C 13.78125 -21.535156 14.03125 -20.847656 14.03125 -19.953125 C 14.03125 -19.054688 13.765625 -18.15625 13.234375 -17.25 C 12.710938 -16.351562 12.039062 -15.421875 11.21875 -14.453125 C 10.394531 -13.484375 9.484375 -12.46875 8.484375 -11.40625 C 7.484375 -10.351562 6.503906 -9.207031 5.546875 -7.96875 L 5.546875 -6.75 C 5.546875 -5.601562 5.789062 -4.765625 6.28125 -4.234375 C 6.769531 -3.710938 7.34375 -3.453125 8 -3.453125 C 9.75 -3.453125 11.296875 -4.316406 12.640625 -6.046875 C 13.179688 -6.753906 13.597656 -7.109375 13.890625 -7.109375 C 14.171875 -7.109375 14.3125 -6.757812 14.3125 -6.0625 C 14.3125 -5.375 14.125 -4.671875 13.75 -3.953125 C 13.375 -3.234375 12.878906 -2.570312 12.265625 -1.96875 C 11.660156 -1.363281 10.957031 -0.867188 10.15625 -0.484375 C 9.363281 -0.0976562 8.550781 0.09375 7.71875 0.09375 Z M 9.375 -16.296875 C 9.800781 -16.828125 10.132812 -17.304688 10.375 -17.734375 C 10.613281 -18.160156 10.734375 -18.601562 10.734375 -19.0625 C 10.734375 -19.519531 10.570312 -19.75 10.25 -19.75 C 9.539062 -19.75 8.753906 -19.015625 7.890625 -17.546875 C 7.023438 -16.078125 6.378906 -14.15625 5.953125 -11.78125 C 6.640625 -12.832031 7.273438 -13.710938 7.859375 -14.421875 C 8.441406 -15.140625 8.945312 -15.765625 9.375 -16.296875 Z M 9.375 -16.296875 "/></g></g><g style="fill:#ffead7;fill-opacity:1;"><g transform="translate(479.512647, 88.287765)"><path style="stroke:none" d="M 4.578125 0.09375 C 2.546875 0.09375 1.53125 -1.804688 1.53125 -5.609375 C 1.53125 -7.691406 1.78125 -9.578125 2.28125 -11.265625 C 3.082031 -13.867188 3.976562 -15.171875 4.96875 -15.171875 C 5.5625 -15.171875 6.03125 -14.769531 6.375 -13.96875 C 6.664062 -13.363281 6.800781 -12.765625 6.78125 -12.171875 C 6.78125 -11.359375 6.535156 -9.925781 6.046875 -7.875 C 5.578125 -6.082031 5.34375 -4.972656 5.34375 -4.546875 C 5.34375 -4.117188 5.445312 -3.820312 5.65625 -3.65625 C 5.875 -3.5 6.128906 -3.421875 6.421875 -3.421875 C 6.710938 -3.421875 7.082031 -3.613281 7.53125 -4 C 7.976562 -4.382812 8.425781 -4.804688 8.875 -5.265625 C 9.320312 -5.722656 9.734375 -6.144531 10.109375 -6.53125 C 10.492188 -6.914062 10.753906 -7.109375 10.890625 -7.109375 C 11.179688 -7.109375 11.328125 -6.765625 11.328125 -6.078125 C 11.328125 -4.648438 10.609375 -3.257812 9.171875 -1.90625 C 7.734375 -0.550781 6.203125 0.113281 4.578125 0.09375 Z M 5.828125 -17.640625 C 5.273438 -18.453125 5 -19.328125 5 -20.265625 C 5 -21.203125 5.144531 -21.976562 5.4375 -22.59375 C 5.738281 -23.21875 6.019531 -23.675781 6.28125 -23.96875 C 6.550781 -24.257812 6.859375 -24.40625 7.203125 -24.40625 C 7.773438 -24.40625 8.289062 -23.984375 8.75 -23.140625 C 9.21875 -22.296875 9.453125 -21.59375 9.453125 -21.03125 C 9.453125 -19.96875 9.082031 -19.132812 8.34375 -18.53125 C 7.601562 -17.9375 6.765625 -17.640625 5.828125 -17.640625 Z M 5.828125 -17.640625 "/></g></g><g style="fill:#ffead7;fill-opacity:1;"><g transform="translate(488.396334, 88.287765)"><path style="stroke:none" d=""/></g></g></g></svg>