<svg xmlns="http://www.w3.org/2000/svg" xmlns:xlink="http://www.w3.org/1999/xlink" width="1000" zoomAndPan="magnify" viewBox="0 0 750 225" height="300" preserveAspectRatio="xMidYMid meet" version="1.2"><defs><clipPath id="6ebbfb1894"><path d="M 369.101562 53.660156 L 510.394531 53.660156 L 510.394531 100.695312 L 369.101562 100.695312 Z M 369.101562 53.660156 "/></clipPath><clipPath id="0678deb7cb"><path d="M 392.621094 53.660156 L 486.699219 53.660156 C 492.9375 53.660156 498.917969 56.140625 503.328125 60.550781 C 507.738281 64.960938 510.214844 70.941406 510.214844 77.179688 C 510.214844 83.417969 507.738281 89.398438 503.328125 93.808594 C 498.917969 98.21875 492.9375 100.695312 486.699219 100.695312 L 392.621094 100.695312 C 386.382812 100.695312 380.402344 98.21875 375.992188 93.808594 C 371.582031 89.398438 369.101562 83.417969 369.101562 77.179688 C 369.101562 70.941406 371.582031 64.960938 375.992188 60.550781 C 380.402344 56.140625 386.382812 53.660156 392.621094 53.660156 Z M 392.621094 53.660156 "/></clipPath><clipPath id="d13060f44a"><path d="M 360 74 L 404 74 L 404 123 L 360 123 Z M 360 74 "/></clipPath><clipPath id="864eec4700"><path d="M 371.429688 74.050781 L 403.1875 97.511719 L 376.335938 133.859375 L 344.578125 110.398438 Z M 371.429688 74.050781 "/></clipPath><clipPath id="adeef235ff"><path d="M 360.464844 122.121094 L 403.1875 97.511719 L 371.429688 74.050781 Z M 360.464844 122.121094 "/></clipPath><clipPath id="bb31f09c5a"><path d="M 59.878906 23.945312 L 102.785156 23.945312 L 102.785156 66.851562 L 59.878906 66.851562 Z M 59.878906 23.945312 "/></clipPath><clipPath id="7e4c7f29c8"><path d="M 81.332031 23.945312 C 69.484375 23.945312 59.878906 33.550781 59.878906 45.398438 C 59.878906 57.246094 69.484375 66.851562 81.332031 66.851562 C 93.179688 66.851562 102.785156 57.246094 102.785156 45.398438 C 102.785156 33.550781 93.179688 23.945312 81.332031 23.945312 Z M 81.332031 23.945312 "/></clipPath><radialGradient gradientTransform="matrix(1,0,0,1,59.878296,23.9446)" id="54c1dfb442" gradientUnits="userSpaceOnUse" r="30.340037" cx="21.453686" fx="21.453686" cy="21.453686" fy="21.453686"><stop style="stop-color:#feffff;stop-opacity:1;" offset="0"/><stop style="stop-color:#fefffe;stop-opacity:1;" offset="0.00390625"/><stop style="stop-color:#fefefd;stop-opacity:1;" offset="0.0078125"/><stop style="stop-color:#fefefc;stop-opacity:1;" offset="0.0117188"/><stop style="stop-color:#fefefb;stop-opacity:1;" offset="0.015625"/><stop style="stop-color:#fefdfa;stop-opacity:1;" offset="0.0195312"/><stop style="stop-color:#fefdfa;stop-opacity:1;" offset="0.0234375"/><stop style="stop-color:#fefdf9;stop-opacity:1;" offset="0.0273438"/><stop style="stop-color:#fefdf8;stop-opacity:1;" offset="0.03125"/><stop style="stop-color:#fefcf7;stop-opacity:1;" offset="0.0351562"/><stop style="stop-color:#fefcf6;stop-opacity:1;" offset="0.0390625"/><stop style="stop-color:#fefcf5;stop-opacity:1;" offset="0.0429688"/><stop style="stop-color:#fefbf4;stop-opacity:1;" offset="0.046875"/><stop style="stop-color:#fefbf4;stop-opacity:1;" offset="0.0507812"/><stop style="stop-color:#fefbf3;stop-opacity:1;" offset="0.0546875"/><stop style="stop-color:#fefbf2;stop-opacity:1;" offset="0.0585938"/><stop style="stop-color:#fefaf1;stop-opacity:1;" offset="0.0625"/><stop style="stop-color:#fefaf0;stop-opacity:1;" offset="0.0664062"/><stop style="stop-color:#fefaef;stop-opacity:1;" offset="0.0703125"/><stop style="stop-color:#fef9ef;stop-opacity:1;" offset="0.0742188"/><stop style="stop-color:#fef9ee;stop-opacity:1;" offset="0.078125"/><stop style="stop-color:#fef9ed;stop-opacity:1;" offset="0.0820312"/><stop style="stop-color:#fef9ec;stop-opacity:1;" offset="0.0859375"/><stop style="stop-color:#fef8eb;stop-opacity:1;" offset="0.0898438"/><stop style="stop-color:#fef8ea;stop-opacity:1;" offset="0.09375"/><stop style="stop-color:#fef8e9;stop-opacity:1;" offset="0.0976562"/><stop style="stop-color:#fef7e9;stop-opacity:1;" offset="0.101562"/><stop style="stop-color:#fef7e8;stop-opacity:1;" offset="0.105469"/><stop style="stop-color:#fef7e7;stop-opacity:1;" offset="0.109375"/><stop style="stop-color:#fef7e6;stop-opacity:1;" offset="0.113281"/><stop style="stop-color:#fef6e5;stop-opacity:1;" offset="0.117188"/><stop style="stop-color:#fef6e4;stop-opacity:1;" offset="0.121094"/><stop style="stop-color:#fef6e4;stop-opacity:1;" offset="0.125"/><stop style="stop-color:#fef5e3;stop-opacity:1;" offset="0.128906"/><stop style="stop-color:#fef5e2;stop-opacity:1;" offset="0.132812"/><stop style="stop-color:#fef5e1;stop-opacity:1;" offset="0.136719"/><stop style="stop-color:#fef5e0;stop-opacity:1;" offset="0.140625"/><stop style="stop-color:#fef4df;stop-opacity:1;" offset="0.144531"/><stop style="stop-color:#fef4df;stop-opacity:1;" offset="0.148438"/><stop style="stop-color:#fef4de;stop-opacity:1;" offset="0.152344"/><stop style="stop-color:#fef3dd;stop-opacity:1;" offset="0.15625"/><stop style="stop-color:#fef3dc;stop-opacity:1;" offset="0.160156"/><stop style="stop-color:#fef3db;stop-opacity:1;" offset="0.164062"/><stop style="stop-color:#fef3da;stop-opacity:1;" offset="0.167969"/><stop style="stop-color:#fef2d9;stop-opacity:1;" offset="0.171875"/><stop style="stop-color:#fef2d9;stop-opacity:1;" offset="0.175781"/><stop style="stop-color:#fef2d8;stop-opacity:1;" offset="0.179688"/><stop style="stop-color:#fef1d7;stop-opacity:1;" offset="0.183594"/><stop style="stop-color:#fef1d6;stop-opacity:1;" offset="0.1875"/><stop style="stop-color:#fef1d5;stop-opacity:1;" offset="0.191406"/><stop style="stop-color:#fef1d4;stop-opacity:1;" offset="0.195312"/><stop style="stop-color:#fef0d4;stop-opacity:1;" offset="0.199219"/><stop style="stop-color:#fef0d3;stop-opacity:1;" offset="0.203125"/><stop style="stop-color:#fef0d2;stop-opacity:1;" offset="0.207031"/><stop style="stop-color:#feefd1;stop-opacity:1;" offset="0.210938"/><stop style="stop-color:#feefd0;stop-opacity:1;" offset="0.214844"/><stop style="stop-color:#feefcf;stop-opacity:1;" offset="0.21875"/><stop style="stop-color:#feefce;stop-opacity:1;" offset="0.222656"/><stop style="stop-color:#feeece;stop-opacity:1;" offset="0.226562"/><stop style="stop-color:#feeecd;stop-opacity:1;" offset="0.230469"/><stop style="stop-color:#feeecc;stop-opacity:1;" offset="0.234375"/><stop style="stop-color:#feedcb;stop-opacity:1;" offset="0.238281"/><stop style="stop-color:#feedca;stop-opacity:1;" offset="0.242188"/><stop style="stop-color:#feedc9;stop-opacity:1;" offset="0.246094"/><stop style="stop-color:#feedc9;stop-opacity:1;" offset="0.25"/><stop style="stop-color:#feecc8;stop-opacity:1;" offset="0.253906"/><stop style="stop-color:#feecc7;stop-opacity:1;" offset="0.257812"/><stop style="stop-color:#feecc6;stop-opacity:1;" offset="0.261719"/><stop style="stop-color:#feebc5;stop-opacity:1;" offset="0.265625"/><stop style="stop-color:#feebc4;stop-opacity:1;" offset="0.269531"/><stop style="stop-color:#feebc4;stop-opacity:1;" offset="0.273438"/><stop style="stop-color:#feebc3;stop-opacity:1;" offset="0.277344"/><stop style="stop-color:#feeac2;stop-opacity:1;" offset="0.28125"/><stop style="stop-color:#feeac1;stop-opacity:1;" offset="0.285156"/><stop style="stop-color:#feeac0;stop-opacity:1;" offset="0.289062"/><stop style="stop-color:#fee9bf;stop-opacity:1;" offset="0.292969"/><stop style="stop-color:#fee9be;stop-opacity:1;" offset="0.296875"/><stop style="stop-color:#fee9be;stop-opacity:1;" offset="0.300781"/><stop style="stop-color:#fee9bd;stop-opacity:1;" offset="0.304688"/><stop style="stop-color:#fee8bc;stop-opacity:1;" offset="0.308594"/><stop style="stop-color:#fee8bb;stop-opacity:1;" offset="0.3125"/><stop style="stop-color:#fee8ba;stop-opacity:1;" offset="0.316406"/><stop style="stop-color:#fee7b9;stop-opacity:1;" offset="0.320312"/><stop style="stop-color:#fee7b9;stop-opacity:1;" offset="0.324219"/><stop style="stop-color:#fee7b8;stop-opacity:1;" offset="0.328125"/><stop style="stop-color:#fee7b7;stop-opacity:1;" offset="0.332031"/><stop style="stop-color:#fee6b6;stop-opacity:1;" offset="0.335938"/><stop style="stop-color:#fee6b5;stop-opacity:1;" offset="0.339844"/><stop style="stop-color:#fee6b4;stop-opacity:1;" offset="0.34375"/><stop style="stop-color:#fee5b3;stop-opacity:1;" offset="0.347656"/><stop style="stop-color:#fee5b3;stop-opacity:1;" offset="0.351562"/><stop style="stop-color:#fee5b2;stop-opacity:1;" offset="0.355469"/><stop style="stop-color:#fee5b1;stop-opacity:1;" offset="0.359375"/><stop style="stop-color:#fee4b0;stop-opacity:1;" offset="0.363281"/><stop style="stop-color:#fee4af;stop-opacity:1;" offset="0.367188"/><stop style="stop-color:#fee4ae;stop-opacity:1;" offset="0.371094"/><stop style="stop-color:#fee4ae;stop-opacity:1;" offset="0.375"/><stop style="stop-color:#fee3ad;stop-opacity:1;" offset="0.378906"/><stop style="stop-color:#fee3ac;stop-opacity:1;" offset="0.382812"/><stop style="stop-color:#fee3ab;stop-opacity:1;" offset="0.386719"/><stop style="stop-color:#fee2aa;stop-opacity:1;" offset="0.390625"/><stop style="stop-color:#fee2a9;stop-opacity:1;" offset="0.394531"/><stop style="stop-color:#fee2a9;stop-opacity:1;" offset="0.398438"/><stop style="stop-color:#fee2a8;stop-opacity:1;" offset="0.402344"/><stop style="stop-color:#fee1a7;stop-opacity:1;" offset="0.40625"/><stop style="stop-color:#fee1a6;stop-opacity:1;" offset="0.410156"/><stop style="stop-color:#fee1a5;stop-opacity:1;" offset="0.414062"/><stop style="stop-color:#fee0a4;stop-opacity:1;" offset="0.417969"/><stop style="stop-color:#fee0a3;stop-opacity:1;" offset="0.421875"/><stop style="stop-color:#fee0a3;stop-opacity:1;" offset="0.425781"/><stop style="stop-color:#fee0a2;stop-opacity:1;" offset="0.429688"/><stop style="stop-color:#fedfa1;stop-opacity:1;" offset="0.433594"/><stop style="stop-color:#fedfa0;stop-opacity:1;" offset="0.4375"/><stop style="stop-color:#fedf9f;stop-opacity:1;" offset="0.441406"/><stop style="stop-color:#fede9e;stop-opacity:1;" offset="0.445312"/><stop style="stop-color:#fede9e;stop-opacity:1;" offset="0.449219"/><stop style="stop-color:#fede9d;stop-opacity:1;" offset="0.453125"/><stop style="stop-color:#fede9c;stop-opacity:1;" offset="0.457031"/><stop style="stop-color:#fedd9b;stop-opacity:1;" offset="0.460938"/><stop style="stop-color:#fedd9a;stop-opacity:1;" offset="0.464844"/><stop style="stop-color:#fedd99;stop-opacity:1;" offset="0.46875"/><stop style="stop-color:#fedc98;stop-opacity:1;" offset="0.472656"/><stop style="stop-color:#fedc98;stop-opacity:1;" offset="0.476562"/><stop style="stop-color:#fedc97;stop-opacity:1;" offset="0.480469"/><stop style="stop-color:#fedc96;stop-opacity:1;" offset="0.484375"/><stop style="stop-color:#fedb95;stop-opacity:1;" offset="0.488281"/><stop style="stop-color:#fedb94;stop-opacity:1;" offset="0.492188"/><stop style="stop-color:#fedb93;stop-opacity:1;" offset="0.496094"/><stop style="stop-color:#feda93;stop-opacity:1;" offset="0.5"/><stop style="stop-color:#feda92;stop-opacity:1;" offset="0.503906"/><stop style="stop-color:#feda91;stop-opacity:1;" offset="0.507812"/><stop style="stop-color:#ffda90;stop-opacity:1;" offset="0.511719"/><stop style="stop-color:#ffd98f;stop-opacity:1;" offset="0.515625"/><stop style="stop-color:#ffd98e;stop-opacity:1;" offset="0.519531"/><stop style="stop-color:#ffd98e;stop-opacity:1;" offset="0.523438"/><stop style="stop-color:#ffd88d;stop-opacity:1;" offset="0.527344"/><stop style="stop-color:#ffd88c;stop-opacity:1;" offset="0.53125"/><stop style="stop-color:#ffd88b;stop-opacity:1;" offset="0.535156"/><stop style="stop-color:#ffd88a;stop-opacity:1;" offset="0.539062"/><stop style="stop-color:#ffd789;stop-opacity:1;" offset="0.542969"/><stop style="stop-color:#ffd788;stop-opacity:1;" offset="0.546875"/><stop style="stop-color:#ffd788;stop-opacity:1;" offset="0.550781"/><stop style="stop-color:#ffd687;stop-opacity:1;" offset="0.554688"/><stop style="stop-color:#ffd686;stop-opacity:1;" offset="0.558594"/><stop style="stop-color:#ffd685;stop-opacity:1;" offset="0.5625"/><stop style="stop-color:#ffd684;stop-opacity:1;" offset="0.566406"/><stop style="stop-color:#ffd583;stop-opacity:1;" offset="0.570312"/><stop style="stop-color:#ffd583;stop-opacity:1;" offset="0.574219"/><stop style="stop-color:#ffd582;stop-opacity:1;" offset="0.578125"/><stop style="stop-color:#ffd481;stop-opacity:1;" offset="0.582031"/><stop style="stop-color:#ffd480;stop-opacity:1;" offset="0.585938"/><stop style="stop-color:#ffd47f;stop-opacity:1;" offset="0.589844"/><stop style="stop-color:#ffd47e;stop-opacity:1;" offset="0.59375"/><stop style="stop-color:#ffd37d;stop-opacity:1;" offset="0.597656"/><stop style="stop-color:#ffd37d;stop-opacity:1;" offset="0.601562"/><stop style="stop-color:#ffd37c;stop-opacity:1;" offset="0.605469"/><stop style="stop-color:#ffd27b;stop-opacity:1;" offset="0.609375"/><stop style="stop-color:#ffd27a;stop-opacity:1;" offset="0.613281"/><stop style="stop-color:#ffd279;stop-opacity:1;" offset="0.617188"/><stop style="stop-color:#ffd278;stop-opacity:1;" offset="0.621094"/><stop style="stop-color:#ffd178;stop-opacity:1;" offset="0.625"/><stop style="stop-color:#ffd177;stop-opacity:1;" offset="0.628906"/><stop style="stop-color:#ffd176;stop-opacity:1;" offset="0.632812"/><stop style="stop-color:#ffd075;stop-opacity:1;" offset="0.636719"/><stop style="stop-color:#ffd074;stop-opacity:1;" offset="0.640625"/><stop style="stop-color:#ffd073;stop-opacity:1;" offset="0.644531"/><stop style="stop-color:#ffd073;stop-opacity:1;" offset="0.648438"/><stop style="stop-color:#ffcf72;stop-opacity:1;" offset="0.652344"/><stop style="stop-color:#ffcf71;stop-opacity:1;" offset="0.65625"/><stop style="stop-color:#ffcf70;stop-opacity:1;" offset="0.660156"/><stop style="stop-color:#ffce6f;stop-opacity:1;" offset="0.664062"/><stop style="stop-color:#ffce6e;stop-opacity:1;" offset="0.667969"/><stop style="stop-color:#ffce6d;stop-opacity:1;" offset="0.671875"/><stop style="stop-color:#ffce6d;stop-opacity:1;" offset="0.675781"/><stop style="stop-color:#ffcd6c;stop-opacity:1;" offset="0.679688"/><stop style="stop-color:#ffcd6b;stop-opacity:1;" offset="0.683594"/><stop style="stop-color:#ffcd6a;stop-opacity:1;" offset="0.6875"/><stop style="stop-color:#ffcc69;stop-opacity:1;" offset="0.691406"/><stop style="stop-color:#ffcc68;stop-opacity:1;" offset="0.695312"/><stop style="stop-color:#ffcc68;stop-opacity:1;" offset="0.699219"/><stop style="stop-color:#ffcc67;stop-opacity:1;" offset="0.703125"/><stop style="stop-color:#ffcb66;stop-opacity:1;" offset="0.707031"/><stop style="stop-color:#ffcb65;stop-opacity:1;" offset="0.710938"/><stop style="stop-color:#ffcb64;stop-opacity:1;" offset="0.714844"/><stop style="stop-color:#ffca63;stop-opacity:1;" offset="0.71875"/><stop style="stop-color:#ffca62;stop-opacity:1;" offset="0.722656"/><stop style="stop-color:#ffca62;stop-opacity:1;" offset="0.726562"/><stop style="stop-color:#ffca61;stop-opacity:1;" offset="0.730469"/><stop style="stop-color:#ffc960;stop-opacity:1;" offset="0.734375"/><stop style="stop-color:#ffc95f;stop-opacity:1;" offset="0.738281"/><stop style="stop-color:#ffc95e;stop-opacity:1;" offset="0.742188"/><stop style="stop-color:#ffc85d;stop-opacity:1;" offset="0.746094"/><stop style="stop-color:#ffc85d;stop-opacity:1;" offset="0.75"/><stop style="stop-color:#ffc85c;stop-opacity:1;" offset="0.753906"/><stop style="stop-color:#ffc85b;stop-opacity:1;" offset="0.757812"/><stop style="stop-color:#ffc75a;stop-opacity:1;" offset="0.761719"/><stop style="stop-color:#ffc759;stop-opacity:1;" offset="0.765625"/><stop style="stop-color:#ffc758;stop-opacity:1;" offset="0.769531"/><stop style="stop-color:#ffc658;stop-opacity:1;" offset="0.773438"/><stop style="stop-color:#ffc657;stop-opacity:1;" offset="0.777344"/><stop style="stop-color:#ffc656;stop-opacity:1;" offset="0.78125"/><stop style="stop-color:#ffc655;stop-opacity:1;" offset="0.785156"/><stop style="stop-color:#ffc554;stop-opacity:1;" offset="0.789062"/><stop style="stop-color:#ffc553;stop-opacity:1;" offset="0.792969"/><stop style="stop-color:#ffc552;stop-opacity:1;" offset="0.796875"/><stop style="stop-color:#ffc452;stop-opacity:1;" offset="0.800781"/><stop style="stop-color:#ffc451;stop-opacity:1;" offset="0.804688"/><stop style="stop-color:#ffc450;stop-opacity:1;" offset="0.808594"/><stop style="stop-color:#ffc44f;stop-opacity:1;" offset="0.8125"/><stop style="stop-color:#ffc34e;stop-opacity:1;" offset="0.816406"/><stop style="stop-color:#ffc34d;stop-opacity:1;" offset="0.820312"/><stop style="stop-color:#ffc34d;stop-opacity:1;" offset="0.824219"/><stop style="stop-color:#ffc24c;stop-opacity:1;" offset="0.828125"/><stop style="stop-color:#ffc24b;stop-opacity:1;" offset="0.832031"/><stop style="stop-color:#ffc24a;stop-opacity:1;" offset="0.835938"/><stop style="stop-color:#ffc249;stop-opacity:1;" offset="0.839844"/><stop style="stop-color:#ffc148;stop-opacity:1;" offset="0.84375"/><stop style="stop-color:#ffc147;stop-opacity:1;" offset="0.847656"/><stop style="stop-color:#ffc147;stop-opacity:1;" offset="0.851562"/><stop style="stop-color:#ffc046;stop-opacity:1;" offset="0.855469"/><stop style="stop-color:#ffc045;stop-opacity:1;" offset="0.859375"/><stop style="stop-color:#ffc044;stop-opacity:1;" offset="0.863281"/><stop style="stop-color:#ffc043;stop-opacity:1;" offset="0.867188"/><stop style="stop-color:#ffbf42;stop-opacity:1;" offset="0.871094"/><stop style="stop-color:#ffbf42;stop-opacity:1;" offset="0.875"/><stop style="stop-color:#ffbf41;stop-opacity:1;" offset="0.878906"/><stop style="stop-color:#ffbe40;stop-opacity:1;" offset="0.882812"/><stop style="stop-color:#ffbe3f;stop-opacity:1;" offset="0.886719"/><stop style="stop-color:#ffbe3e;stop-opacity:1;" offset="0.890625"/><stop style="stop-color:#ffbe3d;stop-opacity:1;" offset="0.894531"/><stop style="stop-color:#ffbd3d;stop-opacity:1;" offset="0.898438"/><stop style="stop-color:#ffbd3c;stop-opacity:1;" offset="0.902344"/><stop style="stop-color:#ffbd3b;stop-opacity:1;" offset="0.90625"/><stop style="stop-color:#ffbc3a;stop-opacity:1;" offset="0.910156"/><stop style="stop-color:#ffbc39;stop-opacity:1;" offset="0.914062"/><stop style="stop-color:#ffbc38;stop-opacity:1;" offset="0.917969"/><stop style="stop-color:#ffbc37;stop-opacity:1;" offset="0.921875"/><stop style="stop-color:#ffbb37;stop-opacity:1;" offset="0.925781"/><stop style="stop-color:#ffbb36;stop-opacity:1;" offset="0.929688"/><stop style="stop-color:#ffbb35;stop-opacity:1;" offset="0.933594"/><stop style="stop-color:#ffba34;stop-opacity:1;" offset="0.9375"/><stop style="stop-color:#ffba33;stop-opacity:1;" offset="0.941406"/><stop style="stop-color:#ffba32;stop-opacity:1;" offset="0.945312"/><stop style="stop-color:#ffba32;stop-opacity:1;" offset="0.949219"/><stop style="stop-color:#ffb931;stop-opacity:1;" offset="0.953125"/><stop style="stop-color:#ffb930;stop-opacity:1;" offset="0.957031"/><stop style="stop-color:#ffb92f;stop-opacity:1;" offset="0.960938"/><stop style="stop-color:#ffb82e;stop-opacity:1;" offset="0.964844"/><stop style="stop-color:#ffb82d;stop-opacity:1;" offset="0.96875"/><stop style="stop-color:#ffb82c;stop-opacity:1;" offset="0.972656"/><stop style="stop-color:#ffb82c;stop-opacity:1;" offset="0.976562"/><stop style="stop-color:#ffb72b;stop-opacity:1;" offset="0.980469"/><stop style="stop-color:#ffb72a;stop-opacity:1;" offset="0.984375"/><stop style="stop-color:#ffb729;stop-opacity:1;" offset="0.988281"/><stop style="stop-color:#ffb628;stop-opacity:1;" offset="0.992188"/><stop style="stop-color:#ffb627;stop-opacity:1;" offset="0.996094"/><stop style="stop-color:#ffb627;stop-opacity:1;" offset="1"/></radialGradient><clipPath id="fbc44dbeab"><path d="M 118.425781 39.855469 L 161.335938 39.855469 L 161.335938 82.761719 L 118.425781 82.761719 Z M 118.425781 39.855469 "/></clipPath><clipPath id="f186d63c28"><path d="M 139.878906 39.855469 C 128.03125 39.855469 118.425781 49.460938 118.425781 61.308594 C 118.425781 73.15625 128.03125 82.761719 139.878906 82.761719 C 151.730469 82.761719 161.335938 73.15625 161.335938 61.308594 C 161.335938 49.460938 151.730469 39.855469 139.878906 39.855469 Z M 139.878906 39.855469 "/></clipPath><radialGradient gradientTransform="matrix(1,0,0,1,118.42688,39.85454)" id="39265d5d80" gradientUnits="userSpaceOnUse" r="30.340037" cx="21.453686" fx="21.453686" cy="21.453686" fy="21.453686"><stop style="stop-color:#feffff;stop-opacity:1;" offset="0"/><stop style="stop-color:#fefffe;stop-opacity:1;" offset="0.00390625"/><stop style="stop-color:#fefefd;stop-opacity:1;" offset="0.0078125"/><stop style="stop-color:#fefefc;stop-opacity:1;" offset="0.0117188"/><stop style="stop-color:#fefefb;stop-opacity:1;" offset="0.015625"/><stop style="stop-color:#fefdfa;stop-opacity:1;" offset="0.0195312"/><stop style="stop-color:#fefdfa;stop-opacity:1;" offset="0.0234375"/><stop style="stop-color:#fefdf9;stop-opacity:1;" offset="0.0273438"/><stop style="stop-color:#fefdf8;stop-opacity:1;" offset="0.03125"/><stop style="stop-color:#fefcf7;stop-opacity:1;" offset="0.0351562"/><stop style="stop-color:#fefcf6;stop-opacity:1;" offset="0.0390625"/><stop style="stop-color:#fefcf5;stop-opacity:1;" offset="0.0429688"/><stop style="stop-color:#fefbf4;stop-opacity:1;" offset="0.046875"/><stop style="stop-color:#fefbf4;stop-opacity:1;" offset="0.0507812"/><stop style="stop-color:#fefbf3;stop-opacity:1;" offset="0.0546875"/><stop style="stop-color:#fefbf2;stop-opacity:1;" offset="0.0585938"/><stop style="stop-color:#fefaf1;stop-opacity:1;" offset="0.0625"/><stop style="stop-color:#fefaf0;stop-opacity:1;" offset="0.0664062"/><stop style="stop-color:#fefaef;stop-opacity:1;" offset="0.0703125"/><stop style="stop-color:#fef9ef;stop-opacity:1;" offset="0.0742188"/><stop style="stop-color:#fef9ee;stop-opacity:1;" offset="0.078125"/><stop style="stop-color:#fef9ed;stop-opacity:1;" offset="0.0820312"/><stop style="stop-color:#fef9ec;stop-opacity:1;" offset="0.0859375"/><stop style="stop-color:#fef8eb;stop-opacity:1;" offset="0.0898438"/><stop style="stop-color:#fef8ea;stop-opacity:1;" offset="0.09375"/><stop style="stop-color:#fef8e9;stop-opacity:1;" offset="0.0976562"/><stop style="stop-color:#fef7e9;stop-opacity:1;" offset="0.101562"/><stop style="stop-color:#fef7e8;stop-opacity:1;" offset="0.105469"/><stop style="stop-color:#fef7e7;stop-opacity:1;" offset="0.109375"/><stop style="stop-color:#fef7e6;stop-opacity:1;" offset="0.113281"/><stop style="stop-color:#fef6e5;stop-opacity:1;" offset="0.117188"/><stop style="stop-color:#fef6e4;stop-opacity:1;" offset="0.121094"/><stop style="stop-color:#fef6e4;stop-opacity:1;" offset="0.125"/><stop style="stop-color:#fef5e3;stop-opacity:1;" offset="0.128906"/><stop style="stop-color:#fef5e2;stop-opacity:1;" offset="0.132812"/><stop style="stop-color:#fef5e1;stop-opacity:1;" offset="0.136719"/><stop style="stop-color:#fef5e0;stop-opacity:1;" offset="0.140625"/><stop style="stop-color:#fef4df;stop-opacity:1;" offset="0.144531"/><stop style="stop-color:#fef4df;stop-opacity:1;" offset="0.148438"/><stop style="stop-color:#fef4de;stop-opacity:1;" offset="0.152344"/><stop style="stop-color:#fef3dd;stop-opacity:1;" offset="0.15625"/><stop style="stop-color:#fef3dc;stop-opacity:1;" offset="0.160156"/><stop style="stop-color:#fef3db;stop-opacity:1;" offset="0.164062"/><stop style="stop-color:#fef3da;stop-opacity:1;" offset="0.167969"/><stop style="stop-color:#fef2d9;stop-opacity:1;" offset="0.171875"/><stop style="stop-color:#fef2d9;stop-opacity:1;" offset="0.175781"/><stop style="stop-color:#fef2d8;stop-opacity:1;" offset="0.179688"/><stop style="stop-color:#fef1d7;stop-opacity:1;" offset="0.183594"/><stop style="stop-color:#fef1d6;stop-opacity:1;" offset="0.1875"/><stop style="stop-color:#fef1d5;stop-opacity:1;" offset="0.191406"/><stop style="stop-color:#fef1d4;stop-opacity:1;" offset="0.195312"/><stop style="stop-color:#fef0d4;stop-opacity:1;" offset="0.199219"/><stop style="stop-color:#fef0d3;stop-opacity:1;" offset="0.203125"/><stop style="stop-color:#fef0d2;stop-opacity:1;" offset="0.207031"/><stop style="stop-color:#feefd1;stop-opacity:1;" offset="0.210938"/><stop style="stop-color:#feefd0;stop-opacity:1;" offset="0.214844"/><stop style="stop-color:#feefcf;stop-opacity:1;" offset="0.21875"/><stop style="stop-color:#feefce;stop-opacity:1;" offset="0.222656"/><stop style="stop-color:#feeece;stop-opacity:1;" offset="0.226562"/><stop style="stop-color:#feeecd;stop-opacity:1;" offset="0.230469"/><stop style="stop-color:#feeecc;stop-opacity:1;" offset="0.234375"/><stop style="stop-color:#feedcb;stop-opacity:1;" offset="0.238281"/><stop style="stop-color:#feedca;stop-opacity:1;" offset="0.242188"/><stop style="stop-color:#feedc9;stop-opacity:1;" offset="0.246094"/><stop style="stop-color:#feedc9;stop-opacity:1;" offset="0.25"/><stop style="stop-color:#feecc8;stop-opacity:1;" offset="0.253906"/><stop style="stop-color:#feecc7;stop-opacity:1;" offset="0.257812"/><stop style="stop-color:#feecc6;stop-opacity:1;" offset="0.261719"/><stop style="stop-color:#feebc5;stop-opacity:1;" offset="0.265625"/><stop style="stop-color:#feebc4;stop-opacity:1;" offset="0.269531"/><stop style="stop-color:#feebc4;stop-opacity:1;" offset="0.273438"/><stop style="stop-color:#feebc3;stop-opacity:1;" offset="0.277344"/><stop style="stop-color:#feeac2;stop-opacity:1;" offset="0.28125"/><stop style="stop-color:#feeac1;stop-opacity:1;" offset="0.285156"/><stop style="stop-color:#feeac0;stop-opacity:1;" offset="0.289062"/><stop style="stop-color:#fee9bf;stop-opacity:1;" offset="0.292969"/><stop style="stop-color:#fee9be;stop-opacity:1;" offset="0.296875"/><stop style="stop-color:#fee9be;stop-opacity:1;" offset="0.300781"/><stop style="stop-color:#fee9bd;stop-opacity:1;" offset="0.304688"/><stop style="stop-color:#fee8bc;stop-opacity:1;" offset="0.308594"/><stop style="stop-color:#fee8bb;stop-opacity:1;" offset="0.3125"/><stop style="stop-color:#fee8ba;stop-opacity:1;" offset="0.316406"/><stop style="stop-color:#fee7b9;stop-opacity:1;" offset="0.320312"/><stop style="stop-color:#fee7b9;stop-opacity:1;" offset="0.324219"/><stop style="stop-color:#fee7b8;stop-opacity:1;" offset="0.328125"/><stop style="stop-color:#fee7b7;stop-opacity:1;" offset="0.332031"/><stop style="stop-color:#fee6b6;stop-opacity:1;" offset="0.335938"/><stop style="stop-color:#fee6b5;stop-opacity:1;" offset="0.339844"/><stop style="stop-color:#fee6b4;stop-opacity:1;" offset="0.34375"/><stop style="stop-color:#fee5b3;stop-opacity:1;" offset="0.347656"/><stop style="stop-color:#fee5b3;stop-opacity:1;" offset="0.351562"/><stop style="stop-color:#fee5b2;stop-opacity:1;" offset="0.355469"/><stop style="stop-color:#fee5b1;stop-opacity:1;" offset="0.359375"/><stop style="stop-color:#fee4b0;stop-opacity:1;" offset="0.363281"/><stop style="stop-color:#fee4af;stop-opacity:1;" offset="0.367188"/><stop style="stop-color:#fee4ae;stop-opacity:1;" offset="0.371094"/><stop style="stop-color:#fee4ae;stop-opacity:1;" offset="0.375"/><stop style="stop-color:#fee3ad;stop-opacity:1;" offset="0.378906"/><stop style="stop-color:#fee3ac;stop-opacity:1;" offset="0.382812"/><stop style="stop-color:#fee3ab;stop-opacity:1;" offset="0.386719"/><stop style="stop-color:#fee2aa;stop-opacity:1;" offset="0.390625"/><stop style="stop-color:#fee2a9;stop-opacity:1;" offset="0.394531"/><stop style="stop-color:#fee2a9;stop-opacity:1;" offset="0.398438"/><stop style="stop-color:#fee2a8;stop-opacity:1;" offset="0.402344"/><stop style="stop-color:#fee1a7;stop-opacity:1;" offset="0.40625"/><stop style="stop-color:#fee1a6;stop-opacity:1;" offset="0.410156"/><stop style="stop-color:#fee1a5;stop-opacity:1;" offset="0.414062"/><stop style="stop-color:#fee0a4;stop-opacity:1;" offset="0.417969"/><stop style="stop-color:#fee0a3;stop-opacity:1;" offset="0.421875"/><stop style="stop-color:#fee0a3;stop-opacity:1;" offset="0.425781"/><stop style="stop-color:#fee0a2;stop-opacity:1;" offset="0.429688"/><stop style="stop-color:#fedfa1;stop-opacity:1;" offset="0.433594"/><stop style="stop-color:#fedfa0;stop-opacity:1;" offset="0.4375"/><stop style="stop-color:#fedf9f;stop-opacity:1;" offset="0.441406"/><stop style="stop-color:#fede9e;stop-opacity:1;" offset="0.445312"/><stop style="stop-color:#fede9e;stop-opacity:1;" offset="0.449219"/><stop style="stop-color:#fede9d;stop-opacity:1;" offset="0.453125"/><stop style="stop-color:#fede9c;stop-opacity:1;" offset="0.457031"/><stop style="stop-color:#fedd9b;stop-opacity:1;" offset="0.460938"/><stop style="stop-color:#fedd9a;stop-opacity:1;" offset="0.464844"/><stop style="stop-color:#fedd99;stop-opacity:1;" offset="0.46875"/><stop style="stop-color:#fedc98;stop-opacity:1;" offset="0.472656"/><stop style="stop-color:#fedc98;stop-opacity:1;" offset="0.476562"/><stop style="stop-color:#fedc97;stop-opacity:1;" offset="0.480469"/><stop style="stop-color:#fedc96;stop-opacity:1;" offset="0.484375"/><stop style="stop-color:#fedb95;stop-opacity:1;" offset="0.488281"/><stop style="stop-color:#fedb94;stop-opacity:1;" offset="0.492188"/><stop style="stop-color:#fedb93;stop-opacity:1;" offset="0.496094"/><stop style="stop-color:#feda93;stop-opacity:1;" offset="0.5"/><stop style="stop-color:#feda92;stop-opacity:1;" offset="0.503906"/><stop style="stop-color:#feda91;stop-opacity:1;" offset="0.507812"/><stop style="stop-color:#ffda90;stop-opacity:1;" offset="0.511719"/><stop style="stop-color:#ffd98f;stop-opacity:1;" offset="0.515625"/><stop style="stop-color:#ffd98e;stop-opacity:1;" offset="0.519531"/><stop style="stop-color:#ffd98e;stop-opacity:1;" offset="0.523438"/><stop style="stop-color:#ffd88d;stop-opacity:1;" offset="0.527344"/><stop style="stop-color:#ffd88c;stop-opacity:1;" offset="0.53125"/><stop style="stop-color:#ffd88b;stop-opacity:1;" offset="0.535156"/><stop style="stop-color:#ffd88a;stop-opacity:1;" offset="0.539062"/><stop style="stop-color:#ffd789;stop-opacity:1;" offset="0.542969"/><stop style="stop-color:#ffd788;stop-opacity:1;" offset="0.546875"/><stop style="stop-color:#ffd788;stop-opacity:1;" offset="0.550781"/><stop style="stop-color:#ffd687;stop-opacity:1;" offset="0.554688"/><stop style="stop-color:#ffd686;stop-opacity:1;" offset="0.558594"/><stop style="stop-color:#ffd685;stop-opacity:1;" offset="0.5625"/><stop style="stop-color:#ffd684;stop-opacity:1;" offset="0.566406"/><stop style="stop-color:#ffd583;stop-opacity:1;" offset="0.570312"/><stop style="stop-color:#ffd583;stop-opacity:1;" offset="0.574219"/><stop style="stop-color:#ffd582;stop-opacity:1;" offset="0.578125"/><stop style="stop-color:#ffd481;stop-opacity:1;" offset="0.582031"/><stop style="stop-color:#ffd480;stop-opacity:1;" offset="0.585938"/><stop style="stop-color:#ffd47f;stop-opacity:1;" offset="0.589844"/><stop style="stop-color:#ffd47e;stop-opacity:1;" offset="0.59375"/><stop style="stop-color:#ffd37d;stop-opacity:1;" offset="0.597656"/><stop style="stop-color:#ffd37d;stop-opacity:1;" offset="0.601562"/><stop style="stop-color:#ffd37c;stop-opacity:1;" offset="0.605469"/><stop style="stop-color:#ffd27b;stop-opacity:1;" offset="0.609375"/><stop style="stop-color:#ffd27a;stop-opacity:1;" offset="0.613281"/><stop style="stop-color:#ffd279;stop-opacity:1;" offset="0.617188"/><stop style="stop-color:#ffd278;stop-opacity:1;" offset="0.621094"/><stop style="stop-color:#ffd178;stop-opacity:1;" offset="0.625"/><stop style="stop-color:#ffd177;stop-opacity:1;" offset="0.628906"/><stop style="stop-color:#ffd176;stop-opacity:1;" offset="0.632812"/><stop style="stop-color:#ffd075;stop-opacity:1;" offset="0.636719"/><stop style="stop-color:#ffd074;stop-opacity:1;" offset="0.640625"/><stop style="stop-color:#ffd073;stop-opacity:1;" offset="0.644531"/><stop style="stop-color:#ffd073;stop-opacity:1;" offset="0.648438"/><stop style="stop-color:#ffcf72;stop-opacity:1;" offset="0.652344"/><stop style="stop-color:#ffcf71;stop-opacity:1;" offset="0.65625"/><stop style="stop-color:#ffcf70;stop-opacity:1;" offset="0.660156"/><stop style="stop-color:#ffce6f;stop-opacity:1;" offset="0.664062"/><stop style="stop-color:#ffce6e;stop-opacity:1;" offset="0.667969"/><stop style="stop-color:#ffce6d;stop-opacity:1;" offset="0.671875"/><stop style="stop-color:#ffce6d;stop-opacity:1;" offset="0.675781"/><stop style="stop-color:#ffcd6c;stop-opacity:1;" offset="0.679688"/><stop style="stop-color:#ffcd6b;stop-opacity:1;" offset="0.683594"/><stop style="stop-color:#ffcd6a;stop-opacity:1;" offset="0.6875"/><stop style="stop-color:#ffcc69;stop-opacity:1;" offset="0.691406"/><stop style="stop-color:#ffcc68;stop-opacity:1;" offset="0.695312"/><stop style="stop-color:#ffcc68;stop-opacity:1;" offset="0.699219"/><stop style="stop-color:#ffcc67;stop-opacity:1;" offset="0.703125"/><stop style="stop-color:#ffcb66;stop-opacity:1;" offset="0.707031"/><stop style="stop-color:#ffcb65;stop-opacity:1;" offset="0.710938"/><stop style="stop-color:#ffcb64;stop-opacity:1;" offset="0.714844"/><stop style="stop-color:#ffca63;stop-opacity:1;" offset="0.71875"/><stop style="stop-color:#ffca62;stop-opacity:1;" offset="0.722656"/><stop style="stop-color:#ffca62;stop-opacity:1;" offset="0.726562"/><stop style="stop-color:#ffca61;stop-opacity:1;" offset="0.730469"/><stop style="stop-color:#ffc960;stop-opacity:1;" offset="0.734375"/><stop style="stop-color:#ffc95f;stop-opacity:1;" offset="0.738281"/><stop style="stop-color:#ffc95e;stop-opacity:1;" offset="0.742188"/><stop style="stop-color:#ffc85d;stop-opacity:1;" offset="0.746094"/><stop style="stop-color:#ffc85d;stop-opacity:1;" offset="0.75"/><stop style="stop-color:#ffc85c;stop-opacity:1;" offset="0.753906"/><stop style="stop-color:#ffc85b;stop-opacity:1;" offset="0.757812"/><stop style="stop-color:#ffc75a;stop-opacity:1;" offset="0.761719"/><stop style="stop-color:#ffc759;stop-opacity:1;" offset="0.765625"/><stop style="stop-color:#ffc758;stop-opacity:1;" offset="0.769531"/><stop style="stop-color:#ffc658;stop-opacity:1;" offset="0.773438"/><stop style="stop-color:#ffc657;stop-opacity:1;" offset="0.777344"/><stop style="stop-color:#ffc656;stop-opacity:1;" offset="0.78125"/><stop style="stop-color:#ffc655;stop-opacity:1;" offset="0.785156"/><stop style="stop-color:#ffc554;stop-opacity:1;" offset="0.789062"/><stop style="stop-color:#ffc553;stop-opacity:1;" offset="0.792969"/><stop style="stop-color:#ffc552;stop-opacity:1;" offset="0.796875"/><stop style="stop-color:#ffc452;stop-opacity:1;" offset="0.800781"/><stop style="stop-color:#ffc451;stop-opacity:1;" offset="0.804688"/><stop style="stop-color:#ffc450;stop-opacity:1;" offset="0.808594"/><stop style="stop-color:#ffc44f;stop-opacity:1;" offset="0.8125"/><stop style="stop-color:#ffc34e;stop-opacity:1;" offset="0.816406"/><stop style="stop-color:#ffc34d;stop-opacity:1;" offset="0.820312"/><stop style="stop-color:#ffc34d;stop-opacity:1;" offset="0.824219"/><stop style="stop-color:#ffc24c;stop-opacity:1;" offset="0.828125"/><stop style="stop-color:#ffc24b;stop-opacity:1;" offset="0.832031"/><stop style="stop-color:#ffc24a;stop-opacity:1;" offset="0.835938"/><stop style="stop-color:#ffc249;stop-opacity:1;" offset="0.839844"/><stop style="stop-color:#ffc148;stop-opacity:1;" offset="0.84375"/><stop style="stop-color:#ffc147;stop-opacity:1;" offset="0.847656"/><stop style="stop-color:#ffc147;stop-opacity:1;" offset="0.851562"/><stop style="stop-color:#ffc046;stop-opacity:1;" offset="0.855469"/><stop style="stop-color:#ffc045;stop-opacity:1;" offset="0.859375"/><stop style="stop-color:#ffc044;stop-opacity:1;" offset="0.863281"/><stop style="stop-color:#ffc043;stop-opacity:1;" offset="0.867188"/><stop style="stop-color:#ffbf42;stop-opacity:1;" offset="0.871094"/><stop style="stop-color:#ffbf42;stop-opacity:1;" offset="0.875"/><stop style="stop-color:#ffbf41;stop-opacity:1;" offset="0.878906"/><stop style="stop-color:#ffbe40;stop-opacity:1;" offset="0.882812"/><stop style="stop-color:#ffbe3f;stop-opacity:1;" offset="0.886719"/><stop style="stop-color:#ffbe3e;stop-opacity:1;" offset="0.890625"/><stop style="stop-color:#ffbe3d;stop-opacity:1;" offset="0.894531"/><stop style="stop-color:#ffbd3d;stop-opacity:1;" offset="0.898438"/><stop style="stop-color:#ffbd3c;stop-opacity:1;" offset="0.902344"/><stop style="stop-color:#ffbd3b;stop-opacity:1;" offset="0.90625"/><stop style="stop-color:#ffbc3a;stop-opacity:1;" offset="0.910156"/><stop style="stop-color:#ffbc39;stop-opacity:1;" offset="0.914062"/><stop style="stop-color:#ffbc38;stop-opacity:1;" offset="0.917969"/><stop style="stop-color:#ffbc37;stop-opacity:1;" offset="0.921875"/><stop style="stop-color:#ffbb37;stop-opacity:1;" offset="0.925781"/><stop style="stop-color:#ffbb36;stop-opacity:1;" offset="0.929688"/><stop style="stop-color:#ffbb35;stop-opacity:1;" offset="0.933594"/><stop style="stop-color:#ffba34;stop-opacity:1;" offset="0.9375"/><stop style="stop-color:#ffba33;stop-opacity:1;" offset="0.941406"/><stop style="stop-color:#ffba32;stop-opacity:1;" offset="0.945312"/><stop style="stop-color:#ffba32;stop-opacity:1;" offset="0.949219"/><stop style="stop-color:#ffb931;stop-opacity:1;" offset="0.953125"/><stop style="stop-color:#ffb930;stop-opacity:1;" offset="0.957031"/><stop style="stop-color:#ffb92f;stop-opacity:1;" offset="0.960938"/><stop style="stop-color:#ffb82e;stop-opacity:1;" offset="0.964844"/><stop style="stop-color:#ffb82d;stop-opacity:1;" offset="0.96875"/><stop style="stop-color:#ffb82c;stop-opacity:1;" offset="0.972656"/><stop style="stop-color:#ffb82c;stop-opacity:1;" offset="0.976562"/><stop style="stop-color:#ffb72b;stop-opacity:1;" offset="0.980469"/><stop style="stop-color:#ffb72a;stop-opacity:1;" offset="0.984375"/><stop style="stop-color:#ffb729;stop-opacity:1;" offset="0.988281"/><stop style="stop-color:#ffb628;stop-opacity:1;" offset="0.992188"/><stop style="stop-color:#ffb627;stop-opacity:1;" offset="0.996094"/><stop style="stop-color:#ffb627;stop-opacity:1;" offset="1"/></radialGradient></defs><g id="1b176473d2"><path style=" stroke:none;fill-rule:nonzero;fill:#ffffff;fill-opacity:1;" d="M 102.304688 45.675781 C 102.304688 46.359375 102.269531 47.042969 102.203125 47.726562 C 102.136719 48.410156 102.035156 49.085938 101.902344 49.761719 C 101.769531 50.433594 101.601562 51.097656 101.402344 51.753906 C 101.203125 52.410156 100.972656 53.054688 100.710938 53.6875 C 100.449219 54.320312 100.15625 54.941406 99.832031 55.546875 C 99.507812 56.152344 99.15625 56.738281 98.773438 57.308594 C 98.394531 57.878906 97.984375 58.429688 97.550781 58.960938 C 97.117188 59.488281 96.65625 59.996094 96.171875 60.480469 C 95.683594 60.964844 95.179688 61.425781 94.648438 61.863281 C 94.117188 62.296875 93.566406 62.703125 92.996094 63.085938 C 92.425781 63.46875 91.839844 63.820312 91.234375 64.140625 C 90.628906 64.464844 90.011719 64.757812 89.375 65.019531 C 88.742188 65.285156 88.097656 65.515625 87.441406 65.714844 C 86.785156 65.914062 86.121094 66.078125 85.449219 66.210938 C 84.777344 66.347656 84.097656 66.445312 83.414062 66.515625 C 82.734375 66.582031 82.050781 66.613281 81.363281 66.613281 C 80.675781 66.613281 79.992188 66.582031 79.3125 66.515625 C 78.628906 66.445312 77.949219 66.347656 77.277344 66.210938 C 76.605469 66.078125 75.941406 65.914062 75.285156 65.714844 C 74.628906 65.515625 73.984375 65.285156 73.351562 65.019531 C 72.714844 64.757812 72.097656 64.464844 71.492188 64.140625 C 70.886719 63.820312 70.300781 63.46875 69.730469 63.085938 C 69.160156 62.703125 68.609375 62.296875 68.078125 61.863281 C 67.546875 61.425781 67.042969 60.964844 66.554688 60.480469 C 66.070312 59.996094 65.609375 59.488281 65.175781 58.960938 C 64.742188 58.429688 64.332031 57.878906 63.953125 57.308594 C 63.570312 56.738281 63.21875 56.152344 62.894531 55.546875 C 62.570312 54.941406 62.277344 54.320312 62.015625 53.6875 C 61.753906 53.054688 61.523438 52.410156 61.324219 51.753906 C 61.125 51.097656 60.957031 50.433594 60.824219 49.761719 C 60.691406 49.085938 60.589844 48.410156 60.523438 47.726562 C 60.457031 47.042969 60.421875 46.359375 60.421875 45.675781 C 60.421875 44.988281 60.457031 44.304688 60.523438 43.621094 C 60.589844 42.941406 60.691406 42.261719 60.824219 41.589844 C 60.957031 40.917969 61.125 40.253906 61.324219 39.597656 C 61.523438 38.941406 61.753906 38.292969 62.015625 37.660156 C 62.277344 37.027344 62.570312 36.40625 62.894531 35.804688 C 63.21875 35.199219 63.570312 34.609375 63.953125 34.039062 C 64.332031 33.46875 64.742188 32.921875 65.175781 32.390625 C 65.609375 31.859375 66.070312 31.351562 66.554688 30.867188 C 67.042969 30.382812 67.546875 29.921875 68.078125 29.488281 C 68.609375 29.050781 69.160156 28.644531 69.730469 28.261719 C 70.300781 27.882812 70.886719 27.53125 71.492188 27.207031 C 72.097656 26.882812 72.714844 26.589844 73.351562 26.328125 C 73.984375 26.066406 74.628906 25.835938 75.285156 25.636719 C 75.941406 25.4375 76.605469 25.269531 77.277344 25.136719 C 77.949219 25.003906 78.628906 24.902344 79.3125 24.835938 C 79.992188 24.769531 80.675781 24.734375 81.363281 24.734375 C 82.050781 24.734375 82.734375 24.769531 83.414062 24.835938 C 84.097656 24.902344 84.777344 25.003906 85.449219 25.136719 C 86.121094 25.269531 86.785156 25.4375 87.441406 25.636719 C 88.097656 25.835938 88.742188 26.066406 89.375 26.328125 C 90.011719 26.589844 90.628906 26.882812 91.234375 27.207031 C 91.839844 27.53125 92.425781 27.882812 92.996094 28.261719 C 93.566406 28.644531 94.117188 29.050781 94.648438 29.488281 C 95.179688 29.921875 95.683594 30.382812 96.171875 30.867188 C 96.65625 31.351562 97.117188 31.859375 97.550781 32.390625 C 97.984375 32.921875 98.394531 33.46875 98.773438 34.039062 C 99.15625 34.609375 99.507812 35.199219 99.832031 35.804688 C 100.15625 36.40625 100.449219 37.027344 100.710938 37.660156 C 100.972656 38.292969 101.203125 38.941406 101.402344 39.597656 C 101.601562 40.253906 101.769531 40.917969 101.902344 41.589844 C 102.035156 42.261719 102.136719 42.941406 102.203125 43.621094 C 102.269531 44.304688 102.304688 44.988281 102.304688 45.675781 Z M 102.304688 45.675781 "/><path style=" stroke:none;fill-rule:nonzero;fill:#ffffff;fill-opacity:1;" d="M 159.699219 61.1875 C 159.699219 61.859375 159.667969 62.53125 159.601562 63.199219 C 159.535156 63.871094 159.4375 64.535156 159.304688 65.195312 C 159.175781 65.855469 159.011719 66.507812 158.816406 67.152344 C 158.621094 67.796875 158.394531 68.429688 158.136719 69.050781 C 157.878906 69.675781 157.589844 70.28125 157.273438 70.875 C 156.957031 71.46875 156.609375 72.046875 156.238281 72.605469 C 155.863281 73.164062 155.460938 73.707031 155.035156 74.226562 C 154.609375 74.746094 154.15625 75.246094 153.679688 75.71875 C 153.203125 76.195312 152.707031 76.648438 152.1875 77.074219 C 151.664062 77.503906 151.125 77.902344 150.566406 78.277344 C 150.007812 78.652344 149.429688 78.996094 148.835938 79.3125 C 148.242188 79.632812 147.632812 79.917969 147.011719 80.175781 C 146.390625 80.433594 145.757812 80.660156 145.113281 80.855469 C 144.46875 81.050781 143.816406 81.214844 143.15625 81.347656 C 142.496094 81.476562 141.832031 81.574219 141.160156 81.640625 C 140.492188 81.707031 139.820312 81.742188 139.144531 81.742188 C 138.472656 81.742188 137.800781 81.707031 137.132812 81.640625 C 136.460938 81.574219 135.796875 81.476562 135.136719 81.347656 C 134.476562 81.214844 133.824219 81.050781 133.179688 80.855469 C 132.535156 80.660156 131.902344 80.433594 131.28125 80.175781 C 130.660156 79.917969 130.050781 79.632812 129.457031 79.3125 C 128.863281 78.996094 128.285156 78.652344 127.726562 78.277344 C 127.167969 77.902344 126.628906 77.503906 126.105469 77.074219 C 125.585938 76.648438 125.089844 76.195312 124.613281 75.71875 C 124.136719 75.246094 123.683594 74.746094 123.257812 74.226562 C 122.832031 73.707031 122.429688 73.164062 122.054688 72.605469 C 121.683594 72.046875 121.335938 71.46875 121.019531 70.875 C 120.703125 70.28125 120.414062 69.675781 120.15625 69.050781 C 119.898438 68.429688 119.671875 67.796875 119.476562 67.152344 C 119.28125 66.507812 119.117188 65.855469 118.988281 65.195312 C 118.855469 64.535156 118.757812 63.871094 118.691406 63.199219 C 118.625 62.53125 118.59375 61.859375 118.59375 61.1875 C 118.59375 60.511719 118.625 59.839844 118.691406 59.171875 C 118.757812 58.5 118.855469 57.835938 118.988281 57.175781 C 119.117188 56.515625 119.28125 55.863281 119.476562 55.21875 C 119.671875 54.574219 119.898438 53.941406 120.15625 53.320312 C 120.414062 52.699219 120.703125 52.089844 121.019531 51.496094 C 121.335938 50.902344 121.683594 50.328125 122.054688 49.765625 C 122.429688 49.207031 122.832031 48.667969 123.257812 48.148438 C 123.683594 47.625 124.136719 47.128906 124.613281 46.652344 C 125.089844 46.175781 125.585938 45.726562 126.105469 45.296875 C 126.628906 44.871094 127.167969 44.46875 127.726562 44.097656 C 128.285156 43.722656 128.863281 43.375 129.457031 43.058594 C 130.050781 42.742188 130.660156 42.453125 131.28125 42.195312 C 131.902344 41.9375 132.535156 41.710938 133.179688 41.515625 C 133.824219 41.320312 134.476562 41.15625 135.136719 41.027344 C 135.796875 40.894531 136.460938 40.796875 137.132812 40.730469 C 137.800781 40.664062 138.472656 40.632812 139.144531 40.632812 C 139.820312 40.632812 140.492188 40.664062 141.160156 40.730469 C 141.832031 40.796875 142.496094 40.894531 143.15625 41.027344 C 143.816406 41.15625 144.46875 41.320312 145.113281 41.515625 C 145.757812 41.710938 146.390625 41.9375 147.011719 42.195312 C 147.632812 42.453125 148.242188 42.742188 148.835938 43.058594 C 149.429688 43.375 150.007812 43.722656 150.566406 44.097656 C 151.125 44.46875 151.664062 44.871094 152.1875 45.296875 C 152.707031 45.726562 153.203125 46.175781 153.679688 46.652344 C 154.15625 47.128906 154.609375 47.625 155.035156 48.148438 C 155.460938 48.667969 155.863281 49.207031 156.238281 49.765625 C 156.609375 50.328125 156.957031 50.902344 157.273438 51.496094 C 157.589844 52.089844 157.878906 52.699219 158.136719 53.320312 C 158.394531 53.941406 158.621094 54.574219 158.816406 55.21875 C 159.011719 55.863281 159.175781 56.515625 159.304688 57.175781 C 159.4375 57.835938 159.535156 58.5 159.601562 59.171875 C 159.667969 59.839844 159.699219 60.511719 159.699219 61.1875 Z M 159.699219 61.1875 "/><path style=" stroke:none;fill-rule:nonzero;fill:#ffffff;fill-opacity:1;" d="M 182.195312 65.644531 C 181.941406 66.390625 180.898438 69.175781 177.925781 70.882812 C 177.019531 71.402344 174.847656 72.445312 172.109375 72.046875 C 169.738281 71.699219 168.210938 70.453125 167.070312 69.523438 C 165.074219 67.898438 163.964844 66.050781 163.386719 64.871094 C 162.316406 61.539062 161.332031 58.605469 160.476562 56.144531 C 159.492188 53.300781 159.011719 52.011719 157.957031 50.519531 C 156.4375 48.367188 154.605469 47.039062 153.300781 46.253906 C 154.332031 46.101562 156.117188 46 157.957031 46.835938 C 159.320312 47.453125 160.351562 48.261719 161.445312 49.9375 C 163.515625 53.105469 165.582031 56.273438 167.652344 59.4375 C 168.179688 60.277344 169.488281 62.101562 171.917969 63.316406 C 174.84375 64.78125 177.566406 64.445312 178.511719 64.285156 C 178.277344 64.488281 174.886719 67.300781 170.949219 66.03125 C 168.921875 65.378906 167.738281 63.964844 167.265625 63.316406 C 166.425781 62.089844 165.585938 60.863281 164.742188 59.632812 C 164.796875 60.550781 165.019531 62.289062 166.101562 64.09375 C 166.492188 64.746094 168.167969 67.371094 171.527344 68.359375 C 174.265625 69.164062 176.554688 68.421875 177.925781 67.972656 C 179.882812 67.332031 181.308594 66.359375 182.195312 65.644531 Z M 182.195312 65.644531 "/><path style=" stroke:none;fill-rule:nonzero;fill:#ffffff;fill-opacity:1;" d="M 179.089844 149.800781 C 179.601562 152.285156 180.4375 156.550781 179.480469 161.820312 C 178.515625 167.121094 176.222656 170.714844 174.4375 173.453125 C 169.695312 180.734375 163.988281 184.765625 159.785156 187.671875 C 156.628906 189.851562 150.316406 193.820312 141.386719 196.703125 C 125.382812 201.867188 112.132812 199.933594 109.089844 199.4375 C 102.472656 198.363281 97.226562 196.457031 93.773438 194.980469 C 92.496094 195.773438 91.085938 196.578125 89.539062 197.371094 C 88.019531 198.148438 86.5625 198.8125 85.191406 199.378906 C 84.5 199.828125 83.601562 199.644531 83.1875 199.042969 C 82.839844 198.542969 82.875 197.824219 83.300781 197.308594 L 88.539062 192.652344 C 83.042969 188.546875 78.503906 184.742188 74.964844 181.601562 C 70.257812 177.425781 66.855469 174.023438 64.789062 171.953125 C 60.753906 167.90625 57.960938 165.101562 54.753906 161.25 C 51.582031 157.433594 47.722656 152.800781 44.132812 145.921875 C 42.277344 142.371094 38.890625 135.726562 37.347656 126.339844 C 36.621094 121.917969 35.742188 116.265625 37.152344 109.082031 C 38.832031 100.53125 42.773438 94.789062 44.714844 92.015625 C 47.078125 88.648438 50.742188 83.539062 57.511719 79.609375 C 60.492188 77.878906 65.648438 74.878906 72.832031 74.953125 C 80.101562 75.027344 85.304688 78.207031 88.152344 79.992188 C 93.613281 83.425781 96.414062 87.3125 101.335938 94.148438 C 103.835938 97.617188 108.046875 103.542969 111.613281 112.375 C 113.015625 115.851562 115.566406 122.292969 116.652344 131.183594 C 117.316406 136.609375 118.097656 143.5625 115.683594 151.929688 C 114.617188 155.632812 113.234375 158.535156 112.195312 160.460938 C 113.222656 152.457031 112.695312 145.84375 112 141.265625 C 110.648438 132.359375 107.847656 125.894531 105.601562 120.710938 C 102.6875 113.976562 99.921875 109.613281 99.207031 108.496094 C 96.246094 103.886719 93.414062 100.558594 91.644531 98.609375 C 89.101562 95.804688 87.042969 93.566406 83.695312 91.238281 C 81.691406 89.847656 79.152344 88.113281 75.355469 86.972656 C 73.398438 86.382812 70.183594 85.453125 66.046875 86.003906 C 62.195312 86.515625 59.496094 88.0625 57.710938 89.105469 C 56.6875 89.707031 54.113281 91.304688 51.503906 94.144531 C 50.8125 94.902344 47.566406 98.519531 45.492188 104.421875 C 42.734375 112.277344 43.84375 119.136719 44.71875 124.589844 C 45.03125 126.542969 46.269531 133.585938 50.410156 141.84375 C 53.117188 147.238281 55.820312 150.671875 60.617188 156.777344 C 65.175781 162.570312 69.027344 166.613281 71.863281 169.574219 C 78.867188 176.882812 84.371094 181.542969 85.824219 182.761719 C 88.769531 185.230469 91.328125 187.191406 93.195312 188.578125 C 96.90625 185.675781 101.574219 181.855469 106.765625 177.136719 C 109.832031 174.351562 115.789062 168.796875 122.859375 161.042969 C 130.046875 153.164062 133.988281 147.835938 136.820312 143.589844 C 138.15625 141.59375 140.625 137.773438 142.445312 132.347656 C 144.253906 126.960938 144.128906 123.878906 143.996094 122.457031 C 143.875 121.121094 143.609375 118.53125 142.058594 115.671875 C 141.359375 114.378906 139.332031 110.757812 135.078125 108.886719 C 129.675781 106.507812 124.4375 108.605469 122.28125 109.46875 C 119.003906 110.78125 116.757812 112.683594 115.496094 113.925781 C 115.660156 111.964844 116.324219 107.417969 119.761719 103.261719 C 122.128906 100.402344 124.738281 99.023438 125.578125 98.609375 C 126.808594 98 131.253906 95.796875 136.4375 97.054688 C 140.863281 98.128906 143.503906 101.15625 146.519531 104.617188 C 148.324219 106.683594 149.578125 108.621094 150.398438 110.046875 C 152.234375 111.410156 154.503906 113.214844 156.992188 115.476562 C 161.890625 119.925781 165.121094 123.878906 166.300781 125.363281 C 168.289062 127.863281 171.929688 132.496094 175.21875 139.324219 C 176.847656 142.703125 178.226562 145.566406 179.097656 149.796875 Z M 165.90625 164.34375 C 167.464844 158.792969 166.929688 154.085938 166.488281 150.1875 C 165.714844 143.417969 163.625 138.378906 162.21875 135.0625 C 160.296875 130.523438 158.214844 127.101562 156.792969 124.789062 C 154.90625 121.722656 153.132812 119.238281 151.75 117.417969 C 151.859375 121.652344 151.515625 127.984375 149.035156 135.0625 C 146.519531 142.246094 142.945312 146.933594 137.207031 154.453125 C 136.175781 155.808594 131.398438 162.019531 124.023438 169.386719 C 122.285156 171.121094 116.957031 176.425781 109.285156 182.765625 C 104.628906 186.609375 100.484375 189.703125 97.238281 192.019531 C 97.9375 192.300781 98.71875 192.574219 99.585938 192.808594 C 100.113281 192.949219 100.613281 193.0625 101.089844 193.152344 C 101.089844 193.152344 105.484375 194.105469 110.253906 194.398438 C 123.429688 195.203125 135.03125 191.351562 135.03125 191.351562 C 139.960938 189.714844 147.628906 187.082031 155.046875 180.242188 C 158.488281 177.070312 163.667969 172.292969 165.90625 164.34375 Z M 165.90625 164.34375 "/><g clip-rule="nonzero" clip-path="url(#6ebbfb1894)"><g clip-rule="nonzero" clip-path="url(#0678deb7cb)"><path style=" stroke:none;fill-rule:nonzero;fill:#ffffff;fill-opacity:1;" d="M 369.101562 53.660156 L 510.210938 53.660156 L 510.210938 100.695312 L 369.101562 100.695312 Z M 369.101562 53.660156 "/></g></g><g clip-rule="nonzero" clip-path="url(#d13060f44a)"><g clip-rule="nonzero" clip-path="url(#864eec4700)"><g clip-rule="nonzero" clip-path="url(#adeef235ff)"><path style=" stroke:none;fill-rule:nonzero;fill:#ffffff;fill-opacity:1;" d="M 371.429688 74.050781 L 403.1875 97.511719 L 376.335938 133.859375 L 344.578125 110.398438 Z M 371.429688 74.050781 "/></g></g></g><g clip-rule="nonzero" clip-path="url(#bb31f09c5a)"><g clip-rule="nonzero" clip-path="url(#7e4c7f29c8)"><path style=" stroke:none;fill-rule:nonzero;fill:url(#54c1dfb442);" d="M 59.878906 23.945312 L 59.878906 66.851562 L 102.785156 66.851562 L 102.785156 23.945312 Z M 59.878906 23.945312 "/></g></g><g clip-rule="nonzero" clip-path="url(#fbc44dbeab)"><g clip-rule="nonzero" clip-path="url(#f186d63c28)"><path style=" stroke:none;fill-rule:nonzero;fill:url(#39265d5d80);" d="M 118.425781 39.855469 L 118.425781 82.761719 L 161.335938 82.761719 L 161.335938 39.855469 Z M 118.425781 39.855469 "/></g></g><g style="fill:#ffffff;fill-opacity:1;"><g transform="translate(210.729411, 155.675296)"><path style="stroke:none" d="M 27.328125 -23.515625 C 22.992188 -23.515625 20.875 -24.609375 20.96875 -26.796875 C 20.96875 -28.847656 23.046875 -29.875 27.203125 -29.875 C 28.179688 -29.875 29.117188 -29.765625 30.015625 -29.546875 C 31.484375 -31.015625 32.21875 -33.242188 32.21875 -36.234375 C 32.21875 -41.421875 28.757812 -44.015625 21.84375 -44.015625 C 18.21875 -44.015625 14.773438 -43.234375 11.515625 -41.671875 C 10.316406 -41.085938 9.234375 -40.546875 8.265625 -40.046875 C 7.304688 -39.554688 6.425781 -39.3125 5.625 -39.3125 C 4.820312 -39.3125 4.421875 -39.5625 4.421875 -40.0625 C 4.421875 -40.632812 4.863281 -41.488281 5.75 -42.625 C 6.644531 -43.769531 7.898438 -44.921875 9.515625 -46.078125 C 13.617188 -48.941406 18.285156 -50.394531 23.515625 -50.4375 C 30.347656 -50.4375 35.367188 -49.078125 38.578125 -46.359375 C 41.347656 -44.078125 42.734375 -40.972656 42.734375 -37.046875 C 42.734375 -32.484375 40.5 -29 36.03125 -26.59375 C 40.320312 -24.132812 42.867188 -21.117188 43.671875 -17.546875 C 43.941406 -16.296875 44.078125 -14.644531 44.078125 -12.59375 C 44.078125 -10.539062 43.515625 -8.597656 42.390625 -6.765625 C 41.273438 -4.929688 39.78125 -3.390625 37.90625 -2.140625 C 34.15625 0.265625 29.359375 1.46875 23.515625 1.46875 C 19.359375 1.46875 14.734375 0.53125 9.640625 -1.34375 C 6.253906 -2.59375 3.753906 -4.085938 2.140625 -5.828125 C 1.335938 -6.671875 0.945312 -7.515625 0.96875 -8.359375 C 0.988281 -9.210938 1.410156 -9.640625 2.234375 -9.640625 C 3.066406 -9.640625 4.644531 -9.351562 6.96875 -8.78125 L 6.96875 -8.84375 C 6.96875 -12.320312 7.367188 -15.894531 8.171875 -19.5625 C 9.554688 -25.945312 11.164062 -30.945312 13 -34.5625 C 14.957031 -38.582031 16.988281 -40.59375 19.09375 -40.59375 C 19.675781 -40.59375 19.96875 -39.585938 19.96875 -37.578125 C 19.96875 -35.566406 19.773438 -33.507812 19.390625 -31.40625 C 19.015625 -29.3125 18.613281 -27.25 18.1875 -25.21875 C 17.757812 -23.1875 17.351562 -21.34375 16.96875 -19.6875 C 16.59375 -18.039062 16.40625 -16.859375 16.40625 -16.140625 L 15.734375 -6.03125 C 18.367188 -5.3125 20.601562 -4.953125 22.4375 -4.953125 C 24.269531 -4.953125 25.921875 -5.265625 27.390625 -5.890625 C 31.097656 -7.453125 32.953125 -10.175781 32.953125 -14.0625 C 32.953125 -16.382812 32.726562 -18.304688 32.28125 -19.828125 C 31.832031 -21.347656 31.03125 -22.6875 29.875 -23.84375 C 28.84375 -23.625 27.992188 -23.515625 27.328125 -23.515625 Z M 27.328125 -23.515625 "/></g></g><g style="fill:#ffffff;fill-opacity:1;"><g transform="translate(258.15482, 155.675296)"><path style="stroke:none" d="M 10.046875 0.203125 C 5.578125 0.203125 3.34375 -3.972656 3.34375 -12.328125 C 3.34375 -16.878906 3.90625 -21.007812 5.03125 -24.71875 C 6.769531 -30.4375 8.734375 -33.296875 10.921875 -33.296875 C 12.210938 -33.296875 13.238281 -32.421875 14 -30.671875 C 14.625 -29.335938 14.914062 -28.023438 14.875 -26.734375 C 14.875 -24.941406 14.335938 -21.789062 13.265625 -17.28125 C 12.234375 -13.351562 11.71875 -10.921875 11.71875 -9.984375 C 11.71875 -9.046875 11.953125 -8.394531 12.421875 -8.03125 C 12.890625 -7.675781 13.445312 -7.5 14.09375 -7.5 C 14.75 -7.5 15.566406 -7.921875 16.546875 -8.765625 C 17.523438 -9.617188 18.503906 -10.546875 19.484375 -11.546875 C 20.472656 -12.554688 21.378906 -13.484375 22.203125 -14.328125 C 23.023438 -15.179688 23.59375 -15.609375 23.90625 -15.609375 C 24.53125 -15.609375 24.84375 -14.847656 24.84375 -13.328125 C 24.84375 -10.203125 23.269531 -7.15625 20.125 -4.1875 C 16.976562 -1.21875 13.617188 0.242188 10.046875 0.203125 Z M 12.796875 -38.71875 C 11.585938 -40.5 10.984375 -42.414062 10.984375 -44.46875 C 10.984375 -46.53125 11.304688 -48.238281 11.953125 -49.59375 C 12.597656 -50.957031 13.210938 -51.960938 13.796875 -52.609375 C 14.378906 -53.265625 15.050781 -53.59375 15.8125 -53.59375 C 17.0625 -53.59375 18.195312 -52.664062 19.21875 -50.8125 C 20.25 -48.957031 20.765625 -47.40625 20.765625 -46.15625 C 20.765625 -43.832031 19.945312 -42.007812 18.3125 -40.6875 C 16.6875 -39.375 14.847656 -38.71875 12.796875 -38.71875 Z M 12.796875 -38.71875 "/></g></g><g style="fill:#ffffff;fill-opacity:1;"><g transform="translate(277.647472, 155.675296)"><path style="stroke:none" d="M 7.640625 -31.484375 C 4.328125 -32.910156 2.671875 -34.296875 2.671875 -35.640625 C 2.671875 -36.347656 2.960938 -36.679688 3.546875 -36.640625 C 4.347656 -36.640625 5.265625 -36.445312 6.296875 -36.0625 C 7.328125 -35.6875 8.375 -35.390625 9.4375 -35.171875 C 13.101562 -42.085938 17.257812 -46.617188 21.90625 -48.765625 C 23.46875 -49.484375 25.03125 -49.863281 26.59375 -49.90625 C 29.675781 -49.90625 32.03125 -49.15625 33.65625 -47.65625 C 35.289062 -46.164062 36.109375 -44.347656 36.109375 -42.203125 C 36.109375 -38.359375 34.03125 -35.390625 29.875 -33.296875 C 26.476562 -31.597656 21.859375 -30.546875 16.015625 -30.140625 C 13.910156 -24.960938 12.859375 -19.40625 12.859375 -13.46875 C 12.859375 -9.039062 13.882812 -6.472656 15.9375 -5.765625 C 17.363281 -5.273438 18.4375 -5.265625 19.15625 -5.734375 C 19.875 -6.203125 20.429688 -6.828125 20.828125 -7.609375 C 21.234375 -8.390625 21.445312 -9.535156 21.46875 -11.046875 C 21.488281 -12.566406 21.0625 -13.851562 20.1875 -14.90625 C 19.320312 -15.957031 18.488281 -16.925781 17.6875 -17.8125 C 18.082031 -19.289062 18.660156 -20.519531 19.421875 -21.5 C 20.847656 -23.414062 22.078125 -24.375 23.109375 -24.375 C 24.140625 -24.375 24.976562 -24.015625 25.625 -23.296875 C 26.269531 -22.585938 26.789062 -21.695312 27.1875 -20.625 C 27.59375 -19.5625 27.914062 -18.398438 28.15625 -17.140625 C 28.40625 -15.890625 28.6875 -14.726562 29 -13.65625 C 29.3125 -12.59375 29.703125 -11.703125 30.171875 -10.984375 C 30.640625 -10.265625 31.265625 -9.90625 32.046875 -9.90625 C 32.828125 -9.90625 33.53125 -10.207031 34.15625 -10.8125 C 34.78125 -11.414062 35.335938 -12.070312 35.828125 -12.78125 C 36.328125 -13.5 36.773438 -14.160156 37.171875 -14.765625 C 37.578125 -15.367188 37.988281 -15.671875 38.40625 -15.671875 C 38.832031 -15.671875 39.257812 -15.3125 39.6875 -14.59375 C 40.113281 -13.882812 40.328125 -13.21875 40.328125 -12.59375 C 40.328125 -11.164062 39.625 -9.46875 38.21875 -7.5 C 36.8125 -5.539062 35.015625 -4.570312 32.828125 -4.59375 C 30.640625 -4.613281 28.941406 -5.070312 27.734375 -5.96875 C 26.972656 -4.082031 25.675781 -2.515625 23.84375 -1.265625 C 22.007812 -0.015625 19.40625 0.609375 16.03125 0.609375 C 12.664062 0.609375 9.78125 -0.265625 7.375 -2.015625 C 4.46875 -4.109375 3.015625 -7.367188 3.015625 -11.796875 C 3.015625 -18.085938 4.554688 -24.648438 7.640625 -31.484375 Z M 28.734375 -41 C 28.691406 -42.5625 28.125 -43.34375 27.03125 -43.34375 C 25.9375 -43.34375 24.515625 -42.515625 22.765625 -40.859375 C 21.023438 -39.203125 19.351562 -36.90625 17.75 -33.96875 C 22.613281 -34.8125 25.941406 -36.304688 27.734375 -38.453125 C 28.359375 -39.253906 28.691406 -40.101562 28.734375 -41 Z M 28.734375 -41 "/></g></g><g style="fill:#ffffff;fill-opacity:1;"><g transform="translate(312.278743, 155.675296)"><path style="stroke:none" d="M 43.140625 -15.8125 C 43.941406 -15.8125 44.34375 -14.785156 44.34375 -12.734375 C 44.34375 -11.609375 43.875 -10.253906 42.9375 -8.671875 C 42 -7.085938 40.78125 -5.632812 39.28125 -4.3125 C 37.789062 -3 36.128906 -1.914062 34.296875 -1.0625 C 32.460938 -0.21875 30.675781 0.203125 28.9375 0.203125 C 26.570312 0.203125 24.988281 -1.875 24.1875 -6.03125 C 23.019531 -4.101562 21.5 -2.523438 19.625 -1.296875 C 17.75 -0.078125 15.238281 0.53125 12.09375 0.53125 C 8.945312 0.53125 6.410156 -0.445312 4.484375 -2.40625 C 2.566406 -4.375 1.628906 -6.765625 1.671875 -9.578125 C 1.671875 -17.171875 4.195312 -23.15625 9.25 -27.53125 C 11.382812 -29.363281 13.378906 -30.566406 15.234375 -31.140625 C 17.085938 -31.722656 19.039062 -32.015625 21.09375 -32.015625 C 23.15625 -32.015625 24.832031 -31.660156 26.125 -30.953125 C 26.75 -32.242188 27.460938 -32.890625 28.265625 -32.890625 C 29.828125 -32.890625 31.3125 -32.207031 32.71875 -30.84375 C 34.125 -29.476562 34.828125 -28.195312 34.828125 -27 C 34.203125 -25.519531 33.285156 -23.753906 32.078125 -21.703125 C 31.722656 -19.648438 31.546875 -16.769531 31.546875 -13.0625 C 31.546875 -9.351562 32.015625 -7.5 32.953125 -7.5 C 34.117188 -7.5 36.929688 -9.820312 41.390625 -14.46875 C 42.203125 -15.363281 42.785156 -15.8125 43.140625 -15.8125 Z M 11.515625 -11.796875 C 11.515625 -8.347656 12.789062 -6.625 15.34375 -6.625 C 18.0625 -6.675781 20.316406 -8.128906 22.109375 -10.984375 C 22.734375 -11.960938 23.242188 -13.171875 23.640625 -14.609375 C 23.640625 -19.609375 24.085938 -23.894531 24.984375 -27.46875 C 21.367188 -26.75 18.21875 -25.003906 15.53125 -22.234375 C 12.851562 -19.460938 11.515625 -15.984375 11.515625 -11.796875 Z M 11.515625 -11.796875 "/></g></g><g style="fill:#ffffff;fill-opacity:1;"><g transform="translate(351.264035, 155.675296)"><path style="stroke:none" d="M 24.3125 -22.5 C 24.3125 -24.113281 23.363281 -24.921875 21.46875 -24.921875 C 19.570312 -24.921875 17.707031 -23.457031 15.875 -20.53125 C 14.039062 -17.601562 12.898438 -14.625 12.453125 -11.59375 C 12.546875 -10.5625 12.632812 -9.53125 12.71875 -8.5 C 12.8125 -7.476562 12.859375 -6.476562 12.859375 -5.5 C 12.859375 -3.125 12.078125 -1.515625 10.515625 -0.671875 C 9.796875 -0.265625 9.113281 0.113281 8.46875 0.46875 C 7.820312 0.820312 7.070312 1 6.21875 1 C 5.375 1 4.628906 0.429688 3.984375 -0.703125 C 3.335938 -1.835938 3.015625 -3.613281 3.015625 -6.03125 C 3.015625 -12.769531 3.503906 -18.617188 4.484375 -23.578125 C 6.003906 -31.253906 9.019531 -39.472656 13.53125 -48.234375 C 14.15625 -49.429688 15.066406 -50.019531 16.265625 -50 C 17.472656 -49.976562 18.457031 -49.140625 19.21875 -47.484375 C 19.976562 -45.835938 20.347656 -44.457031 20.328125 -43.34375 C 20.304688 -42.226562 20.128906 -41.144531 19.796875 -40.09375 C 19.460938 -39.039062 19.035156 -38.007812 18.515625 -37 C 18.003906 -36 17.425781 -34.972656 16.78125 -33.921875 C 16.132812 -32.878906 15.5 -31.753906 14.875 -30.546875 L 13.859375 -25.71875 C 15.609375 -28.625 17.957031 -30.566406 20.90625 -31.546875 C 21.96875 -31.898438 23.148438 -32.078125 24.453125 -32.078125 C 27.484375 -32.078125 29.78125 -31.394531 31.34375 -30.03125 C 32.90625 -28.675781 33.6875 -26.757812 33.6875 -24.28125 C 33.6875 -21.800781 33.363281 -19.285156 32.71875 -16.734375 C 32.070312 -14.191406 31.601562 -12.375 31.3125 -11.28125 C 31.019531 -10.1875 30.875 -9.28125 30.875 -8.5625 C 30.875 -7.851562 31.117188 -7.5 31.609375 -7.5 C 32.285156 -7.5 33.113281 -7.921875 34.09375 -8.765625 C 35.070312 -9.617188 36.050781 -10.546875 37.03125 -11.546875 C 38.019531 -12.554688 38.925781 -13.484375 39.75 -14.328125 C 40.582031 -15.179688 41.15625 -15.609375 41.46875 -15.609375 C 42.09375 -15.609375 42.40625 -14.847656 42.40625 -13.328125 C 42.40625 -10.203125 40.863281 -7.1875 37.78125 -4.28125 C 32.601562 -1.25 29.296875 0.265625 27.859375 0.265625 C 27.734375 0.265625 27.644531 0.242188 27.59375 0.203125 C 24.019531 0.203125 22.234375 -2.65625 22.234375 -8.375 C 22.234375 -10.832031 22.46875 -13.085938 22.9375 -15.140625 C 23.40625 -17.191406 23.75 -18.6875 23.96875 -19.625 C 24.195312 -20.5625 24.3125 -21.519531 24.3125 -22.5 Z M 24.3125 -22.5 "/></g></g><g style="fill:#ffffff;fill-opacity:1;"><g transform="translate(388.306767, 155.675296)"><path style="stroke:none" d="M 29.078125 -5.6875 C 25.546875 -1.539062 21.3125 0.53125 16.375 0.53125 C 11.4375 0.53125 7.738281 -0.726562 5.28125 -3.25 C 2.832031 -5.769531 1.628906 -8.90625 1.671875 -12.65625 C 1.628906 -17.96875 3.304688 -22.546875 6.703125 -26.390625 C 10.097656 -30.234375 14.539062 -32.15625 20.03125 -32.15625 C 22.53125 -32.15625 24.539062 -31.84375 26.0625 -31.21875 C 28.695312 -30.144531 30.015625 -29.140625 30.015625 -28.203125 C 30.015625 -27.484375 28.171875 -27.113281 24.484375 -27.09375 C 20.796875 -27.070312 17.710938 -25.800781 15.234375 -23.28125 C 12.753906 -20.757812 11.515625 -17.578125 11.515625 -13.734375 C 11.515625 -11.722656 12.109375 -10.035156 13.296875 -8.671875 C 14.484375 -7.304688 16.15625 -6.625 18.3125 -6.625 C 20.476562 -6.625 22.28125 -7.070312 23.71875 -7.96875 C 20.539062 -10.113281 18.953125 -13.21875 18.953125 -17.28125 C 18.910156 -19.425781 19.679688 -21.378906 21.265625 -23.140625 C 22.847656 -24.898438 24.878906 -25.789062 27.359375 -25.8125 C 29.835938 -25.84375 31.613281 -25.164062 32.6875 -23.78125 C 33.757812 -22.394531 34.296875 -20.617188 34.296875 -18.453125 C 34.296875 -16.285156 33.78125 -14 32.75 -11.59375 L 33.15625 -11.59375 C 35.125 -11.632812 36.820312 -12.328125 38.25 -13.671875 C 38.78125 -14.203125 39.234375 -14.664062 39.609375 -15.0625 C 39.992188 -15.46875 40.390625 -15.671875 40.796875 -15.671875 C 41.421875 -15.671875 41.734375 -14.9375 41.734375 -13.46875 C 41.734375 -10.738281 40.925781 -8.691406 39.3125 -7.328125 C 37.707031 -5.972656 35.929688 -5.296875 33.984375 -5.296875 C 32.046875 -5.296875 30.410156 -5.425781 29.078125 -5.6875 Z M 28.46875 -13.46875 C 29.226562 -15.070312 29.609375 -16.632812 29.609375 -18.15625 C 29.609375 -19.675781 29.117188 -20.4375 28.140625 -20.4375 C 27.734375 -20.4375 27.394531 -20.144531 27.125 -19.5625 C 26.863281 -18.976562 26.734375 -18.421875 26.734375 -17.890625 C 26.734375 -16.097656 27.3125 -14.625 28.46875 -13.46875 Z M 28.46875 -13.46875 "/></g></g><g style="fill:#ffffff;fill-opacity:1;"><g transform="translate(424.679652, 155.675296)"><path style="stroke:none" d=""/></g></g><g style="fill:#ffffff;fill-opacity:1;"><g transform="translate(451.473662, 155.675296)"><path style="stroke:none" d="M 27.328125 -23.515625 C 22.992188 -23.515625 20.875 -24.609375 20.96875 -26.796875 C 20.96875 -28.847656 23.046875 -29.875 27.203125 -29.875 C 28.179688 -29.875 29.117188 -29.765625 30.015625 -29.546875 C 31.484375 -31.015625 32.21875 -33.242188 32.21875 -36.234375 C 32.21875 -41.421875 28.757812 -44.015625 21.84375 -44.015625 C 18.21875 -44.015625 14.773438 -43.234375 11.515625 -41.671875 C 10.316406 -41.085938 9.234375 -40.546875 8.265625 -40.046875 C 7.304688 -39.554688 6.425781 -39.3125 5.625 -39.3125 C 4.820312 -39.3125 4.421875 -39.5625 4.421875 -40.0625 C 4.421875 -40.632812 4.863281 -41.488281 5.75 -42.625 C 6.644531 -43.769531 7.898438 -44.921875 9.515625 -46.078125 C 13.617188 -48.941406 18.285156 -50.394531 23.515625 -50.4375 C 30.347656 -50.4375 35.367188 -49.078125 38.578125 -46.359375 C 41.347656 -44.078125 42.734375 -40.972656 42.734375 -37.046875 C 42.734375 -32.484375 40.5 -29 36.03125 -26.59375 C 40.320312 -24.132812 42.867188 -21.117188 43.671875 -17.546875 C 43.941406 -16.296875 44.078125 -14.644531 44.078125 -12.59375 C 44.078125 -10.539062 43.515625 -8.597656 42.390625 -6.765625 C 41.273438 -4.929688 39.78125 -3.390625 37.90625 -2.140625 C 34.15625 0.265625 29.359375 1.46875 23.515625 1.46875 C 19.359375 1.46875 14.734375 0.53125 9.640625 -1.34375 C 6.253906 -2.59375 3.753906 -4.085938 2.140625 -5.828125 C 1.335938 -6.671875 0.945312 -7.515625 0.96875 -8.359375 C 0.988281 -9.210938 1.410156 -9.640625 2.234375 -9.640625 C 3.066406 -9.640625 4.644531 -9.351562 6.96875 -8.78125 L 6.96875 -8.84375 C 6.96875 -12.320312 7.367188 -15.894531 8.171875 -19.5625 C 9.554688 -25.945312 11.164062 -30.945312 13 -34.5625 C 14.957031 -38.582031 16.988281 -40.59375 19.09375 -40.59375 C 19.675781 -40.59375 19.96875 -39.585938 19.96875 -37.578125 C 19.96875 -35.566406 19.773438 -33.507812 19.390625 -31.40625 C 19.015625 -29.3125 18.613281 -27.25 18.1875 -25.21875 C 17.757812 -23.1875 17.351562 -21.34375 16.96875 -19.6875 C 16.59375 -18.039062 16.40625 -16.859375 16.40625 -16.140625 L 15.734375 -6.03125 C 18.367188 -5.3125 20.601562 -4.953125 22.4375 -4.953125 C 24.269531 -4.953125 25.921875 -5.265625 27.390625 -5.890625 C 31.097656 -7.453125 32.953125 -10.175781 32.953125 -14.0625 C 32.953125 -16.382812 32.726562 -18.304688 32.28125 -19.828125 C 31.832031 -21.347656 31.03125 -22.6875 29.875 -23.84375 C 28.84375 -23.625 27.992188 -23.515625 27.328125 -23.515625 Z M 27.328125 -23.515625 "/></g></g><g style="fill:#ffffff;fill-opacity:1;"><g transform="translate(498.899071, 155.675296)"><path style="stroke:none" d="M 43.140625 -15.8125 C 43.941406 -15.8125 44.34375 -14.785156 44.34375 -12.734375 C 44.34375 -11.609375 43.875 -10.253906 42.9375 -8.671875 C 42 -7.085938 40.78125 -5.632812 39.28125 -4.3125 C 37.789062 -3 36.128906 -1.914062 34.296875 -1.0625 C 32.460938 -0.21875 30.675781 0.203125 28.9375 0.203125 C 26.570312 0.203125 24.988281 -1.875 24.1875 -6.03125 C 23.019531 -4.101562 21.5 -2.523438 19.625 -1.296875 C 17.75 -0.078125 15.238281 0.53125 12.09375 0.53125 C 8.945312 0.53125 6.410156 -0.445312 4.484375 -2.40625 C 2.566406 -4.375 1.628906 -6.765625 1.671875 -9.578125 C 1.671875 -17.171875 4.195312 -23.15625 9.25 -27.53125 C 11.382812 -29.363281 13.378906 -30.566406 15.234375 -31.140625 C 17.085938 -31.722656 19.039062 -32.015625 21.09375 -32.015625 C 23.15625 -32.015625 24.832031 -31.660156 26.125 -30.953125 C 26.75 -32.242188 27.460938 -32.890625 28.265625 -32.890625 C 29.828125 -32.890625 31.3125 -32.207031 32.71875 -30.84375 C 34.125 -29.476562 34.828125 -28.195312 34.828125 -27 C 34.203125 -25.519531 33.285156 -23.753906 32.078125 -21.703125 C 31.722656 -19.648438 31.546875 -16.769531 31.546875 -13.0625 C 31.546875 -9.351562 32.015625 -7.5 32.953125 -7.5 C 34.117188 -7.5 36.929688 -9.820312 41.390625 -14.46875 C 42.203125 -15.363281 42.785156 -15.8125 43.140625 -15.8125 Z M 11.515625 -11.796875 C 11.515625 -8.347656 12.789062 -6.625 15.34375 -6.625 C 18.0625 -6.675781 20.316406 -8.128906 22.109375 -10.984375 C 22.734375 -11.960938 23.242188 -13.171875 23.640625 -14.609375 C 23.640625 -19.609375 24.085938 -23.894531 24.984375 -27.46875 C 21.367188 -26.75 18.21875 -25.003906 15.53125 -22.234375 C 12.851562 -19.460938 11.515625 -15.984375 11.515625 -11.796875 Z M 11.515625 -11.796875 "/></g></g><g style="fill:#ffffff;fill-opacity:1;"><g transform="translate(537.884376, 155.675296)"><path style="stroke:none" d="M 10.921875 -33.421875 C 12.523438 -33.421875 14.039062 -31.878906 15.46875 -28.796875 C 17.570312 -30.984375 20.175781 -32.078125 23.28125 -32.078125 C 26.382812 -32.078125 28.71875 -31.394531 30.28125 -30.03125 C 31.84375 -28.675781 32.625 -26.757812 32.625 -24.28125 C 32.625 -21.800781 32.296875 -19.285156 31.640625 -16.734375 C 30.992188 -14.191406 30.523438 -12.375 30.234375 -11.28125 C 29.953125 -10.1875 29.8125 -9.28125 29.8125 -8.5625 C 29.8125 -7.851562 30.054688 -7.5 30.546875 -7.5 C 31.210938 -7.5 32.035156 -7.921875 33.015625 -8.765625 C 34.003906 -9.617188 34.988281 -10.546875 35.96875 -11.546875 C 36.945312 -12.554688 37.847656 -13.484375 38.671875 -14.328125 C 39.503906 -15.179688 40.078125 -15.609375 40.390625 -15.609375 C 41.015625 -15.609375 41.328125 -14.847656 41.328125 -13.328125 C 41.328125 -10.203125 39.785156 -7.1875 36.703125 -4.28125 C 31.523438 -1.25 28.222656 0.265625 26.796875 0.265625 C 26.660156 0.265625 26.570312 0.242188 26.53125 0.203125 C 22.957031 0.203125 21.171875 -2.65625 21.171875 -8.375 C 21.171875 -10.832031 21.40625 -13.085938 21.875 -15.140625 C 22.34375 -17.191406 22.6875 -18.6875 22.90625 -19.625 C 23.132812 -20.5625 23.25 -21.519531 23.25 -22.5 C 23.25 -24.113281 22.320312 -24.921875 20.46875 -24.921875 C 18.613281 -24.921875 16.847656 -23.546875 15.171875 -20.796875 C 13.492188 -18.046875 12.367188 -15.203125 11.796875 -12.265625 L 11.796875 -11.796875 C 11.796875 -10.273438 12.03125 -8.707031 12.5 -7.09375 C 12.96875 -5.488281 13.203125 -4.375 13.203125 -3.75 C 13.203125 -2.226562 11.300781 -0.734375 7.5 0.734375 C 6.914062 0.960938 6.40625 1.078125 5.96875 1.078125 C 4.84375 1.078125 4.066406 0.5 3.640625 -0.65625 C 3.222656 -1.820312 3.015625 -3.632812 3.015625 -6.09375 C 3.015625 -12.4375 3.257812 -17.015625 3.75 -19.828125 C 4.414062 -24.023438 5.9375 -27.929688 8.3125 -31.546875 C 9.113281 -32.796875 9.984375 -33.421875 10.921875 -33.421875 Z M 10.921875 -33.421875 "/></g></g><g style="fill:#ffffff;fill-opacity:1;"><g transform="translate(573.855316, 155.675296)"><path style="stroke:none" d="M 43.140625 -15.8125 C 43.941406 -15.8125 44.34375 -14.785156 44.34375 -12.734375 C 44.34375 -11.609375 43.875 -10.253906 42.9375 -8.671875 C 42 -7.085938 40.78125 -5.632812 39.28125 -4.3125 C 37.789062 -3 36.128906 -1.914062 34.296875 -1.0625 C 32.460938 -0.21875 30.675781 0.203125 28.9375 0.203125 C 26.476562 0.203125 24.867188 -1.804688 24.109375 -5.828125 C 21.429688 -1.585938 17.457031 0.53125 12.1875 0.53125 C 8.976562 0.53125 6.410156 -0.445312 4.484375 -2.40625 C 2.566406 -4.375 1.628906 -6.765625 1.671875 -9.578125 C 1.671875 -17.171875 4.195312 -23.15625 9.25 -27.53125 C 12.726562 -30.519531 16.34375 -32.015625 20.09375 -32.015625 C 21.789062 -32.015625 23.128906 -31.878906 24.109375 -31.609375 L 25.65625 -31.21875 C 27.488281 -39.832031 29.609375 -45.59375 32.015625 -48.5 C 32.816406 -49.476562 33.625 -49.96875 34.4375 -49.96875 C 35.726562 -49.96875 36.929688 -49.078125 38.046875 -47.296875 C 39.023438 -45.816406 39.515625 -44.539062 39.515625 -43.46875 C 39.515625 -42.394531 39.359375 -41.34375 39.046875 -40.3125 C 38.734375 -39.289062 38.34375 -38.34375 37.875 -37.46875 C 37.40625 -36.601562 36.878906 -35.753906 36.296875 -34.921875 C 35.722656 -34.097656 35.144531 -33.265625 34.5625 -32.421875 C 33.269531 -27.597656 32.3125 -22.191406 31.6875 -16.203125 C 31.507812 -14.515625 31.421875 -13.15625 31.421875 -12.125 C 31.421875 -9.039062 31.929688 -7.5 32.953125 -7.5 C 34.117188 -7.5 36.929688 -9.820312 41.390625 -14.46875 C 42.203125 -15.363281 42.785156 -15.8125 43.140625 -15.8125 Z M 11.515625 -11.796875 C 11.515625 -8.347656 12.789062 -6.625 15.34375 -6.625 C 16.851562 -6.625 18.378906 -7.203125 19.921875 -8.359375 C 21.460938 -9.523438 22.660156 -11.472656 23.515625 -14.203125 C 23.597656 -18.222656 24.066406 -22.644531 24.921875 -27.46875 C 21.347656 -26.75 18.21875 -25.003906 15.53125 -22.234375 C 12.851562 -19.460938 11.515625 -15.984375 11.515625 -11.796875 Z M 11.515625 -11.796875 "/></g></g><g style="fill:#ffffff;fill-opacity:1;"><g transform="translate(612.84062, 155.675296)"><path style="stroke:none" d="M 24.3125 -22.5 C 24.3125 -24.113281 23.363281 -24.921875 21.46875 -24.921875 C 19.570312 -24.921875 17.707031 -23.457031 15.875 -20.53125 C 14.039062 -17.601562 12.898438 -14.625 12.453125 -11.59375 C 12.546875 -10.5625 12.632812 -9.53125 12.71875 -8.5 C 12.8125 -7.476562 12.859375 -6.476562 12.859375 -5.5 C 12.859375 -3.125 12.078125 -1.515625 10.515625 -0.671875 C 9.796875 -0.265625 9.113281 0.113281 8.46875 0.46875 C 7.820312 0.820312 7.070312 1 6.21875 1 C 5.375 1 4.628906 0.429688 3.984375 -0.703125 C 3.335938 -1.835938 3.015625 -3.613281 3.015625 -6.03125 C 3.015625 -12.769531 3.503906 -18.617188 4.484375 -23.578125 C 6.003906 -31.253906 9.019531 -39.472656 13.53125 -48.234375 C 14.15625 -49.429688 15.066406 -50.019531 16.265625 -50 C 17.472656 -49.976562 18.457031 -49.140625 19.21875 -47.484375 C 19.976562 -45.835938 20.347656 -44.457031 20.328125 -43.34375 C 20.304688 -42.226562 20.128906 -41.144531 19.796875 -40.09375 C 19.460938 -39.039062 19.035156 -38.007812 18.515625 -37 C 18.003906 -36 17.425781 -34.972656 16.78125 -33.921875 C 16.132812 -32.878906 15.5 -31.753906 14.875 -30.546875 L 13.859375 -25.71875 C 15.609375 -28.625 17.957031 -30.566406 20.90625 -31.546875 C 21.96875 -31.898438 23.148438 -32.078125 24.453125 -32.078125 C 27.484375 -32.078125 29.78125 -31.394531 31.34375 -30.03125 C 32.90625 -28.675781 33.6875 -26.757812 33.6875 -24.28125 C 33.6875 -21.800781 33.363281 -19.285156 32.71875 -16.734375 C 32.070312 -14.191406 31.601562 -12.375 31.3125 -11.28125 C 31.019531 -10.1875 30.875 -9.28125 30.875 -8.5625 C 30.875 -7.851562 31.117188 -7.5 31.609375 -7.5 C 32.285156 -7.5 33.113281 -7.921875 34.09375 -8.765625 C 35.070312 -9.617188 36.050781 -10.546875 37.03125 -11.546875 C 38.019531 -12.554688 38.925781 -13.484375 39.75 -14.328125 C 40.582031 -15.179688 41.15625 -15.609375 41.46875 -15.609375 C 42.09375 -15.609375 42.40625 -14.847656 42.40625 -13.328125 C 42.40625 -10.203125 40.863281 -7.1875 37.78125 -4.28125 C 32.601562 -1.25 29.296875 0.265625 27.859375 0.265625 C 27.734375 0.265625 27.644531 0.242188 27.59375 0.203125 C 24.019531 0.203125 22.234375 -2.65625 22.234375 -8.375 C 22.234375 -10.832031 22.46875 -13.085938 22.9375 -15.140625 C 23.40625 -17.191406 23.75 -18.6875 23.96875 -19.625 C 24.195312 -20.5625 24.3125 -21.519531 24.3125 -22.5 Z M 24.3125 -22.5 "/></g></g><g style="fill:#ffffff;fill-opacity:1;"><g transform="translate(649.883364, 155.675296)"><path style="stroke:none" d="M 43.140625 -15.8125 C 43.941406 -15.8125 44.34375 -14.785156 44.34375 -12.734375 C 44.34375 -11.609375 43.875 -10.253906 42.9375 -8.671875 C 42 -7.085938 40.78125 -5.632812 39.28125 -4.3125 C 37.789062 -3 36.128906 -1.914062 34.296875 -1.0625 C 32.460938 -0.21875 30.675781 0.203125 28.9375 0.203125 C 26.570312 0.203125 24.988281 -1.875 24.1875 -6.03125 C 23.019531 -4.101562 21.5 -2.523438 19.625 -1.296875 C 17.75 -0.078125 15.238281 0.53125 12.09375 0.53125 C 8.945312 0.53125 6.410156 -0.445312 4.484375 -2.40625 C 2.566406 -4.375 1.628906 -6.765625 1.671875 -9.578125 C 1.671875 -17.171875 4.195312 -23.15625 9.25 -27.53125 C 11.382812 -29.363281 13.378906 -30.566406 15.234375 -31.140625 C 17.085938 -31.722656 19.039062 -32.015625 21.09375 -32.015625 C 23.15625 -32.015625 24.832031 -31.660156 26.125 -30.953125 C 26.75 -32.242188 27.460938 -32.890625 28.265625 -32.890625 C 29.828125 -32.890625 31.3125 -32.207031 32.71875 -30.84375 C 34.125 -29.476562 34.828125 -28.195312 34.828125 -27 C 34.203125 -25.519531 33.285156 -23.753906 32.078125 -21.703125 C 31.722656 -19.648438 31.546875 -16.769531 31.546875 -13.0625 C 31.546875 -9.351562 32.015625 -7.5 32.953125 -7.5 C 34.117188 -7.5 36.929688 -9.820312 41.390625 -14.46875 C 42.203125 -15.363281 42.785156 -15.8125 43.140625 -15.8125 Z M 11.515625 -11.796875 C 11.515625 -8.347656 12.789062 -6.625 15.34375 -6.625 C 18.0625 -6.675781 20.316406 -8.128906 22.109375 -10.984375 C 22.734375 -11.960938 23.242188 -13.171875 23.640625 -14.609375 C 23.640625 -19.609375 24.085938 -23.894531 24.984375 -27.46875 C 21.367188 -26.75 18.21875 -25.003906 15.53125 -22.234375 C 12.851562 -19.460938 11.515625 -15.984375 11.515625 -11.796875 Z M 11.515625 -11.796875 "/></g></g><g style="fill:#ffffff;fill-opacity:1;"><g transform="translate(688.86862, 155.675296)"><path style="stroke:none" d="M 10.921875 -33.421875 C 12.523438 -33.421875 14.039062 -31.878906 15.46875 -28.796875 C 17.570312 -30.984375 20.175781 -32.078125 23.28125 -32.078125 C 26.382812 -32.078125 28.71875 -31.394531 30.28125 -30.03125 C 31.84375 -28.675781 32.625 -26.757812 32.625 -24.28125 C 32.625 -21.800781 32.296875 -19.285156 31.640625 -16.734375 C 30.992188 -14.191406 30.523438 -12.375 30.234375 -11.28125 C 29.953125 -10.1875 29.8125 -9.28125 29.8125 -8.5625 C 29.8125 -7.851562 30.054688 -7.5 30.546875 -7.5 C 31.210938 -7.5 32.035156 -7.921875 33.015625 -8.765625 C 34.003906 -9.617188 34.988281 -10.546875 35.96875 -11.546875 C 36.945312 -12.554688 37.847656 -13.484375 38.671875 -14.328125 C 39.503906 -15.179688 40.078125 -15.609375 40.390625 -15.609375 C 41.015625 -15.609375 41.328125 -14.847656 41.328125 -13.328125 C 41.328125 -10.203125 39.785156 -7.1875 36.703125 -4.28125 C 31.523438 -1.25 28.222656 0.265625 26.796875 0.265625 C 26.660156 0.265625 26.570312 0.242188 26.53125 0.203125 C 22.957031 0.203125 21.171875 -2.65625 21.171875 -8.375 C 21.171875 -10.832031 21.40625 -13.085938 21.875 -15.140625 C 22.34375 -17.191406 22.6875 -18.6875 22.90625 -19.625 C 23.132812 -20.5625 23.25 -21.519531 23.25 -22.5 C 23.25 -24.113281 22.320312 -24.921875 20.46875 -24.921875 C 18.613281 -24.921875 16.847656 -23.546875 15.171875 -20.796875 C 13.492188 -18.046875 12.367188 -15.203125 11.796875 -12.265625 L 11.796875 -11.796875 C 11.796875 -10.273438 12.03125 -8.707031 12.5 -7.09375 C 12.96875 -5.488281 13.203125 -4.375 13.203125 -3.75 C 13.203125 -2.226562 11.300781 -0.734375 7.5 0.734375 C 6.914062 0.960938 6.40625 1.078125 5.96875 1.078125 C 4.84375 1.078125 4.066406 0.5 3.640625 -0.65625 C 3.222656 -1.820312 3.015625 -3.632812 3.015625 -6.09375 C 3.015625 -12.4375 3.257812 -17.015625 3.75 -19.828125 C 4.414062 -24.023438 5.9375 -27.929688 8.3125 -31.546875 C 9.113281 -32.796875 9.984375 -33.421875 10.921875 -33.421875 Z M 10.921875 -33.421875 "/></g></g><g style="fill:#60000b;fill-opacity:1;"><g transform="translate(379.847679, 88.170683)"><path style="stroke:none" d="M 12.40625 -10.671875 C 10.445312 -10.671875 9.484375 -11.171875 9.515625 -12.171875 C 9.515625 -13.097656 10.457031 -13.5625 12.34375 -13.5625 C 12.789062 -13.5625 13.21875 -13.515625 13.625 -13.421875 C 14.300781 -14.085938 14.640625 -15.097656 14.640625 -16.453125 C 14.640625 -18.804688 13.066406 -19.984375 9.921875 -19.984375 C 8.273438 -19.984375 6.710938 -19.628906 5.234375 -18.921875 C 4.679688 -18.660156 4.1875 -18.414062 3.75 -18.1875 C 3.320312 -17.96875 2.925781 -17.859375 2.5625 -17.859375 C 2.195312 -17.859375 2.015625 -17.96875 2.015625 -18.1875 C 2.015625 -18.457031 2.210938 -18.847656 2.609375 -19.359375 C 3.015625 -19.878906 3.582031 -20.40625 4.3125 -20.9375 C 6.1875 -22.226562 8.304688 -22.882812 10.671875 -22.90625 C 13.773438 -22.90625 16.054688 -22.285156 17.515625 -21.046875 C 18.773438 -20.015625 19.40625 -18.609375 19.40625 -16.828125 C 19.40625 -14.753906 18.390625 -13.171875 16.359375 -12.078125 C 18.304688 -10.960938 19.460938 -9.59375 19.828125 -7.96875 C 19.953125 -7.40625 20.015625 -6.65625 20.015625 -5.71875 C 20.015625 -4.78125 19.757812 -3.894531 19.25 -3.0625 C 18.75 -2.238281 18.070312 -1.539062 17.21875 -0.96875 C 15.507812 0.125 13.328125 0.671875 10.671875 0.671875 C 8.785156 0.671875 6.6875 0.242188 4.375 -0.609375 C 2.832031 -1.171875 1.695312 -1.847656 0.96875 -2.640625 C 0.601562 -3.023438 0.425781 -3.410156 0.4375 -3.796875 C 0.445312 -4.179688 0.640625 -4.375 1.015625 -4.375 C 1.390625 -4.375 2.101562 -4.242188 3.15625 -3.984375 L 3.15625 -4.015625 C 3.15625 -5.597656 3.34375 -7.222656 3.71875 -8.890625 C 4.34375 -11.785156 5.070312 -14.054688 5.90625 -15.703125 C 6.789062 -17.523438 7.710938 -18.4375 8.671875 -18.4375 C 8.929688 -18.4375 9.0625 -17.976562 9.0625 -17.0625 C 9.0625 -16.15625 8.972656 -15.222656 8.796875 -14.265625 C 8.628906 -13.316406 8.445312 -12.378906 8.25 -11.453125 C 8.0625 -10.523438 7.878906 -9.6875 7.703125 -8.9375 C 7.535156 -8.1875 7.453125 -7.648438 7.453125 -7.328125 L 7.15625 -2.734375 C 8.34375 -2.410156 9.351562 -2.25 10.1875 -2.25 C 11.019531 -2.25 11.769531 -2.390625 12.4375 -2.671875 C 14.125 -3.378906 14.96875 -4.617188 14.96875 -6.390625 C 14.96875 -7.441406 14.863281 -8.3125 14.65625 -9 C 14.457031 -9.695312 14.09375 -10.304688 13.5625 -10.828125 C 13.101562 -10.722656 12.71875 -10.671875 12.40625 -10.671875 Z M 12.40625 -10.671875 "/></g></g><g style="fill:#60000b;fill-opacity:1;"><g transform="translate(401.385615, 88.170683)"><path style="stroke:none" d="M 19.59375 -7.171875 C 19.957031 -7.171875 20.140625 -6.707031 20.140625 -5.78125 C 20.140625 -5.269531 19.925781 -4.65625 19.5 -3.9375 C 19.070312 -3.21875 18.519531 -2.554688 17.84375 -1.953125 C 17.164062 -1.359375 16.410156 -0.867188 15.578125 -0.484375 C 14.742188 -0.0976562 13.929688 0.09375 13.140625 0.09375 C 12.066406 0.09375 11.347656 -0.847656 10.984375 -2.734375 C 10.453125 -1.867188 9.757812 -1.15625 8.90625 -0.59375 C 8.0625 -0.03125 6.921875 0.25 5.484375 0.25 C 4.054688 0.25 2.90625 -0.195312 2.03125 -1.09375 C 1.164062 -1.988281 0.742188 -3.070312 0.765625 -4.34375 C 0.765625 -7.789062 1.910156 -10.507812 4.203125 -12.5 C 5.171875 -13.332031 6.078125 -13.878906 6.921875 -14.140625 C 7.765625 -14.410156 8.648438 -14.546875 9.578125 -14.546875 C 10.515625 -14.546875 11.273438 -14.382812 11.859375 -14.0625 C 12.148438 -14.644531 12.476562 -14.9375 12.84375 -14.9375 C 13.550781 -14.9375 14.222656 -14.625 14.859375 -14 C 15.492188 -13.382812 15.8125 -12.804688 15.8125 -12.265625 C 15.53125 -11.585938 15.117188 -10.785156 14.578125 -9.859375 C 14.410156 -8.921875 14.328125 -7.609375 14.328125 -5.921875 C 14.328125 -4.242188 14.539062 -3.40625 14.96875 -3.40625 C 15.5 -3.40625 16.773438 -4.460938 18.796875 -6.578125 C 19.160156 -6.972656 19.425781 -7.171875 19.59375 -7.171875 Z M 5.234375 -5.359375 C 5.234375 -3.796875 5.8125 -3.015625 6.96875 -3.015625 C 8.207031 -3.035156 9.234375 -3.691406 10.046875 -4.984375 C 10.328125 -5.429688 10.554688 -5.976562 10.734375 -6.625 C 10.734375 -8.90625 10.9375 -10.851562 11.34375 -12.46875 C 9.707031 -12.144531 8.28125 -11.351562 7.0625 -10.09375 C 5.84375 -8.84375 5.234375 -7.265625 5.234375 -5.359375 Z M 5.234375 -5.359375 "/></g></g><g style="fill:#60000b;fill-opacity:1;"><g transform="translate(419.090527, 88.170683)"><path style="stroke:none" d="M 4.953125 -15.1875 C 5.679688 -15.1875 6.375 -14.484375 7.03125 -13.078125 C 7.976562 -14.078125 9.15625 -14.578125 10.5625 -14.578125 C 11.976562 -14.578125 13.039062 -14.265625 13.75 -13.640625 C 14.457031 -13.023438 14.8125 -12.15625 14.8125 -11.03125 C 14.8125 -9.90625 14.664062 -8.765625 14.375 -7.609375 C 14.082031 -6.453125 13.867188 -5.625 13.734375 -5.125 C 13.597656 -4.625 13.53125 -4.210938 13.53125 -3.890625 C 13.53125 -3.566406 13.644531 -3.40625 13.875 -3.40625 C 14.175781 -3.40625 14.550781 -3.597656 15 -3.984375 C 15.445312 -4.367188 15.890625 -4.789062 16.328125 -5.25 C 16.773438 -5.707031 17.1875 -6.128906 17.5625 -6.515625 C 17.9375 -6.898438 18.195312 -7.09375 18.34375 -7.09375 C 18.625 -7.09375 18.765625 -6.742188 18.765625 -6.046875 C 18.765625 -4.628906 18.066406 -3.265625 16.671875 -1.953125 C 14.316406 -0.566406 12.816406 0.125 12.171875 0.125 C 12.109375 0.125 12.066406 0.113281 12.046875 0.09375 C 10.421875 0.09375 9.609375 -1.203125 9.609375 -3.796875 C 9.609375 -4.910156 9.710938 -5.9375 9.921875 -6.875 C 10.140625 -7.8125 10.300781 -8.488281 10.40625 -8.90625 C 10.507812 -9.332031 10.5625 -9.769531 10.5625 -10.21875 C 10.5625 -10.945312 10.140625 -11.3125 9.296875 -11.3125 C 8.453125 -11.3125 7.648438 -10.6875 6.890625 -9.4375 C 6.128906 -8.195312 5.617188 -6.90625 5.359375 -5.5625 L 5.359375 -5.359375 C 5.359375 -4.660156 5.460938 -3.945312 5.671875 -3.21875 C 5.890625 -2.488281 6 -1.984375 6 -1.703125 C 6 -1.015625 5.132812 -0.335938 3.40625 0.328125 C 3.144531 0.429688 2.910156 0.484375 2.703125 0.484375 C 2.203125 0.484375 1.851562 0.222656 1.65625 -0.296875 C 1.46875 -0.828125 1.375 -1.648438 1.375 -2.765625 C 1.375 -5.648438 1.484375 -7.726562 1.703125 -9 C 2.003906 -10.90625 2.691406 -12.679688 3.765625 -14.328125 C 4.128906 -14.898438 4.523438 -15.1875 4.953125 -15.1875 Z M 4.953125 -15.1875 "/></g></g><g style="fill:#60000b;fill-opacity:1;"><g transform="translate(435.426503, 88.170683)"><path style="stroke:none" d="M 12.5625 -13.84375 C 12.84375 -14.738281 13.300781 -15.1875 13.9375 -15.1875 C 14.5 -15.164062 15.035156 -14.765625 15.546875 -13.984375 C 16.054688 -13.203125 16.3125 -12.597656 16.3125 -12.171875 C 16.269531 -11.335938 16.015625 -10.007812 15.546875 -8.1875 C 15.078125 -6.375 14.414062 -4.019531 13.5625 -1.125 C 14.90625 -2.15625 16.222656 -3.503906 17.515625 -5.171875 C 17.960938 -5.742188 18.34375 -6.207031 18.65625 -6.5625 C 18.976562 -6.914062 19.238281 -7.09375 19.4375 -7.09375 C 19.71875 -7.09375 19.859375 -6.765625 19.859375 -6.109375 C 19.859375 -4.835938 19.144531 -3.347656 17.71875 -1.640625 C 16.289062 0.0546875 14.539062 1.382812 12.46875 2.34375 C 12.226562 3.15625 11.960938 3.925781 11.671875 4.65625 C 11.390625 5.382812 11.03125 6.023438 10.59375 6.578125 C 9.613281 7.742188 8.128906 8.328125 6.140625 8.328125 C 4.804688 8.328125 3.664062 7.941406 2.71875 7.171875 C 1.78125 6.410156 1.3125 5.453125 1.3125 4.296875 C 1.3125 3.660156 1.519531 3.160156 1.9375 2.796875 C 2.351562 2.429688 2.925781 2.132812 3.65625 1.90625 C 4.382812 1.6875 5.238281 1.492188 6.21875 1.328125 C 7.207031 1.171875 8.257812 0.972656 9.375 0.734375 C 9.46875 0.390625 9.550781 0.0507812 9.625 -0.28125 C 9.695312 -0.625 9.773438 -0.96875 9.859375 -1.3125 C 8.742188 -0.269531 7.378906 0.25 5.765625 0.25 C 4.148438 0.25 2.90625 -0.195312 2.03125 -1.09375 C 1.164062 -1.988281 0.742188 -3.070312 0.765625 -4.34375 C 0.765625 -7.789062 1.910156 -10.507812 4.203125 -12.5 C 5.785156 -13.863281 7.425781 -14.546875 9.125 -14.546875 C 9.71875 -14.546875 10.351562 -14.472656 11.03125 -14.328125 C 11.707031 -14.179688 12.21875 -14.019531 12.5625 -13.84375 Z M 5.234375 -5.359375 C 5.234375 -3.796875 5.8125 -3.015625 6.96875 -3.015625 C 7.613281 -3.015625 8.269531 -3.253906 8.9375 -3.734375 C 9.613281 -4.222656 10.15625 -5.015625 10.5625 -6.109375 C 10.863281 -7.535156 11.179688 -8.84375 11.515625 -10.03125 C 11.847656 -11.226562 12.078125 -12.0625 12.203125 -12.53125 C 10.492188 -12.3125 8.90625 -11.550781 7.4375 -10.25 C 5.96875 -8.957031 5.234375 -7.328125 5.234375 -5.359375 Z M 8.421875 3.53125 C 7.691406 3.664062 7.050781 3.773438 6.5 3.859375 C 5.957031 3.941406 5.507812 4.015625 5.15625 4.078125 C 4.800781 4.140625 4.535156 4.207031 4.359375 4.28125 C 4.191406 4.363281 4.109375 4.5 4.109375 4.6875 C 4.109375 5.050781 4.332031 5.363281 4.78125 5.625 C 5.238281 5.894531 5.691406 6.019531 6.140625 6 C 6.910156 6 7.671875 5.175781 8.421875 3.53125 Z M 8.421875 3.53125 "/></g></g><g style="fill:#60000b;fill-opacity:1;"><g transform="translate(452.857627, 88.170683)"><path style="stroke:none" d="M 19.59375 -7.171875 C 19.957031 -7.171875 20.140625 -6.707031 20.140625 -5.78125 C 20.140625 -5.269531 19.925781 -4.65625 19.5 -3.9375 C 19.070312 -3.21875 18.519531 -2.554688 17.84375 -1.953125 C 17.164062 -1.359375 16.410156 -0.867188 15.578125 -0.484375 C 14.742188 -0.0976562 13.929688 0.09375 13.140625 0.09375 C 12.066406 0.09375 11.347656 -0.847656 10.984375 -2.734375 C 10.453125 -1.867188 9.757812 -1.15625 8.90625 -0.59375 C 8.0625 -0.03125 6.921875 0.25 5.484375 0.25 C 4.054688 0.25 2.90625 -0.195312 2.03125 -1.09375 C 1.164062 -1.988281 0.742188 -3.070312 0.765625 -4.34375 C 0.765625 -7.789062 1.910156 -10.507812 4.203125 -12.5 C 5.171875 -13.332031 6.078125 -13.878906 6.921875 -14.140625 C 7.765625 -14.410156 8.648438 -14.546875 9.578125 -14.546875 C 10.515625 -14.546875 11.273438 -14.382812 11.859375 -14.0625 C 12.148438 -14.644531 12.476562 -14.9375 12.84375 -14.9375 C 13.550781 -14.9375 14.222656 -14.625 14.859375 -14 C 15.492188 -13.382812 15.8125 -12.804688 15.8125 -12.265625 C 15.53125 -11.585938 15.117188 -10.785156 14.578125 -9.859375 C 14.410156 -8.921875 14.328125 -7.609375 14.328125 -5.921875 C 14.328125 -4.242188 14.539062 -3.40625 14.96875 -3.40625 C 15.5 -3.40625 16.773438 -4.460938 18.796875 -6.578125 C 19.160156 -6.972656 19.425781 -7.171875 19.59375 -7.171875 Z M 5.234375 -5.359375 C 5.234375 -3.796875 5.8125 -3.015625 6.96875 -3.015625 C 8.207031 -3.035156 9.234375 -3.691406 10.046875 -4.984375 C 10.328125 -5.429688 10.554688 -5.976562 10.734375 -6.625 C 10.734375 -8.90625 10.9375 -10.851562 11.34375 -12.46875 C 9.707031 -12.144531 8.28125 -11.351562 7.0625 -10.09375 C 5.84375 -8.84375 5.234375 -7.265625 5.234375 -5.359375 Z M 5.234375 -5.359375 "/></g></g><g style="fill:#60000b;fill-opacity:1;"><g transform="translate(470.562539, 88.170683)"><path style="stroke:none" d="M 7.703125 0.09375 C 4.796875 0.113281 2.816406 -0.96875 1.765625 -3.15625 C 1.398438 -3.925781 1.21875 -4.894531 1.21875 -6.0625 C 1.21875 -7.226562 1.316406 -8.472656 1.515625 -9.796875 C 1.921875 -12.429688 2.703125 -14.863281 3.859375 -17.09375 C 4.453125 -18.226562 5.113281 -19.203125 5.84375 -20.015625 C 7.445312 -21.796875 9.226562 -22.679688 11.1875 -22.671875 C 12.0625 -22.671875 12.75 -22.429688 13.25 -21.953125 C 13.75 -21.472656 14 -20.785156 14 -19.890625 C 14 -19.003906 13.734375 -18.109375 13.203125 -17.203125 C 12.671875 -16.296875 11.992188 -15.359375 11.171875 -14.390625 C 10.359375 -13.429688 9.453125 -12.425781 8.453125 -11.375 C 7.460938 -10.320312 6.488281 -9.175781 5.53125 -7.9375 L 5.53125 -6.71875 C 5.53125 -5.582031 5.773438 -4.75 6.265625 -4.21875 C 6.753906 -3.695312 7.320312 -3.4375 7.96875 -3.4375 C 9.71875 -3.4375 11.257812 -4.300781 12.59375 -6.03125 C 13.144531 -6.738281 13.5625 -7.09375 13.84375 -7.09375 C 14.125 -7.09375 14.265625 -6.742188 14.265625 -6.046875 C 14.265625 -5.359375 14.078125 -4.65625 13.703125 -3.9375 C 13.328125 -3.21875 12.832031 -2.554688 12.21875 -1.953125 C 11.613281 -1.359375 10.914062 -0.867188 10.125 -0.484375 C 9.332031 -0.0976562 8.523438 0.09375 7.703125 0.09375 Z M 9.34375 -16.234375 C 9.769531 -16.765625 10.101562 -17.242188 10.34375 -17.671875 C 10.582031 -18.097656 10.703125 -18.539062 10.703125 -19 C 10.703125 -19.457031 10.539062 -19.6875 10.21875 -19.6875 C 9.507812 -19.6875 8.722656 -18.953125 7.859375 -17.484375 C 7.003906 -16.023438 6.363281 -14.113281 5.9375 -11.75 C 6.625 -12.800781 7.253906 -13.679688 7.828125 -14.390625 C 8.410156 -15.097656 8.914062 -15.710938 9.34375 -16.234375 Z M 9.34375 -16.234375 "/></g></g><g style="fill:#60000b;fill-opacity:1;"><g transform="translate(482.122455, 88.170683)"><path style="stroke:none" d="M 4.5625 0.09375 C 2.53125 0.09375 1.515625 -1.800781 1.515625 -5.59375 C 1.515625 -7.664062 1.769531 -9.539062 2.28125 -11.21875 C 3.070312 -13.820312 3.960938 -15.125 4.953125 -15.125 C 5.546875 -15.125 6.015625 -14.726562 6.359375 -13.9375 C 6.640625 -13.320312 6.769531 -12.722656 6.75 -12.140625 C 6.75 -11.328125 6.507812 -9.894531 6.03125 -7.84375 C 5.5625 -6.0625 5.328125 -4.957031 5.328125 -4.53125 C 5.328125 -4.101562 5.429688 -3.804688 5.640625 -3.640625 C 5.859375 -3.484375 6.113281 -3.40625 6.40625 -3.40625 C 6.695312 -3.40625 7.066406 -3.597656 7.515625 -3.984375 C 7.960938 -4.367188 8.40625 -4.789062 8.84375 -5.25 C 9.289062 -5.707031 9.703125 -6.128906 10.078125 -6.515625 C 10.453125 -6.898438 10.710938 -7.09375 10.859375 -7.09375 C 11.140625 -7.09375 11.28125 -6.742188 11.28125 -6.046875 C 11.28125 -4.628906 10.566406 -3.242188 9.140625 -1.890625 C 7.710938 -0.546875 6.1875 0.113281 4.5625 0.09375 Z M 5.8125 -17.578125 C 5.257812 -18.390625 4.984375 -19.257812 4.984375 -20.1875 C 4.984375 -21.125 5.128906 -21.898438 5.421875 -22.515625 C 5.722656 -23.140625 6.003906 -23.597656 6.265625 -23.890625 C 6.523438 -24.191406 6.828125 -24.34375 7.171875 -24.34375 C 7.742188 -24.34375 8.265625 -23.921875 8.734375 -23.078125 C 9.203125 -22.234375 9.4375 -21.523438 9.4375 -20.953125 C 9.4375 -19.898438 9.0625 -19.070312 8.3125 -18.46875 C 7.570312 -17.875 6.738281 -17.578125 5.8125 -17.578125 Z M 5.8125 -17.578125 "/></g></g><g style="fill:#60000b;fill-opacity:1;"><g transform="translate(490.980495, 88.170683)"><path style="stroke:none" d=""/></g></g></g></svg>